{
.appVersion = "1350";
DisplayStrings = (
"\012n/en-cy/ii-cy/en-cy/pe-cy/tse-cy/tse-cy/dzhe-cy nm/sha-cy/shcha-cy/ii-cy \012jacryg/space/pe-cy/el-cy/el-cy.001/el-cy.001 Y/el-cy r/gamma \012/en-cy/en-cy/Placeholder/en-cy/Placeholder/o-cy/Placeholder/o-cy/o-cy \012/En-cy/En-cy/Placeholder/En-cy/Placeholder O/Placeholder OO\012nnnoooo",
"HN/space y\012nono\012/en-cy/o-cy/ii-cy/o-cy/pe-cy/o-cy/tse-cy/o-cy/dzhe-cy/o-cy \012/ii-cy/en-cy/pe-cy/tse-cy/dzhe-cy"
);
classes = (
{
code = "Alpha Beta Gamma Delta Epsilon Zeta Eta Theta Iota Kappa Lambda Mu Nu Xi Omicron Pi Rho Sigma Tau Upsilon Phi Chi Psi Omega Alphatonos Epsilontonos Etatonos Iotatonos Omicrontonos Upsilontonos Omegatonos Iotadieresis Upsilondieresis alpha beta gamma delta epsilon zeta eta theta iota kappa lambda mu nu xi omicron pi rho sigmafinal sigma tau upsilon phi chi psi omega iotatonos iotadieresis iotadieresistonos upsilontonos upsilondieresis upsilondieresistonos omicrontonos omegatonos alphatonos epsilontonos etatonos beta.ss02 delta.ss02 theta.ss02 sigma.ss02 ";
name = grkall;
},
{
code = "Alphatonos Epsilontonos Etatonos Iotatonos Omicrontonos Upsilontonos Omegatonos ";
name = grekCapsTonos;
},
{
code = "Alpha Epsilon Eta Iota Omicron Upsilon Omega ";
name = grekCapsTonosless;
},
{
code = "Alpha Beta Gamma Delta Epsilon Zeta Eta Theta Iota Kappa Lambda Mu Nu Xi Omicron Pi Rho Sigma Tau Upsilon Phi Chi Psi Omega Alphatonos Epsilontonos Etatonos Iotatonos Omicrontonos Upsilontonos Omegatonos Iotadieresis Upsilondieresis ";
name = grekCaps;
},
{
code = "asterisk backslash periodcentered bullet colon comma ellipsis exclam exclamdown numbersign period question questiondown quotedbl quotesingle semicolon slash underscore questiondown.calt braceleft braceright bracketleft bracketright parenleft parenright emdash endash hyphen guillemetleft guillemetright guilsinglleft guilsinglright quotedblbase quotedblleft quotedblright quoteleft quoteright quotesinglbase anoteleia questiongreek space ";

glyphs = (
{
color = 4;
glyphname = A;
lastChange = "2017-11-24 10:13:38 +0000";
layers = (
{
layerId = "863809E3-B3D3-4728-B9C6-73F0AB5A9F00";
paths = (
{
closed = 1;
nodes = (
"86 -11 OFFCURVE",
"174 -1 OFFCURVE",
"298 -1 CURVE SMOOTH",
"415 -1 OFFCURVE",
"471 -12 OFFCURVE",
"526 -17 CURVE",
"541 40 OFFCURVE",
"544 165 OFFCURVE",
"533 222 CURVE",
"505 222 LINE",
"504 272 LINE",
"591 272 LINE",
"592 222 LINE",
"564 222 LINE",
"556 165 OFFCURVE",
"559 40 OFFCURVE",
"571 -17 CURVE",
"626 -12 OFFCURVE",
"731 -1 OFFCURVE",
"842 -1 CURVE SMOOTH",
"950 -1 OFFCURVE",
"1024 -12 OFFCURVE",
"1079 -17 CURVE",
"1101 40 OFFCURVE",
"1104 165 OFFCURVE",
"1086 222 CURVE",
"1043 237 OFFCURVE",
"1006 274 OFFCURVE",
"1006 392 CURVE SMOOTH",
"1006 515 OFFCURVE",
"1033 785 OFFCURVE",
"808 785 CURVE SMOOTH",
"647 785 OFFCURVE",
"469 764 OFFCURVE",
"333 764 CURVE SMOOTH",
"199 764 OFFCURVE",
"127 770 OFFCURVE",
"72 775 CURVE",
"45 712 OFFCURVE",
"45 582 OFFCURVE",
"68 533 CURVE",
"129 523 OFFCURVE",
"119 448 OFFCURVE",
"108 374 CURVE SMOOTH",
"98 303 OFFCURVE",
"84 235 OFFCURVE",
"20 222 CURVE",
"2 165 OFFCURVE",
"5 40 OFFCURVE",
"27 -17 CURVE"
);
},
{
closed = 1;
nodes = (
"512 466 LINE",
"583 466 LINE",
"584 419 LINE",
"512 419 LINE"
);
}
);
width = 1106;
},
{
background = {
paths = (
{
closed = 1;
nodes = (
"236 -166 OFFCURVE",
"324 -156 OFFCURVE",
"448 -156 CURVE SMOOTH",
"565 -156 OFFCURVE",
"621 -167 OFFCURVE",
"676 -172 CURVE",
"686.045 -133.83 OFFCURVE",
"690.708 -65.166 OFFCURVE",
"689.39 -6.848 CURVE",
"696.004 -6.382 OFFCURVE",
"702.751 -5.93 OFFCURVE",
"709.617 -5.496 CURVE",
"708.903 -64.101 OFFCURVE",
"712.902 -133.534 OFFCURVE",
"721 -172 CURVE",
"776 -167 OFFCURVE",
"881 -156 OFFCURVE",
"992 -156 CURVE SMOOTH",
"1100 -156 OFFCURVE",
"1174 -167 OFFCURVE",
"1229 -172 CURVE",
"1251 -115 OFFCURVE",
"1254 10 OFFCURVE",
"1236 67 CURVE",
"1193 82 OFFCURVE",
"1156 119 OFFCURVE",
"1156 237 CURVE SMOOTH",
"1156 353.187 OFFCURVE",
"1180.091 600.54 OFFCURVE",
"993.115 627.585 CURVE",
"972.739 713.643 OFFCURVE",
"923.669 785 OFFCURVE",
"808 785 CURVE SMOOTH",
"647 785 OFFCURVE",
"469 764 OFFCURVE",
"333 764 CURVE SMOOTH",
"199 764 OFFCURVE",
"127 770 OFFCURVE",
"72 775 CURVE",
"45 712 OFFCURVE",
"45 582 OFFCURVE",
"68 533 CURVE",
"129 523 OFFCURVE",
"119 448 OFFCURVE",
"108 374 CURVE SMOOTH",
"98 303 OFFCURVE",
"84 235 OFFCURVE",
"20 222 CURVE",
"2 165 OFFCURVE",
"5 40 OFFCURVE",
"27 -17 CURVE",
"60.961 -13.546 OFFCURVE",
"104.53 -8.767 OFFCURVE",
"159.042 -5.333 CURVE",
"155.948 -63.972 OFFCURVE",
"162.14 -133.499 OFFCURVE",
"177 -172 CURVE"
);
},
{
closed = 1;
nodes = (
"5 40 OFFCURVE",
"2 165 OFFCURVE",
"20 222 CURVE",
"84 235 OFFCURVE",
"98 303 OFFCURVE",
"108 374 CURVE SMOOTH",
"119 448 OFFCURVE",
"129 523 OFFCURVE",
"68 533 CURVE",
"45 582 OFFCURVE",
"45 712 OFFCURVE",
"72 775 CURVE",
"127 770 OFFCURVE",
"199 764 OFFCURVE",
"333 764 CURVE SMOOTH",
"469 764 OFFCURVE",
"647 785 OFFCURVE",
"808 785 CURVE SMOOTH",
"1033 785 OFFCURVE",
"1006 515 OFFCURVE",
"1006 392 CURVE SMOOTH",
"1006 274 OFFCURVE",
"1043 237 OFFCURVE",
"1086 222 CURVE",
"1104 165 OFFCURVE",
"1101 40 OFFCURVE",
"1079 -17 CURVE",
"1024 -12 OFFCURVE",
"950 -1 OFFCURVE",
"842 -1 CURVE SMOOTH",
"731 -1 OFFCURVE",
"626 -12 OFFCURVE",
"571 -17 CURVE",
"559 40 OFFCURVE",
"556 165 OFFCURVE",
"564 222 CURVE",
"592 222 LINE",
"591 272 LINE",
"504 272 LINE",
"505 222 LINE",
"533 222 LINE",
"544 165 OFFCURVE",
"541 40 OFFCURVE",
"526 -17 CURVE",
"471 -12 OFFCURVE",
"415 -1 OFFCURVE",
"298 -1 CURVE SMOOTH",
"174 -1 OFFCURVE",
"86 -11 OFFCURVE",
"27 -17 CURVE"
);
},
{
closed = 1;
nodes = (
"584 419 LINE",
"583 466 LINE",
"512 466 LINE",
"512 419 LINE"
);
}
);
};
layerId = "BDCFD595-0135-4C14-B4A6-60502184522E";
paths = (
{
closed = 1;
nodes = (
"236 -166 OFFCURVE",
"324 -156 OFFCURVE",
"448 -156 CURVE SMOOTH",
"565 -156 OFFCURVE",
"621 -167 OFFCURVE",
"676 -172 CURVE",
"679 -161 OFFCURVE",
"681 -148 OFFCURVE",
"683 -133 CURVE",
"721 -172 LINE",
"776 -167 OFFCURVE",
"881 -156 OFFCURVE",
"992 -156 CURVE SMOOTH",
"1100 -156 OFFCURVE",
"1174 -167 OFFCURVE",
"1229 -172 CURVE",
"1251 -115 OFFCURVE",
"1254 10 OFFCURVE",
"1236 67 CURVE",
"1193 82 OFFCURVE",
"1156 119 OFFCURVE",
"1156 237 CURVE SMOOTH",
"1156 322 OFFCURVE",
"1169 478 OFFCURVE",
"1102 566 CURVE",
"937 738 LINE SMOOTH",
"911 764 OFFCURVE",
"862 785 OFFCURVE",
"808 785 CURVE SMOOTH",
"647 785 OFFCURVE",
"469 764 OFFCURVE",
"333 764 CURVE SMOOTH",
"199 764 OFFCURVE",
"127 770 OFFCURVE",
"72 775 CURVE",
"45 712 OFFCURVE",
"45 582 OFFCURVE",
"68 533 CURVE",
"114 486 LINE",
"120 456 OFFCURVE",
"114 415 OFFCURVE",
"108 374 CURVE SMOOTH",
"98 303 OFFCURVE",
"84 235 OFFCURVE",
"20 222 CURVE",
"2 165 OFFCURVE",
"5 40 OFFCURVE",
"27 -17 CURVE",
"177 -172 LINE"
);
}
);
width = 1106;
}
);
leftKerningGroup = A;
rightKerningGroup = A;
unicode = 0041;
},
{
color = 5;
glyphname = Aacute;
lastChange = "2017-11-24 10:13:38 +0000";
layers = (
{
layerId = "863809E3-B3D3-4728-B9C6-73F0AB5A9F00";
paths = (
{
closed = 1;
nodes = (
"86 -11 OFFCURVE",
"174 -1 OFFCURVE",
"298 -1 CURVE SMOOTH",
"415 -1 OFFCURVE",
"471 -12 OFFCURVE",
"526 -17 CURVE",
"541 40 OFFCURVE",
"544 165 OFFCURVE",
"533 222 CURVE",
"505 222 LINE",
"504 272 LINE",
"591 272 LINE",
"592 222 LINE",
"564 222 LINE",
"556 165 OFFCURVE",
"559 40 OFFCURVE",
"571 -17 CURVE",
"626 -12 OFFCURVE",
"731 -1 OFFCURVE",
"842 -1 CURVE SMOOTH",
"950 -1 OFFCURVE",
"1024 -12 OFFCURVE",
"1079 -17 CURVE",
"1101 40 OFFCURVE",
"1104 165 OFFCURVE",
"1086 222 CURVE",
"1043 237 OFFCURVE",
"1006 274 OFFCURVE",
"1006 392 CURVE SMOOTH",
"1006 515 OFFCURVE",
"1033 785 OFFCURVE",
"808 785 CURVE SMOOTH",
"772 785 LINE",
"774 791 OFFCURVE",
"775 798 OFFCURVE",
"776 803 CURVE",
"726 866 OFFCURVE",
"516 904 OFFCURVE",
"394 854 CURVE",
"316 745 OFFCURVE",
"317 607 OFFCURVE",
"380 539 CURVE",
"284 575 OFFCURVE",
"300 694 OFFCURVE",
"316 764 CURVE",
"180 765 OFFCURVE",
"124 770 OFFCURVE",
"72 775 CURVE",
"45 712 OFFCURVE",
"45 582 OFFCURVE",
"68 533 CURVE",
"129 523 OFFCURVE",
"119 448 OFFCURVE",
"108 374 CURVE SMOOTH",
"98 303 OFFCURVE",
"84 235 OFFCURVE",
"20 222 CURVE",
"2 165 OFFCURVE",
"5 40 OFFCURVE",
"27 -17 CURVE"
);
},
{
closed = 1;
nodes = (
"512 466 LINE",
"583 466 LINE",
"584 419 LINE",
"512 419 LINE"
);
}
);
width = 1106;
},
{
layerId = "BDCFD595-0135-4C14-B4A6-60502184522E";
paths = (
{
closed = 1;
nodes = (
"236 -166 OFFCURVE",
"324 -156 OFFCURVE",
"448 -156 CURVE SMOOTH",
"565 -156 OFFCURVE",
"621 -167 OFFCURVE",
"676 -172 CURVE",
"679 -161 OFFCURVE",
"681 -148 OFFCURVE",
"683 -133 CURVE",
"721 -172 LINE",
"776 -167 OFFCURVE",
"881 -156 OFFCURVE",
"992 -156 CURVE SMOOTH",
"1100 -156 OFFCURVE",
"1174 -167 OFFCURVE",
"1229 -172 CURVE",
"1251 -115 OFFCURVE",
"1254 10 OFFCURVE",
"1236 67 CURVE",
"1193 82 OFFCURVE",
"1156 119 OFFCURVE",
"1156 237 CURVE SMOOTH",
"1156 331 OFFCURVE",
"1165 503 OFFCURVE",
"1079 591 CURVE SMOOTH",
"950 724 LINE SMOOTH",
"917 758 OFFCURVE",
"876 785 OFFCURVE",
"808 785 CURVE SMOOTH",
"793 785 LINE",
"776 803 LINE",
"726 866 OFFCURVE",
"516 904 OFFCURVE",
"394 854 CURVE",
"368 817 OFFCURVE",
"350 777 OFFCURVE",
"341 738 CURVE",
"316 764 LINE",
"180 765 OFFCURVE",
"124 770 OFFCURVE",
"72 775 CURVE",
"45 712 OFFCURVE",
"45 582 OFFCURVE",
"68 533 CURVE",
"114 486 LINE",
"120 456 OFFCURVE",
"114 415 OFFCURVE",
"108 374 CURVE SMOOTH",
"98 303 OFFCURVE",
"84 235 OFFCURVE",
"20 222 CURVE",
"2 165 OFFCURVE",
"5 40 OFFCURVE",
"27 -17 CURVE",
"177 -172 LINE"
);
}
);
width = 1106;
}
);
leftKerningGroup = A;
leftMetricsKey = "=A";
rightKerningGroup = A;
rightMetricsKey = "=A";
unicode = 00C1;
},
{
color = 5;
glyphname = Abreve;
lastChange = "2017-11-24 10:13:38 +0000";
layers = (
{
layerId = "863809E3-B3D3-4728-B9C6-73F0AB5A9F00";
paths = (
{
closed = 1;
nodes = (
"86 -11 OFFCURVE",
"174 -1 OFFCURVE",
"298 -1 CURVE SMOOTH",
"415 -1 OFFCURVE",
"471 -12 OFFCURVE",
"526 -17 CURVE",
"541 40 OFFCURVE",
"544 165 OFFCURVE",
"533 222 CURVE",
"505 222 LINE",
"504 272 LINE",
"591 272 LINE",
"592 222 LINE",
"564 222 LINE",
"556 165 OFFCURVE",
"559 40 OFFCURVE",
"571 -17 CURVE",
"626 -12 OFFCURVE",
"731 -1 OFFCURVE",
"842 -1 CURVE SMOOTH",
"950 -1 OFFCURVE",
"1024 -12 OFFCURVE",
"1079 -17 CURVE",
"1101 40 OFFCURVE",
"1104 165 OFFCURVE",
"1086 222 CURVE",
"1043 237 OFFCURVE",
"1006 274 OFFCURVE",
"1006 392 CURVE SMOOTH",
"1006 508 OFFCURVE",
"1030 754 OFFCURVE",
"845 782 CURVE",
"845 803 OFFCURVE",
"844 825 OFFCURVE",
"840 847 CURVE",
"805 865 OFFCURVE",
"713 874 OFFCURVE",
"672 875 CURVE",
"652 845 OFFCURVE",
"611 830 OFFCURVE",
"551 830 CURVE SMOOTH",
"491 830 OFFCURVE",
"451 845 OFFCURVE",
"430 875 CURVE",
"385 874 OFFCURVE",
"287 865 OFFCURVE",
"252 847 CURVE",
"232 720 OFFCURVE",
"286 606 OFFCURVE",
"392 553 CURVE",
"283 569 OFFCURVE",
"220 662 OFFCURVE",
"210 766 CURVE",
"149 768 OFFCURVE",
"107 771 OFFCURVE",
"72 775 CURVE",
"45 712 OFFCURVE",
"45 582 OFFCURVE",
"68 533 CURVE",
"129 523 OFFCURVE",
"119 448 OFFCURVE",
"108 374 CURVE SMOOTH",
"98 303 OFFCURVE",
"84 235 OFFCURVE",
"20 222 CURVE",
"2 165 OFFCURVE",
"5 40 OFFCURVE",
"27 -17 CURVE"
);
},
{
closed = 1;
nodes = (
"512 466 LINE",
"583 466 LINE",
"584 419 LINE",
"512 419 LINE"
);
}
);
width = 1106;
},
{
layerId = "BDCFD595-0135-4C14-B4A6-60502184522E";
paths = (
{
closed = 1;
nodes = (
"236 -166 OFFCURVE",
"324 -156 OFFCURVE",
"448 -156 CURVE SMOOTH",
"565 -156 OFFCURVE",
"621 -167 OFFCURVE",
"676 -172 CURVE",
"679 -161 OFFCURVE",
"681 -148 OFFCURVE",
"683 -133 CURVE",
"721 -172 LINE",
"776 -167 OFFCURVE",
"881 -156 OFFCURVE",
"992 -156 CURVE SMOOTH",
"1100 -156 OFFCURVE",
"1174 -167 OFFCURVE",
"1229 -172 CURVE",
"1251 -115 OFFCURVE",
"1254 10 OFFCURVE",
"1236 67 CURVE",
"1193 82 OFFCURVE",
"1156 119 OFFCURVE",
"1156 237 CURVE SMOOTH",
"1156 330 OFFCURVE",
"1169 497 OFFCURVE",
"1081 588 CURVE SMOOTH",
"992 681 LINE",
"991 684 OFFCURVE",
"991 688 OFFCURVE",
"990 692 CURVE",
"840 847 LINE",
"805 865 OFFCURVE",
"713 874 OFFCURVE",
"672 875 CURVE",
"652 845 OFFCURVE",
"611 830 OFFCURVE",
"551 830 CURVE SMOOTH",
"491 830 OFFCURVE",
"451 845 OFFCURVE",
"430 875 CURVE",
"385 874 OFFCURVE",
"287 865 OFFCURVE",
"252 847 CURVE",
"245 801 OFFCURVE",
"247 756 OFFCURVE",
"259 716 CURVE",
"210 766 LINE",
"149 768 OFFCURVE",
"107 771 OFFCURVE",
"72 775 CURVE",
"45 712 OFFCURVE",
"45 582 OFFCURVE",
"68 533 CURVE",
"114 486 LINE",
"120 456 OFFCURVE",
"114 415 OFFCURVE",
"108 374 CURVE SMOOTH",
"98 303 OFFCURVE",
"84 235 OFFCURVE",
"20 222 CURVE",
"2 165 OFFCURVE",
"5 40 OFFCURVE",
"27 -17 CURVE",
"177 -172 LINE"
);
}
);
width = 1106;
}
);
leftKerningGroup = A;
leftMetricsKey = "=A";
rightKerningGroup = A;
rightMetricsKey = "=A";
unicode = 0102;
},
{
color = 5;
glyphname = Acircumflex;
lastChange = "2017-11-24 10:13:38 +0000";
layers = (
{
layerId = "863809E3-B3D3-4728-B9C6-73F0AB5A9F00";
paths = (
{
closed = 1;
nodes = (
"86 -11 OFFCURVE",
"174 -1 OFFCURVE",
"298 -1 CURVE SMOOTH",
"415 -1 OFFCURVE",
"471 -12 OFFCURVE",
"526 -17 CURVE",
"541 40 OFFCURVE",
"544 165 OFFCURVE",
"533 222 CURVE",
"505 222 LINE",
"504 272 LINE",
"591 272 LINE",
"592 222 LINE",
"564 222 LINE",
"556 165 OFFCURVE",
"559 40 OFFCURVE",
"571 -17 CURVE",
"626 -12 OFFCURVE",
"731 -1 OFFCURVE",
"842 -1 CURVE SMOOTH",
"950 -1 OFFCURVE",
"1024 -12 OFFCURVE",
"1079 -17 CURVE",
"1101 40 OFFCURVE",
"1104 165 OFFCURVE",
"1086 222 CURVE",
"1043 237 OFFCURVE",
"1006 274 OFFCURVE",
"1006 392 CURVE SMOOTH",
"1006 515 OFFCURVE",
"1033 785 OFFCURVE",
"808 785 CURVE SMOOTH",
"773 785 LINE",
"748 820 OFFCURVE",
"720 849 OFFCURVE",
"694 867 CURVE",
"641 877 OFFCURVE",
"474 879 OFFCURVE",
"392 867 CURVE",
"316 815 OFFCURVE",
"239 687 OFFCURVE",
"248 559 CURVE",
"221 600 OFFCURVE",
"228 705 OFFCURVE",
"257 762 CURVE",
"191 765 OFFCURVE",
"108 772 OFFCURVE",
"72 775 CURVE",
"45 712 OFFCURVE",
"45 582 OFFCURVE",
"68 533 CURVE",
"129 523 OFFCURVE",
"119 448 OFFCURVE",
"108 374 CURVE SMOOTH",
"98 303 OFFCURVE",
"84 235 OFFCURVE",
"20 222 CURVE",
"2 165 OFFCURVE",
"5 40 OFFCURVE",
"27 -17 CURVE"
);
},
{
closed = 1;
nodes = (
"523 540 LINE",
"555 540 LINE",
"557 419 LINE",
"523 419 LINE"
);
}
);
width = 1106;
},
{
layerId = "BDCFD595-0135-4C14-B4A6-60502184522E";
paths = (
{
closed = 1;
nodes = (
"236 -166 OFFCURVE",
"324 -156 OFFCURVE",
"448 -156 CURVE SMOOTH",
"565 -156 OFFCURVE",
"621 -167 OFFCURVE",
"676 -172 CURVE",
"679 -161 OFFCURVE",
"681 -148 OFFCURVE",
"683 -133 CURVE",
"721 -172 LINE",
"776 -167 OFFCURVE",
"881 -156 OFFCURVE",
"992 -156 CURVE SMOOTH",
"1100 -156 OFFCURVE",
"1174 -167 OFFCURVE",
"1229 -172 CURVE",
"1251 -115 OFFCURVE",
"1254 10 OFFCURVE",
"1236 67 CURVE",
"1193 82 OFFCURVE",
"1156 119 OFFCURVE",
"1156 237 CURVE SMOOTH",
"1156 331 OFFCURVE",
"1165 502 OFFCURVE",
"1079 591 CURVE SMOOTH",
"950 724 LINE SMOOTH",
"917 758 OFFCURVE",
"876 785 OFFCURVE",
"808 785 CURVE SMOOTH",
"773 785 LINE",
"748 820 OFFCURVE",
"720 849 OFFCURVE",
"694 867 CURVE",
"641 877 OFFCURVE",
"474 879 OFFCURVE",
"392 867 CURVE",
"352 840 OFFCURVE",
"312 792 OFFCURVE",
"284 734 CURVE",
"257 762 LINE",
"191 765 OFFCURVE",
"108 772 OFFCURVE",
"72 775 CURVE",
"45 712 OFFCURVE",
"45 582 OFFCURVE",
"68 533 CURVE",
"114 486 LINE",
"120 456 OFFCURVE",
"114 415 OFFCURVE",
"108 374 CURVE SMOOTH",
"98 303 OFFCURVE",
"84 235 OFFCURVE",
"20 222 CURVE",
"2 165 OFFCURVE",
"5 40 OFFCURVE",
"27 -17 CURVE",
"177 -172 LINE"
);
}
);
width = 1106;
}
);
leftKerningGroup = A;
leftMetricsKey = "=A";
rightKerningGroup = A;
rightMetricsKey = "=A";
unicode = 00C2;
},
{
color = 5;
glyphname = Adieresis;
lastChange = "2017-11-24 10:13:38 +0000";
layers = (
{
layerId = "863809E3-B3D3-4728-B9C6-73F0AB5A9F00";
paths = (
{
closed = 1;
nodes = (
"86 -11 OFFCURVE",
"174 -1 OFFCURVE",
"298 -1 CURVE SMOOTH",
"415 -1 OFFCURVE",
"471 -12 OFFCURVE",
"526 -17 CURVE",
"541 40 OFFCURVE",
"544 165 OFFCURVE",
"533 222 CURVE",
"505 222 LINE",
"504 272 LINE",
"591 272 LINE",
"592 222 LINE",
"564 222 LINE",
"556 165 OFFCURVE",
"559 40 OFFCURVE",
"571 -17 CURVE",
"626 -12 OFFCURVE",
"731 -1 OFFCURVE",
"842 -1 CURVE SMOOTH",
"950 -1 OFFCURVE",
"1024 -12 OFFCURVE",
"1079 -17 CURVE",
"1101 40 OFFCURVE",
"1104 165 OFFCURVE",
"1086 222 CURVE",
"1043 237 OFFCURVE",
"1006 274 OFFCURVE",
"1006 392 CURVE SMOOTH",
"1006 500 OFFCURVE",
"1027 721 OFFCURVE",
"880 774 CURVE",
"854 832 OFFCURVE",
"792 876 OFFCURVE",
"679 876 CURVE SMOOTH",
"551 876 OFFCURVE",
"488 822 OFFCURVE",
"467 760 CURVE",
"459 795 OFFCURVE",
"471 837 OFFCURVE",
"515 866 CURVE",
"491 871 OFFCURVE",
"462 876 OFFCURVE",
"429 876 CURVE SMOOTH",
"264 876 OFFCURVE",
"209 786 OFFCURVE",
"209 707 CURVE SMOOTH",
"209 633 OFFCURVE",
"255 573 OFFCURVE",
"318 545 CURVE",
"221 554 OFFCURVE",
"152 639 OFFCURVE",
"181 768 CURVE",
"139 770 OFFCURVE",
"98 772 OFFCURVE",
"72 775 CURVE",
"45 712 OFFCURVE",
"45 582 OFFCURVE",
"68 533 CURVE",
"129 523 OFFCURVE",
"119 448 OFFCURVE",
"108 374 CURVE SMOOTH",
"98 303 OFFCURVE",
"84 235 OFFCURVE",
"20 222 CURVE",
"2 165 OFFCURVE",
"5 40 OFFCURVE",
"27 -17 CURVE"
);
},
{
closed = 1;
nodes = (
"512 466 LINE",
"583 466 LINE",
"584 419 LINE",
"512 419 LINE"
);
}
);
width = 1106;
},
{
layerId = "BDCFD595-0135-4C14-B4A6-60502184522E";
paths = (
{
closed = 1;
nodes = (
"236 -166 OFFCURVE",
"324 -156 OFFCURVE",
"448 -156 CURVE SMOOTH",
"565 -156 OFFCURVE",
"621 -167 OFFCURVE",
"676 -172 CURVE",
"679 -161 OFFCURVE",
"681 -148 OFFCURVE",
"683 -133 CURVE",
"721 -172 LINE",
"776 -167 OFFCURVE",
"881 -156 OFFCURVE",
"992 -156 CURVE SMOOTH",
"1100 -156 OFFCURVE",
"1174 -167 OFFCURVE",
"1229 -172 CURVE",
"1251 -115 OFFCURVE",
"1254 10 OFFCURVE",
"1236 67 CURVE",
"1193 82 OFFCURVE",
"1156 119 OFFCURVE",
"1156 237 CURVE SMOOTH",
"1156 331 OFFCURVE",
"1169 497 OFFCURVE",
"1078 591 CURVE SMOOTH",
"951 723 LINE SMOOTH",
"932 743 OFFCURVE",
"910 763 OFFCURVE",
"880 773 CURVE",
"854 832 OFFCURVE",
"792 876 OFFCURVE",
"679 876 CURVE SMOOTH",
"617 876 OFFCURVE",
"571 863 OFFCURVE",
"537 844 CURVE",
"515 866 LINE",
"491 871 OFFCURVE",
"462 876 OFFCURVE",
"429 876 CURVE SMOOTH",
"284 876 OFFCURVE",
"224 807 OFFCURVE",
"212 736 CURVE",
"181 768 LINE",
"139 770 OFFCURVE",
"98 772 OFFCURVE",
"72 775 CURVE",
"45 712 OFFCURVE",
"45 582 OFFCURVE",
"68 533 CURVE",
"114 486 LINE",
"120 456 OFFCURVE",
"114 415 OFFCURVE",
"108 374 CURVE SMOOTH",
"98 303 OFFCURVE",
"84 235 OFFCURVE",
"20 222 CURVE",
"2 165 OFFCURVE",
"5 40 OFFCURVE",
"27 -17 CURVE",
"177 -172 LINE"
);
}
);
width = 1106;
}
);
leftKerningGroup = A;
leftMetricsKey = "=A";
rightKerningGroup = A;
rightMetricsKey = "=A";
unicode = 00C4;
},
{
color = 5;
glyphname = Adotbelow;
lastChange = "2017-11-24 10:13:38 +0000";
layers = (
{
layerId = "863809E3-B3D3-4728-B9C6-73F0AB5A9F00";
paths = (
{
closed = 1;
nodes = (
"700 -173 OFFCURVE",
"756 -89 OFFCURVE",
"756 -4 CURVE SMOOTH",
"756 -3 LINE",
"784 -2 OFFCURVE",
"813 -1 OFFCURVE",
"842 -1 CURVE SMOOTH",
"950 -1 OFFCURVE",
"1024 -12 OFFCURVE",
"1079 -17 CURVE",
"1101 40 OFFCURVE",
"1104 165 OFFCURVE",
"1086 222 CURVE",
"1043 237 OFFCURVE",
"1006 274 OFFCURVE",
"1006 392 CURVE SMOOTH",
"1006 515 OFFCURVE",
"1033 785 OFFCURVE",
"808 785 CURVE SMOOTH",
"647 785 OFFCURVE",
"469 764 OFFCURVE",
"333 764 CURVE SMOOTH",
"199 764 OFFCURVE",
"127 770 OFFCURVE",
"72 775 CURVE",
"45 712 OFFCURVE",
"45 582 OFFCURVE",
"68 533 CURVE",
"129 523 OFFCURVE",
"119 448 OFFCURVE",
"108 374 CURVE SMOOTH",
"98 303 OFFCURVE",
"84 235 OFFCURVE",
"20 222 CURVE",
"2 165 OFFCURVE",
"5 40 OFFCURVE",
"27 -17 CURVE",
"84 -11 OFFCURVE",
"168 -2 OFFCURVE",
"286 -1 CURVE",
"290 67 OFFCURVE",
"330 146 OFFCURVE",
"416 151 CURVE",
"346 119 OFFCURVE",
"319 59 OFFCURVE",
"319 5 CURVE SMOOTH",
"319 -97 OFFCURVE",
"395 -173 OFFCURVE",
"541 -173 CURVE SMOOTH"
);
},
{
closed = 1;
nodes = (
"512 466 LINE",
"583 466 LINE",
"584 419 LINE",
"512 419 LINE"
);
},
{
closed = 1;
nodes = (
"504 272 LINE",
"591 272 LINE",
"592 221 LINE",
"504 221 LINE"
);
}
);
width = 1106;
},
{
layerId = "BDCFD595-0135-4C14-B4A6-60502184522E";
paths = (
{
closed = 1;
nodes = (
"850 -328 OFFCURVE",
"906 -244 OFFCURVE",
"906 -159 CURVE SMOOTH",
"906 -158 LINE",
"934 -157 OFFCURVE",
"963 -156 OFFCURVE",
"992 -156 CURVE SMOOTH",
"1100 -156 OFFCURVE",
"1174 -167 OFFCURVE",
"1229 -172 CURVE",
"1251 -115 OFFCURVE",
"1254 10 OFFCURVE",
"1236 67 CURVE",
"1193 82 OFFCURVE",
"1156 119 OFFCURVE",
"1156 237 CURVE SMOOTH",
"1156 322 OFFCURVE",
"1169 478 OFFCURVE",
"1102 566 CURVE",
"937 738 LINE SMOOTH",
"912 765 OFFCURVE",
"862 785 OFFCURVE",
"808 785 CURVE SMOOTH",
"647 785 OFFCURVE",
"469 764 OFFCURVE",
"333 764 CURVE SMOOTH",
"199 764 OFFCURVE",
"127 770 OFFCURVE",
"72 775 CURVE",
"45 712 OFFCURVE",
"45 582 OFFCURVE",
"68 533 CURVE",
"114 486 LINE",
"120 456 OFFCURVE",
"114 415 OFFCURVE",
"108 374 CURVE SMOOTH",
"98 303 OFFCURVE",
"84 235 OFFCURVE",
"20 222 CURVE",
"2 165 OFFCURVE",
"5 40 OFFCURVE",
"27 -17 CURVE",
"177 -172 LINE",
"230 -166 OFFCURVE",
"305 -158 OFFCURVE",
"408 -156 CURVE",
"498 -253 LINE SMOOTH",
"541 -300 OFFCURVE",
"603 -328 OFFCURVE",
"691 -328 CURVE SMOOTH"
);
}
);
width = 1106;
}
);
leftKerningGroup = A;
leftMetricsKey = "=A";
rightKerningGroup = A;
rightMetricsKey = "=A";
unicode = 1EA0;
},
{
color = 5;
glyphname = Agrave;
lastChange = "2017-11-24 10:13:38 +0000";
layers = (
{
layerId = "863809E3-B3D3-4728-B9C6-73F0AB5A9F00";
paths = (
{
closed = 1;
nodes = (
"86 -11 OFFCURVE",
"174 -1 OFFCURVE",
"298 -1 CURVE SMOOTH",
"415 -1 OFFCURVE",
"471 -12 OFFCURVE",
"526 -17 CURVE",
"541 40 OFFCURVE",
"544 165 OFFCURVE",
"533 222 CURVE",
"505 222 LINE",
"504 272 LINE",
"591 272 LINE",
"592 222 LINE",
"564 222 LINE",
"556 165 OFFCURVE",
"559 40 OFFCURVE",
"571 -17 CURVE",
"626 -12 OFFCURVE",
"731 -1 OFFCURVE",
"842 -1 CURVE SMOOTH",
"950 -1 OFFCURVE",
"1024 -12 OFFCURVE",
"1079 -17 CURVE",
"1101 40 OFFCURVE",
"1104 165 OFFCURVE",
"1086 222 CURVE",
"1043 237 OFFCURVE",
"1006 274 OFFCURVE",
"1006 392 CURVE SMOOTH",
"1006 515 OFFCURVE",
"1033 785 OFFCURVE",
"808 785 CURVE SMOOTH",
"768 785 OFFCURVE",
"728 784 OFFCURVE",
"687 782 CURVE",
"677 811 OFFCURVE",
"663 836 OFFCURVE",
"650 854 CURVE",
"528 904 OFFCURVE",
"318 866 OFFCURVE",
"268 803 CURVE",
"283 712 OFFCURVE",
"354 615 OFFCURVE",
"427 557 CURVE",
"346 582 OFFCURVE",
"278 648 OFFCURVE",
"236 765 CURVE",
"161 767 OFFCURVE",
"112 771 OFFCURVE",
"72 775 CURVE",
"45 712 OFFCURVE",
"45 582 OFFCURVE",
"68 533 CURVE",
"129 523 OFFCURVE",
"119 448 OFFCURVE",
"108 374 CURVE SMOOTH",
"98 303 OFFCURVE",
"84 235 OFFCURVE",
"20 222 CURVE",
"2 165 OFFCURVE",
"5 40 OFFCURVE",
"27 -17 CURVE"
);
},
{
closed = 1;
nodes = (
"512 466 LINE",
"583 466 LINE",
"584 419 LINE",
"512 419 LINE"
);
}
);
width = 1106;
},
{
layerId = "BDCFD595-0135-4C14-B4A6-60502184522E";
paths = (
{
closed = 1;
nodes = (
"236 -166 OFFCURVE",
"324 -156 OFFCURVE",
"448 -156 CURVE SMOOTH",
"565 -156 OFFCURVE",
"621 -167 OFFCURVE",
"676 -172 CURVE",
"679 -161 OFFCURVE",
"681 -148 OFFCURVE",
"683 -133 CURVE",
"721 -172 LINE",
"776 -167 OFFCURVE",
"881 -156 OFFCURVE",
"992 -156 CURVE SMOOTH",
"1100 -156 OFFCURVE",
"1174 -167 OFFCURVE",
"1229 -172 CURVE",
"1251 -115 OFFCURVE",
"1254 10 OFFCURVE",
"1236 67 CURVE",
"1193 82 OFFCURVE",
"1156 119 OFFCURVE",
"1156 237 CURVE SMOOTH",
"1156 331 OFFCURVE",
"1166 502 OFFCURVE",
"1079 591 CURVE SMOOTH",
"950 724 LINE",
"920 760 OFFCURVE",
"876 784 OFFCURVE",
"808 784 CURVE SMOOTH",
"778 784 OFFCURVE",
"749 784 OFFCURVE",
"718 783 CURVE",
"650 854 LINE",
"528 904 OFFCURVE",
"318 866 OFFCURVE",
"268 803 CURVE",
"275 763 OFFCURVE",
"292 721 OFFCURVE",
"316 682 CURVE",
"236 765 LINE",
"161 767 OFFCURVE",
"112 771 OFFCURVE",
"72 775 CURVE",
"45 712 OFFCURVE",
"45 582 OFFCURVE",
"68 533 CURVE",
"114 486 LINE",
"120 456 OFFCURVE",
"114 415 OFFCURVE",
"108 374 CURVE SMOOTH",
"98 303 OFFCURVE",
"84 235 OFFCURVE",
"20 222 CURVE",
"2 165 OFFCURVE",
"5 40 OFFCURVE",
"27 -17 CURVE",
"177 -172 LINE"
);
}
);
width = 1106;
}
);
leftKerningGroup = A;
leftMetricsKey = "=A";
rightKerningGroup = A;
rightMetricsKey = "=A";
unicode = 00C0;
},
{
color = 5;
glyphname = Amacron;
lastChange = "2017-11-24 10:13:38 +0000";
layers = (
{
layerId = "863809E3-B3D3-4728-B9C6-73F0AB5A9F00";
paths = (
{
closed = 1;
nodes = (
"86 -11 OFFCURVE",
"174 -1 OFFCURVE",
"298 -1 CURVE SMOOTH",
"415 -1 OFFCURVE",
"471 -12 OFFCURVE",
"526 -17 CURVE",
"541 40 OFFCURVE",
"544 165 OFFCURVE",
"533 222 CURVE",
"505 222 LINE",
"504 272 LINE",
"591 272 LINE",
"592 222 LINE",
"564 222 LINE",
"556 165 OFFCURVE",
"559 40 OFFCURVE",
"571 -17 CURVE",
"626 -12 OFFCURVE",
"731 -1 OFFCURVE",
"842 -1 CURVE SMOOTH",
"950 -1 OFFCURVE",
"1024 -12 OFFCURVE",
"1079 -17 CURVE",
"1101 40 OFFCURVE",
"1104 165 OFFCURVE",
"1086 222 CURVE",
"1043 237 OFFCURVE",
"1006 274 OFFCURVE",
"1006 392 CURVE SMOOTH",
"1006 515 OFFCURVE",
"1033 785 OFFCURVE",
"808 785 CURVE SMOOTH",
"794 785 LINE",
"793 813 OFFCURVE",
"790 840 OFFCURVE",
"786 854 CURVE",
"649 844 OFFCURVE",
"397 844 OFFCURVE",
"262 854 CURVE",
"250 798 OFFCURVE",
"252 588 OFFCURVE",
"262 552 CURVE",
"228 608 OFFCURVE",
"217 714 OFFCURVE",
"217 765 CURVE",
"173 766 OFFCURVE",
"117 771 OFFCURVE",
"72 775 CURVE",
"45 712 OFFCURVE",
"45 582 OFFCURVE",
"68 533 CURVE",
"129 523 OFFCURVE",
"119 448 OFFCURVE",
"108 374 CURVE SMOOTH",
"98 303 OFFCURVE",
"84 235 OFFCURVE",
"20 222 CURVE",
"2 165 OFFCURVE",
"5 40 OFFCURVE",
"27 -17 CURVE"
);
},
{
closed = 1;
nodes = (
"512 466 LINE",
"583 466 LINE",
"584 419 LINE",
"512 419 LINE"
);
}
);
width = 1106;
},
{
layerId = "BDCFD595-0135-4C14-B4A6-60502184522E";
paths = (
{
closed = 1;
nodes = (
"236 -166 OFFCURVE",
"324 -156 OFFCURVE",
"448 -156 CURVE SMOOTH",
"565 -156 OFFCURVE",
"621 -167 OFFCURVE",
"676 -172 CURVE",
"679 -161 OFFCURVE",
"681 -148 OFFCURVE",
"683 -133 CURVE",
"721 -172 LINE",
"776 -167 OFFCURVE",
"881 -156 OFFCURVE",
"992 -156 CURVE SMOOTH",
"1100 -156 OFFCURVE",
"1174 -167 OFFCURVE",
"1229 -172 CURVE",
"1251 -115 OFFCURVE",
"1254 10 OFFCURVE",
"1236 67 CURVE",
"1193 82 OFFCURVE",
"1156 119 OFFCURVE",
"1156 237 CURVE SMOOTH",
"1156 331 OFFCURVE",
"1165 502 OFFCURVE",
"1079 591 CURVE SMOOTH",
"950 724 LINE SMOOTH",
"928 746 OFFCURVE",
"902 768 OFFCURVE",
"865 778 CURVE",
"786 854 LINE",
"650 844 OFFCURVE",
"399 844 OFFCURVE",
"262 854 CURVE",
"257 831 OFFCURVE",
"254 780 OFFCURVE",
"254 727 CURVE",
"217 765 LINE",
"173 766 OFFCURVE",
"117 771 OFFCURVE",
"72 775 CURVE",
"45 712 OFFCURVE",
"45 582 OFFCURVE",
"68 533 CURVE",
"114 486 LINE",
"120 456 OFFCURVE",
"114 415 OFFCURVE",
"108 374 CURVE SMOOTH",
"98 303 OFFCURVE",
"84 235 OFFCURVE",
"20 222 CURVE",
"2 165 OFFCURVE",
"5 40 OFFCURVE",
"27 -17 CURVE",
"177 -172 LINE"
);
}
);
width = 1106;
}
);
leftKerningGroup = A;
leftMetricsKey = "=A";
rightKerningGroup = A;
rightMetricsKey = "=A";
unicode = 0100;
},
{
color = 5;
glyphname = Aogonek;
lastChange = "2017-11-24 10:13:38 +0000";
layers = (
{
layerId = "863809E3-B3D3-4728-B9C6-73F0AB5A9F00";
paths = (
{
closed = 1;
nodes = (
"937 -169 OFFCURVE",
"991 -152 OFFCURVE",
"1080 -159 CURVE",
"1102 -75 OFFCURVE",
"1104 137 OFFCURVE",
"1086 222 CURVE",
"1043 237 OFFCURVE",
"1006 274 OFFCURVE",
"1006 392 CURVE SMOOTH",
"1006 515 OFFCURVE",
"1033 785 OFFCURVE",
"808 785 CURVE SMOOTH",
"647 785 OFFCURVE",
"469 764 OFFCURVE",
"333 764 CURVE SMOOTH",
"199 764 OFFCURVE",
"127 770 OFFCURVE",
"72 775 CURVE",
"45 712 OFFCURVE",
"45 582 OFFCURVE",
"68 533 CURVE",
"129 523 OFFCURVE",
"119 448 OFFCURVE",
"108 374 CURVE SMOOTH",
"98 303 OFFCURVE",
"84 235 OFFCURVE",
"20 222 CURVE",
"2 165 OFFCURVE",
"5 40 OFFCURVE",
"27 -17 CURVE",
"86 -11 OFFCURVE",
"174 -1 OFFCURVE",
"298 -1 CURVE SMOOTH",
"415 -1 OFFCURVE",
"483 -12 OFFCURVE",
"539 -17 CURVE",
"554 40 OFFCURVE",
"557 165 OFFCURVE",
"546 222 CURVE",
"526 222 LINE",
"525 272 LINE",
"571 272 LINE",
"572 222 LINE SMOOTH",
"574 43 OFFCURVE",
"592 5 OFFCURVE",
"660 3 CURVE",
"652 -17 OFFCURVE",
"648 -37 OFFCURVE",
"648 -53 CURVE SMOOTH",
"648 -132 OFFCURVE",
"700 -169 OFFCURVE",
"826 -169 CURVE SMOOTH"
);
},
{
closed = 1;
nodes = (
"512 466 LINE",
"583 466 LINE",
"584 419 LINE",
"512 419 LINE"
);
}
);
width = 1106;
},
{
layerId = "BDCFD595-0135-4C14-B4A6-60502184522E";
paths = (
{
closed = 1;
nodes = (
"1087 -324 OFFCURVE",
"1141 -307 OFFCURVE",
"1230 -314 CURVE",
"1252 -230 OFFCURVE",
"1254 -18 OFFCURVE",
"1236 67 CURVE",
"1193 82 OFFCURVE",
"1156 119 OFFCURVE",
"1156 237 CURVE SMOOTH",
"1156 331 OFFCURVE",
"1165 502 OFFCURVE",
"1079 591 CURVE SMOOTH",
"950 724 LINE SMOOTH",
"917 758 OFFCURVE",
"876 785 OFFCURVE",
"808 785 CURVE SMOOTH",
"647 785 OFFCURVE",
"469 764 OFFCURVE",
"333 764 CURVE SMOOTH",
"199 764 OFFCURVE",
"127 770 OFFCURVE",
"72 775 CURVE",
"45 712 OFFCURVE",
"45 582 OFFCURVE",
"68 533 CURVE",
"114 486 LINE",
"120 456 OFFCURVE",
"114 415 OFFCURVE",
"108 374 CURVE SMOOTH",
"98 303 OFFCURVE",
"84 235 OFFCURVE",
"20 222 CURVE",
"2 165 OFFCURVE",
"5 40 OFFCURVE",
"27 -17 CURVE",
"177 -172 LINE",
"236 -166 OFFCURVE",
"324 -156 OFFCURVE",
"448 -156 CURVE SMOOTH",
"565 -156 OFFCURVE",
"633 -167 OFFCURVE",
"689 -172 CURVE",
"691 -165 OFFCURVE",
"692 -157 OFFCURVE",
"694 -148 CURVE",
"818 -276 LINE SMOOTH",
"848 -307 OFFCURVE",
"895 -324 OFFCURVE",
"976 -324 CURVE SMOOTH"
);
}
);
width = 1106;
}
);
leftKerningGroup = A;
leftMetricsKey = "=A";
rightKerningGroup = A;
rightMetricsKey = "=A";
unicode = 0104;
},
{
color = 5;
glyphname = Aring;
lastChange = "2017-11-24 10:13:38 +0000";
layers = (
{
layerId = "863809E3-B3D3-4728-B9C6-73F0AB5A9F00";
paths = (
{
closed = 1;
nodes = (
"86 -11 OFFCURVE",
"174 -1 OFFCURVE",
"298 -1 CURVE SMOOTH",
"415 -1 OFFCURVE",
"471 -12 OFFCURVE",
"526 -17 CURVE",
"541 40 OFFCURVE",
"544 165 OFFCURVE",
"533 222 CURVE",
"505 222 LINE",
"504 272 LINE",
"591 272 LINE",
"592 222 LINE",
"564 222 LINE",
"556 165 OFFCURVE",
"559 40 OFFCURVE",
"571 -17 CURVE",
"626 -12 OFFCURVE",
"731 -1 OFFCURVE",
"842 -1 CURVE SMOOTH",
"950 -1 OFFCURVE",
"1024 -12 OFFCURVE",
"1079 -17 CURVE",
"1101 40 OFFCURVE",
"1104 165 OFFCURVE",
"1086 222 CURVE",
"1043 237 OFFCURVE",
"1006 274 OFFCURVE",
"1006 392 CURVE SMOOTH",
"1006 515 OFFCURVE",
"1033 785 OFFCURVE",
"808 785 CURVE SMOOTH",
"784 785 OFFCURVE",
"759 784 OFFCURVE",
"734 784 CURVE",
"699 845 OFFCURVE",
"633 876 OFFCURVE",
"527 876 CURVE SMOOTH",
"371 876 OFFCURVE",
"318 788 OFFCURVE",
"318 707 CURVE SMOOTH",
"318 647 OFFCURVE",
"348 597 OFFCURVE",
"392 565 CURVE",
"314 584 OFFCURVE",
"264 654 OFFCURVE",
"287 764 CURVE",
"182 766 OFFCURVE",
"120 770 OFFCURVE",
"72 775 CURVE",
"45 712 OFFCURVE",
"45 582 OFFCURVE",
"68 533 CURVE",
"129 523 OFFCURVE",
"119 448 OFFCURVE",
"108 374 CURVE SMOOTH",
"98 303 OFFCURVE",
"84 235 OFFCURVE",
"20 222 CURVE",
"2 165 OFFCURVE",
"5 40 OFFCURVE",
"27 -17 CURVE"
);
},
{
closed = 1;
nodes = (
"525 744 LINE",
"557 744 LINE",
"557 668 LINE",
"525 668 LINE"
);
},
{
closed = 1;
nodes = (
"512 466 LINE",
"583 466 LINE",
"584 419 LINE",
"512 419 LINE"
);
}
);
width = 1106;
},
{
layerId = "BDCFD595-0135-4C14-B4A6-60502184522E";
paths = (
{
closed = 1;
nodes = (
"236 -166 OFFCURVE",
"324 -156 OFFCURVE",
"448 -156 CURVE SMOOTH",
"565 -156 OFFCURVE",
"621 -167 OFFCURVE",
"676 -172 CURVE",
"679 -161 OFFCURVE",
"681 -148 OFFCURVE",
"683 -133 CURVE",
"721 -172 LINE",
"776 -167 OFFCURVE",
"881 -156 OFFCURVE",
"992 -156 CURVE SMOOTH",
"1100 -156 OFFCURVE",
"1174 -167 OFFCURVE",
"1229 -172 CURVE",
"1251 -115 OFFCURVE",
"1254 10 OFFCURVE",
"1236 67 CURVE",
"1193 82 OFFCURVE",
"1156 119 OFFCURVE",
"1156 237 CURVE SMOOTH",
"1156 331 OFFCURVE",
"1165 503 OFFCURVE",
"1079 591 CURVE SMOOTH",
"950 724 LINE SMOOTH",
"917 758 OFFCURVE",
"876 785 OFFCURVE",
"808 785 CURVE SMOOTH",
"784 785 OFFCURVE",
"759 784 OFFCURVE",
"734 784 CURVE",
"699 845 OFFCURVE",
"633 876 OFFCURVE",
"527 876 CURVE SMOOTH",
"386 876 OFFCURVE",
"329 804 OFFCURVE",
"320 730 CURVE",
"287 764 LINE",
"182 766 OFFCURVE",
"120 770 OFFCURVE",
"72 775 CURVE",
"45 712 OFFCURVE",
"45 582 OFFCURVE",
"68 533 CURVE",
"114 486 LINE",
"120 456 OFFCURVE",
"114 415 OFFCURVE",
"108 374 CURVE SMOOTH",
"98 303 OFFCURVE",
"84 235 OFFCURVE",
"20 222 CURVE",
"2 165 OFFCURVE",
"5 40 OFFCURVE",
"27 -17 CURVE",
"177 -172 LINE"
);
}
);
width = 1106;
}
);
leftKerningGroup = A;
leftMetricsKey = "=A";
rightKerningGroup = A;
rightMetricsKey = "=A";
unicode = 00C5;
},
{
color = 5;
glyphname = Aringacute;
lastChange = "2017-11-24 10:13:38 +0000";
layers = (
{
layerId = "863809E3-B3D3-4728-B9C6-73F0AB5A9F00";
paths = (
{
closed = 1;
nodes = (
"86 -11 OFFCURVE",
"174 -1 OFFCURVE",
"298 -1 CURVE SMOOTH",
"415 -1 OFFCURVE",
"471 -12 OFFCURVE",
"526 -17 CURVE",
"541 40 OFFCURVE",
"544 165 OFFCURVE",
"533 222 CURVE",
"505 222 LINE",
"504 272 LINE",
"591 272 LINE",
"592 222 LINE",
"564 222 LINE",
"556 165 OFFCURVE",
"559 40 OFFCURVE",
"571 -17 CURVE",
"626 -12 OFFCURVE",
"731 -1 OFFCURVE",
"842 -1 CURVE SMOOTH",
"950 -1 OFFCURVE",
"1024 -12 OFFCURVE",
"1079 -17 CURVE",
"1101 40 OFFCURVE",
"1104 165 OFFCURVE",
"1086 222 CURVE",
"1043 237 OFFCURVE",
"1006 274 OFFCURVE",
"1006 392 CURVE SMOOTH",
"1006 489 OFFCURVE",
"1023 676 OFFCURVE",
"921 752 CURVE",
"939 785 OFFCURVE",
"952 819 OFFCURVE",
"958 853 CURVE",
"908 916 OFFCURVE",
"698 954 OFFCURVE",
"576 904 CURVE",
"555 875 OFFCURVE",
"532 826 OFFCURVE",
"523 773 CURVE",
"502 822 OFFCURVE",
"516 856 OFFCURVE",
"522 876 CURVE",
"381 876 OFFCURVE",
"318 788 OFFCURVE",
"318 707 CURVE SMOOTH",
"318 647 OFFCURVE",
"348 597 OFFCURVE",
"392 565 CURVE",
"314 584 OFFCURVE",
"264 654 OFFCURVE",
"287 764 CURVE",
"182 766 OFFCURVE",
"120 770 OFFCURVE",
"72 775 CURVE",
"45 712 OFFCURVE",
"45 582 OFFCURVE",
"68 533 CURVE",
"129 523 OFFCURVE",
"119 448 OFFCURVE",
"108 374 CURVE SMOOTH",
"98 303 OFFCURVE",
"84 235 OFFCURVE",
"20 222 CURVE",
"2 165 OFFCURVE",
"5 40 OFFCURVE",
"27 -17 CURVE"
);
},
{
closed = 1;
nodes = (
"486 744 LINE",
"519 744 LINE",
"518 732 OFFCURVE",
"517 719 OFFCURVE",
"518 707 CURVE",
"518 668 LINE",
"486 668 LINE"
);
},
{
closed = 1;
nodes = (
"512 466 LINE",
"583 466 LINE",
"584 419 LINE",
"512 419 LINE"
);
}
);
width = 1106;
},
{
layerId = "BDCFD595-0135-4C14-B4A6-60502184522E";
paths = (
{
closed = 1;
nodes = (
"236 -166 OFFCURVE",
"324 -156 OFFCURVE",
"448 -156 CURVE SMOOTH",
"565 -156 OFFCURVE",
"621 -167 OFFCURVE",
"676 -172 CURVE",
"679 -161 OFFCURVE",
"681 -148 OFFCURVE",
"683 -133 CURVE",
"721 -172 LINE",
"776 -167 OFFCURVE",
"881 -156 OFFCURVE",
"992 -156 CURVE SMOOTH",
"1100 -156 OFFCURVE",
"1174 -167 OFFCURVE",
"1229 -172 CURVE",
"1251 -115 OFFCURVE",
"1254 10 OFFCURVE",
"1236 67 CURVE",
"1193 82 OFFCURVE",
"1156 119 OFFCURVE",
"1156 237 CURVE SMOOTH",
"1156 331 OFFCURVE",
"1165 503 OFFCURVE",
"1079 591 CURVE SMOOTH",
"1072 598 LINE",
"1089 631 OFFCURVE",
"1102 664 OFFCURVE",
"1108 698 CURVE",
"958 853 LINE",
"908 916 OFFCURVE",
"698 954 OFFCURVE",
"576 904 CURVE",
"566 890 OFFCURVE",
"556 872 OFFCURVE",
"546 851 CURVE",
"522 876 LINE",
"394 876 OFFCURVE",
"331 804 OFFCURVE",
"320 730 CURVE",
"287 764 LINE",
"182 766 OFFCURVE",
"120 770 OFFCURVE",
"72 775 CURVE",
"45 712 OFFCURVE",
"45 582 OFFCURVE",
"68 533 CURVE",
"114 486 LINE",
"120 456 OFFCURVE",
"114 415 OFFCURVE",
"108 374 CURVE SMOOTH",
"98 303 OFFCURVE",
"84 235 OFFCURVE",
"20 222 CURVE",
"2 165 OFFCURVE",
"5 40 OFFCURVE",
"27 -17 CURVE",
"177 -172 LINE"
);
}
);
width = 1106;
}
);
leftKerningGroup = A;
leftMetricsKey = "=A";
rightKerningGroup = A;
rightMetricsKey = "=A";
unicode = 01FA;
},
{
color = 5;
glyphname = Atilde;
lastChange = "2017-11-24 10:13:38 +0000";
layers = (
{
background = {
paths = (
{
closed = 1;
nodes = (
"720 272 LINE",
"717 419 LINE",
"341 419 LINE",
"384 272 LINE"
);
},
{
closed = 1;
nodes = (
"396 548 OFFCURVE",
"419 561 OFFCURVE",
"455 561 CURVE SMOOTH",
"506 561 OFFCURVE",
"562 531 OFFCURVE",
"633 531 CURVE SMOOTH",
"747 531 OFFCURVE",
"802 613 OFFCURVE",
"802 827 CURVE",
"767 845 OFFCURVE",
"675 854 OFFCURVE",
"634 855 CURVE",
"620 834 OFFCURVE",
"597 821 OFFCURVE",
"561 821 CURVE SMOOTH",
"510 821 OFFCURVE",
"454 851 OFFCURVE",
"383 851 CURVE SMOOTH",
"269 851 OFFCURVE",
"214 769 OFFCURVE",
"214 555 CURVE",
"249 537 OFFCURVE",
"341 528 OFFCURVE",
"382 527 CURVE"
);
},
{
closed = 0;
nodes = (
"221 766 LINE",
"154 768 OFFCURVE",
"109 772 OFFCURVE",
"72 775 CURVE",
"45 712 OFFCURVE",
"45 582 OFFCURVE",
"68 533 CURVE",
"129 523 OFFCURVE",
"119 448 OFFCURVE",
"108 374 CURVE SMOOTH",
"98 303 OFFCURVE",
"84 235 OFFCURVE",
"20 222 CURVE",
"2 165 OFFCURVE",
"5 40 OFFCURVE",
"27 -17 CURVE",
"86 -11 OFFCURVE",
"174 -1 OFFCURVE",
"298 -1 CURVE SMOOTH",
"415 -1 OFFCURVE",
"471 -12 OFFCURVE",
"526 -17 CURVE",
"541 40 OFFCURVE",
"544 165 OFFCURVE",
"533 222 CURVE",
"505 222 LINE",
"503 367 LINE",
"512 395 LINE",
"512 466 LINE",
"583 466 LINE",
"585 394 LINE",
"590 367 LINE",
"592 222 LINE",
"564 222 LINE",
"556 165 OFFCURVE",
"559 40 OFFCURVE",
"571 -17 CURVE",
"626 -12 OFFCURVE",
"731 -1 OFFCURVE",
"842 -1 CURVE SMOOTH",
"950 -1 OFFCURVE",
"1024 -12 OFFCURVE",
"1079 -17 CURVE",
"1101 40 OFFCURVE",
"1104 165 OFFCURVE",
"1086 222 CURVE",
"1043 237 OFFCURVE",
"1006 274 OFFCURVE",
"1006 392 CURVE SMOOTH",
"1006 515 OFFCURVE",
"1033 785 OFFCURVE",
"808 785 CURVE SMOOTH",
"749 785 OFFCURVE",
"687 782 OFFCURVE",
"627 779 CURVE",
"486 779 OFFCURVE",
"416 694 OFFCURVE",
"410 584 CURVE",
"218 559 LINE",
"191 590 OFFCURVE",
"183 657 OFFCURVE",
"191 708 CURVE"
);
}
);
};
layerId = "863809E3-B3D3-4728-B9C6-73F0AB5A9F00";
paths = (
{
closed = 1;
nodes = (
"86 -11 OFFCURVE",
"174 -1 OFFCURVE",
"298 -1 CURVE SMOOTH",
"415 -1 OFFCURVE",
"471 -12 OFFCURVE",
"526 -17 CURVE",
"541 40 OFFCURVE",
"544 165 OFFCURVE",
"533 222 CURVE",
"505 222 LINE",
"504 272 LINE",
"591 272 LINE",
"592 222 LINE",
"564 222 LINE",
"556 165 OFFCURVE",
"559 40 OFFCURVE",
"571 -17 CURVE",
"626 -12 OFFCURVE",
"731 -1 OFFCURVE",
"842 -1 CURVE SMOOTH",
"950 -1 OFFCURVE",
"1024 -12 OFFCURVE",
"1079 -17 CURVE",
"1101 40 OFFCURVE",
"1104 165 OFFCURVE",
"1086 222 CURVE",
"1043 237 OFFCURVE",
"1006 274 OFFCURVE",
"1006 392 CURVE SMOOTH",
"1006 515 OFFCURVE",
"1033 785 OFFCURVE",
"808 785 CURVE SMOOTH",
"801 785 LINE",
"802 798 OFFCURVE",
"802 812 OFFCURVE",
"802 827 CURVE",
"767 845 OFFCURVE",
"675 854 OFFCURVE",
"634 855 CURVE",
"620 834 OFFCURVE",
"597 821 OFFCURVE",
"561 821 CURVE SMOOTH",
"510 821 OFFCURVE",
"454 851 OFFCURVE",
"383 851 CURVE SMOOTH",
"273 851 OFFCURVE",
"218 774 OFFCURVE",
"214 576 CURVE",
"193 609 OFFCURVE",
"184 689 OFFCURVE",
"203 767 CURVE",
"146 769 OFFCURVE",
"106 772 OFFCURVE",
"72 775 CURVE",
"45 712 OFFCURVE",
"45 582 OFFCURVE",
"68 533 CURVE",
"129 523 OFFCURVE",
"119 448 OFFCURVE",
"108 374 CURVE SMOOTH",
"98 303 OFFCURVE",
"84 235 OFFCURVE",
"20 222 CURVE",
"2 165 OFFCURVE",
"5 40 OFFCURVE",
"27 -17 CURVE"
);
},
{
closed = 1;
nodes = (
"512 466 LINE",
"583 466 LINE",
"584 419 LINE",
"512 419 LINE"
);
}
);
width = 1106;
},
{
background = {
paths = (
{
closed = 1;
nodes = (
"720 272 LINE",
"717 419 LINE",
"341 419 LINE",
"384 272 LINE"
);
},
{
closed = 1;
nodes = (
"396 548 OFFCURVE",
"419 561 OFFCURVE",
"455 561 CURVE SMOOTH",
"506 561 OFFCURVE",
"562 531 OFFCURVE",
"633 531 CURVE SMOOTH",
"747 531 OFFCURVE",
"802 613 OFFCURVE",
"802 827 CURVE",
"767 845 OFFCURVE",
"675 854 OFFCURVE",
"634 855 CURVE",
"620 834 OFFCURVE",
"597 821 OFFCURVE",
"561 821 CURVE SMOOTH",
"510 821 OFFCURVE",
"454 851 OFFCURVE",
"383 851 CURVE SMOOTH",
"269 851 OFFCURVE",
"214 769 OFFCURVE",
"214 555 CURVE",
"249 537 OFFCURVE",
"341 528 OFFCURVE",
"382 527 CURVE"
);
},
{
closed = 0;
nodes = (
"221 766 LINE",
"154 768 OFFCURVE",
"109 772 OFFCURVE",
"72 775 CURVE",
"45 712 OFFCURVE",
"45 582 OFFCURVE",
"68 533 CURVE",
"129 523 OFFCURVE",
"119 448 OFFCURVE",
"108 374 CURVE SMOOTH",
"98 303 OFFCURVE",
"84 235 OFFCURVE",
"20 222 CURVE",
"2 165 OFFCURVE",
"5 40 OFFCURVE",
"27 -17 CURVE",
"86 -11 OFFCURVE",
"174 -1 OFFCURVE",
"298 -1 CURVE SMOOTH",
"415 -1 OFFCURVE",
"471 -12 OFFCURVE",
"526 -17 CURVE",
"541 40 OFFCURVE",
"544 165 OFFCURVE",
"533 222 CURVE",
"505 222 LINE",
"503 367 LINE",
"512 395 LINE",
"512 466 LINE",
"583 466 LINE",
"585 394 LINE",
"590 367 LINE",
"592 222 LINE",
"564 222 LINE",
"556 165 OFFCURVE",
"559 40 OFFCURVE",
"571 -17 CURVE",
"626 -12 OFFCURVE",
"731 -1 OFFCURVE",
"842 -1 CURVE SMOOTH",
"950 -1 OFFCURVE",
"1024 -12 OFFCURVE",
"1079 -17 CURVE",
"1101 40 OFFCURVE",
"1104 165 OFFCURVE",
"1086 222 CURVE",
"1043 237 OFFCURVE",
"1006 274 OFFCURVE",
"1006 392 CURVE SMOOTH",
"1006 515 OFFCURVE",
"1033 785 OFFCURVE",
"808 785 CURVE SMOOTH",
"749 785 OFFCURVE",
"687 782 OFFCURVE",
"627 779 CURVE",
"486 779 OFFCURVE",
"416 694 OFFCURVE",
"410 584 CURVE",
"218 559 LINE",
"191 590 OFFCURVE",
"183 657 OFFCURVE",
"191 708 CURVE"
);
}
);
};
layerId = "BDCFD595-0135-4C14-B4A6-60502184522E";
paths = (
{
closed = 1;
nodes = (
"236 -166 OFFCURVE",
"324 -156 OFFCURVE",
"448 -156 CURVE SMOOTH",
"565 -156 OFFCURVE",
"621 -167 OFFCURVE",
"676 -172 CURVE",
"679 -161 OFFCURVE",
"681 -148 OFFCURVE",
"683 -133 CURVE",
"721 -172 LINE",
"776 -167 OFFCURVE",
"881 -156 OFFCURVE",
"992 -156 CURVE SMOOTH",
"1100 -156 OFFCURVE",
"1174 -167 OFFCURVE",
"1229 -172 CURVE",
"1251 -115 OFFCURVE",
"1254 10 OFFCURVE",
"1236 67 CURVE",
"1193 82 OFFCURVE",
"1156 119 OFFCURVE",
"1156 237 CURVE SMOOTH",
"1156 331 OFFCURVE",
"1165 502 OFFCURVE",
"1079 591 CURVE SMOOTH",
"950 724 LINE SMOOTH",
"924 751 OFFCURVE",
"893 775 OFFCURVE",
"845 782 CURVE",
"802 827 LINE",
"767 845 OFFCURVE",
"675 854 OFFCURVE",
"634 855 CURVE",
"620 834 OFFCURVE",
"597 821 OFFCURVE",
"561 821 CURVE SMOOTH",
"510 821 OFFCURVE",
"454 851 OFFCURVE",
"383 851 CURVE SMOOTH",
"309 851 OFFCURVE",
"260 816 OFFCURVE",
"235 734 CURVE",
"203 767 LINE",
"146 769 OFFCURVE",
"106 772 OFFCURVE",
"72 775 CURVE",
"45 712 OFFCURVE",
"45 582 OFFCURVE",
"68 533 CURVE",
"114 486 LINE",
"120 456 OFFCURVE",
"114 415 OFFCURVE",
"108 374 CURVE SMOOTH",
"98 303 OFFCURVE",
"84 235 OFFCURVE",
"20 222 CURVE",
"2 165 OFFCURVE",
"5 40 OFFCURVE",
"27 -17 CURVE",
"177 -172 LINE"
);
}
);
width = 1106;
}
);
leftKerningGroup = A;
leftMetricsKey = "=A";
rightKerningGroup = A;
rightMetricsKey = "=A";
unicode = 00C3;
},
{
color = 4;
glyphname = AE;
lastChange = "2017-11-24 10:13:38 +0000";
layers = (
{
layerId = "863809E3-B3D3-4728-B9C6-73F0AB5A9F00";
paths = (
{
closed = 1;
nodes = (
"630 -12 OFFCURVE",
"848 -2 OFFCURVE",
"988 -2 CURVE SMOOTH",
"1145 -2 OFFCURVE",
"1317 -15 OFFCURVE",
"1457 -17 CURVE",
"1472 40 OFFCURVE",
"1475 315 OFFCURVE",
"1464 374 CURVE",
"1362 381 OFFCURVE",
"1240 381 OFFCURVE",
"1128 374 CURVE",
"1120 343 OFFCURVE",
"1120 311 OFFCURVE",
"1128 280 CURVE",
"1011 280 LINE",
"1011 323 LINE",
"1105 323 LINE",
"1105 462 LINE",
"1012 462 LINE",
"1012 504 LINE",
"1128 504 LINE",
"1120 473 OFFCURVE",
"1120 442 OFFCURVE",
"1128 411 CURVE",
"1232 399 OFFCURVE",
"1364 399 OFFCURVE",
"1458 411 CURVE",
"1478 482 OFFCURVE",
"1470 713 OFFCURVE",
"1453 776 CURVE",
"1284 775 OFFCURVE",
"959 763 OFFCURVE",
"626 763 CURVE SMOOTH",
"411 763 OFFCURVE",
"232 763 OFFCURVE",
"72 775 CURVE",
"45 712 OFFCURVE",
"45 582 OFFCURVE",
"68 533 CURVE",
"129 523 OFFCURVE",
"119 448 OFFCURVE",
"108 374 CURVE SMOOTH",
"98 303 OFFCURVE",
"84 235 OFFCURVE",
"20 222 CURVE",
"2 165 OFFCURVE",
"5 40 OFFCURVE",
"27 -17 CURVE",
"86 -11 OFFCURVE",
"174 -1 OFFCURVE",
"298 -1 CURVE SMOOTH",
"415 -1 OFFCURVE",
"471 -12 OFFCURVE",
"526 -17 CURVE",
"541 40 OFFCURVE",
"544 165 OFFCURVE",
"533 222 CURVE",
"505 222 LINE",
"504 272 LINE",
"591 272 LINE",
"592 222 LINE",
"564 222 LINE",
"556 165 OFFCURVE",
"559 39 OFFCURVE",
"571 -18 CURVE"
);
},
{
closed = 1;
nodes = (
"512 466 LINE",
"583 466 LINE",
"584 419 LINE",
"512 419 LINE"
);
}
);
width = 1479;
},
{
layerId = "BDCFD595-0135-4C14-B4A6-60502184522E";
paths = (
{
closed = 1;
nodes = (
"780 -167 OFFCURVE",
"998 -157 OFFCURVE",
"1138 -157 CURVE SMOOTH",
"1295 -157 OFFCURVE",
"1467 -170 OFFCURVE",
"1607 -172 CURVE",
"1622 -115 OFFCURVE",
"1625 160 OFFCURVE",
"1614 219 CURVE",
"1581 253 LINE",
"1608 256 LINE",
"1628 327 OFFCURVE",
"1620 558 OFFCURVE",
"1603 621 CURVE",
"1453 776 LINE",
"1284 775 OFFCURVE",
"959 763 OFFCURVE",
"626 763 CURVE SMOOTH",
"411 763 OFFCURVE",
"232 763 OFFCURVE",
"72 775 CURVE",
"45 712 OFFCURVE",
"45 582 OFFCURVE",
"68 533 CURVE",
"114 486 LINE",
"120 456 OFFCURVE",
"114 415 OFFCURVE",
"108 374 CURVE SMOOTH",
"98 303 OFFCURVE",
"84 235 OFFCURVE",
"20 222 CURVE",
"2 165 OFFCURVE",
"5 40 OFFCURVE",
"27 -17 CURVE",
"177 -172 LINE",
"236 -166 OFFCURVE",
"324 -156 OFFCURVE",
"448 -156 CURVE SMOOTH",
"565 -156 OFFCURVE",
"621 -167 OFFCURVE",
"676 -172 CURVE",
"679 -161 OFFCURVE",
"681 -149 OFFCURVE",
"683 -134 CURVE",
"721 -173 LINE"
);
}
);
width = 1479;
}
);
leftKerningGroup = A;
leftMetricsKey = "=A";
rightKerningGroup = E;
rightMetricsKey = "=E";
unicode = 00C6;
},
{
color = 5;
glyphname = AEacute;
lastChange = "2017-11-24 10:13:38 +0000";
layers = (
{
layerId = "863809E3-B3D3-4728-B9C6-73F0AB5A9F00";
paths = (
{
closed = 1;
nodes = (
"630 -12 OFFCURVE",
"848 -2 OFFCURVE",
"988 -2 CURVE SMOOTH",
"1145 -2 OFFCURVE",
"1317 -15 OFFCURVE",
"1457 -17 CURVE",
"1472 40 OFFCURVE",
"1475 315 OFFCURVE",
"1464 374 CURVE",
"1362 381 OFFCURVE",
"1240 381 OFFCURVE",
"1128 374 CURVE",
"1120 343 OFFCURVE",
"1120 311 OFFCURVE",
"1128 280 CURVE",
"1011 280 LINE",
"1011 323 LINE",
"1105 323 LINE",
"1105 462 LINE",
"1012 462 LINE",
"1012 504 LINE",
"1128 504 LINE",
"1120 473 OFFCURVE",
"1120 442 OFFCURVE",
"1128 411 CURVE",
"1232 399 OFFCURVE",
"1364 399 OFFCURVE",
"1458 411 CURVE",
"1478 482 OFFCURVE",
"1470 713 OFFCURVE",
"1453 776 CURVE",
"1343 775 OFFCURVE",
"1168 770 OFFCURVE",
"967 766 CURVE",
"971 780 OFFCURVE",
"974 793 OFFCURVE",
"976 803 CURVE",
"926 866 OFFCURVE",
"716 904 OFFCURVE",
"594 854 CURVE",
"526 759 OFFCURVE",
"518 642 OFFCURVE",
"559 569 CURVE",
"487 610 OFFCURVE",
"494 705 OFFCURVE",
"510 763 CURVE",
"346 763 OFFCURVE",
"202 765 OFFCURVE",
"72 775 CURVE",
"45 712 OFFCURVE",
"45 582 OFFCURVE",
"68 533 CURVE",
"129 523 OFFCURVE",
"119 448 OFFCURVE",
"108 374 CURVE SMOOTH",
"98 303 OFFCURVE",
"84 235 OFFCURVE",
"20 222 CURVE",
"2 165 OFFCURVE",
"5 40 OFFCURVE",
"27 -17 CURVE",
"86 -11 OFFCURVE",
"174 -1 OFFCURVE",
"298 -1 CURVE SMOOTH",
"415 -1 OFFCURVE",
"471 -12 OFFCURVE",
"526 -17 CURVE",
"541 40 OFFCURVE",
"544 165 OFFCURVE",
"533 222 CURVE",
"505 222 LINE",
"504 272 LINE",
"591 272 LINE",
"592 222 LINE",
"564 222 LINE",
"556 165 OFFCURVE",
"559 39 OFFCURVE",
"571 -18 CURVE"
);
},
{
closed = 1;
nodes = (
"512 466 LINE",
"583 466 LINE",
"584 419 LINE",
"512 419 LINE"
);
}
);
width = 1479;
},
{
layerId = "BDCFD595-0135-4C14-B4A6-60502184522E";
paths = (
{
closed = 1;
nodes = (
"780 -167 OFFCURVE",
"998 -157 OFFCURVE",
"1138 -157 CURVE SMOOTH",
"1295 -157 OFFCURVE",
"1467 -170 OFFCURVE",
"1607 -172 CURVE",
"1622 -115 OFFCURVE",
"1625 160 OFFCURVE",
"1614 219 CURVE",
"1581 253 LINE",
"1608 256 LINE",
"1628 327 OFFCURVE",
"1620 558 OFFCURVE",
"1603 621 CURVE",
"1453 776 LINE",
"1351 775 OFFCURVE",
"1193 771 OFFCURVE",
"1011 767 CURVE",
"976 803 LINE",
"926 866 OFFCURVE",
"716 904 OFFCURVE",
"594 854 CURVE",
"566 816 OFFCURVE",
"549 773 OFFCURVE",
"540 732 CURVE",
"510 763 LINE",
"346 763 OFFCURVE",
"202 765 OFFCURVE",
"72 775 CURVE",
"45 712 OFFCURVE",
"45 582 OFFCURVE",
"68 533 CURVE",
"114 486 LINE",
"120 456 OFFCURVE",
"114 415 OFFCURVE",
"108 374 CURVE SMOOTH",
"98 303 OFFCURVE",
"84 235 OFFCURVE",
"20 222 CURVE",
"2 165 OFFCURVE",
"5 40 OFFCURVE",
"27 -17 CURVE",
"177 -172 LINE",
"236 -166 OFFCURVE",
"324 -156 OFFCURVE",
"448 -156 CURVE SMOOTH",
"565 -156 OFFCURVE",
"621 -167 OFFCURVE",
"676 -172 CURVE",
"679 -161 OFFCURVE",
"681 -149 OFFCURVE",
"683 -134 CURVE",
"721 -173 LINE"
);
}
);
width = 1479;
}
);
leftKerningGroup = A;
rightKerningGroup = E;
unicode = 01FC;
},
{
color = 4;
glyphname = B;
lastChange = "2017-11-24 10:13:38 +0000";
layers = (
{
layerId = "863809E3-B3D3-4728-B9C6-73F0AB5A9F00";
paths = (
{
closed = 1;
nodes = (
"959 -23 OFFCURVE",
"1041 72 OFFCURVE",
"1041 224 CURVE SMOOTH",
"1041 291 OFFCURVE",
"1017 349 OFFCURVE",
"939 396 CURVE",
"984 441 OFFCURVE",
"1013 495 OFFCURVE",
"1013 555 CURVE SMOOTH",
"1013 754 OFFCURVE",
"851 781 OFFCURVE",
"623 781 CURVE SMOOTH",
"408 781 OFFCURVE",
"253 766 OFFCURVE",
"29 778 CURVE",
"1 713 OFFCURVE",
"2 592 OFFCURVE",
"25 533 CURVE",
"49 532 OFFCURVE",
"91 509 OFFCURVE",
"91 381 CURVE SMOOTH",
"91 263 OFFCURVE",
"57 233 OFFCURVE",
"25 222 CURVE",
"7 165 OFFCURVE",
"9 41 OFFCURVE",
"31 -16 CURVE",
"282 0 OFFCURVE",
"408 -23 OFFCURVE",
"642 -23 CURVE SMOOTH"
);
},
{
closed = 1;
nodes = (
"503 504 LINE",
"577 504 LINE",
"577 450 LINE",
"503 450 LINE"
);
},
{
closed = 1;
nodes = (
"503 319 LINE",
"585 319 LINE",
"585 262 LINE",
"503 262 LINE"
);
}
);
width = 1051;
},
{
layerId = "BDCFD595-0135-4C14-B4A6-60502184522E";
paths = (
{
closed = 1;
nodes = (
"1109 -178 OFFCURVE",
"1191 -83 OFFCURVE",
"1191 69 CURVE SMOOTH",
"1191 120 OFFCURVE",
"1177 166 OFFCURVE",
"1136 206 CURVE SMOOTH",
"1095 248 LINE",
"1137 291 OFFCURVE",
"1163 343 OFFCURVE",
"1163 400 CURVE SMOOTH",
"1163 474 OFFCURVE",
"1138 520 OFFCURVE",
"1101 558 CURVE SMOOTH",
"964 701 LINE SMOOTH",
"903 764 OFFCURVE",
"784 781 OFFCURVE",
"623 781 CURVE SMOOTH",
"408 781 OFFCURVE",
"253 766 OFFCURVE",
"29 778 CURVE",
"1 713 OFFCURVE",
"2 592 OFFCURVE",
"25 533 CURVE",
"79 477 LINE",
"86 455 OFFCURVE",
"91 424 OFFCURVE",
"91 381 CURVE SMOOTH",
"91 263 OFFCURVE",
"57 233 OFFCURVE",
"25 222 CURVE",
"7 165 OFFCURVE",
"9 41 OFFCURVE",
"31 -16 CURVE",
"181 -171 LINE",
"432 -155 OFFCURVE",
"558 -178 OFFCURVE",
"792 -178 CURVE SMOOTH"
);
}
);
width = 1051;
}
);
leftKerningGroup = N;
rightKerningGroup = B;
unicode = 0042;
},
{
color = 4;
glyphname = C;
lastChange = "2017-11-24 10:13:38 +0000";
layers = (
{
background = {
paths = (
{
closed = 1;
nodes = (
"473 321 LINE",
"534 321 LINE",
"534 450 LINE",
"473 450 LINE"
);
},
{
closed = 1;
nodes = (
"175 -35 OFFCURVE",
"10 105 OFFCURVE",
"10 378 CURVE SMOOTH",
"10 677 OFFCURVE",
"177 812 OFFCURVE",
"500 812 CURVE SMOOTH",
"844 812 OFFCURVE",
"998 673 OFFCURVE",
"998 404 CURVE SMOOTH",
"998 101 OFFCURVE",
"827 -35 OFFCURVE",
"495 -35 CURVE SMOOTH"
);
}
);
};
layerId = "863809E3-B3D3-4728-B9C6-73F0AB5A9F00";
paths = (
{
closed = 1;
nodes = (
"850 -35 OFFCURVE",
"984 94 OFFCURVE",
"994 368 CURVE",
"824 376 OFFCURVE",
"681 376 OFFCURVE",
"526 368 CURVE",
"526 321 LINE",
"473 321 LINE",
"473 450 LINE",
"526 450 LINE",
"527 409 LINE",
"622 393 OFFCURVE",
"883 393 OFFCURVE",
"987 409 CURVE",
"1006 515 OFFCURVE",
"1002 699 OFFCURVE",
"984 781 CURVE",
"904 781 OFFCURVE",
"754 774 OFFCURVE",
"658 773 CURVE",
"663 720 OFFCURVE",
"673 667 OFFCURVE",
"655 616 CURVE",
"652 753 OFFCURVE",
"560 795 OFFCURVE",
"402 795 CURVE SMOOTH",
"172 795 OFFCURVE",
"10 645 OFFCURVE",
"10 388 CURVE SMOOTH",
"10 135 OFFCURVE",
"156 -35 OFFCURVE",
"522 -35 CURVE SMOOTH"
);
}
);
width = 1009;
},
{
layerId = "BDCFD595-0135-4C14-B4A6-60502184522E";
paths = (
{
closed = 1;
nodes = (
"1000 -190 OFFCURVE",
"1134 -61 OFFCURVE",
"1144 213 CURVE",
"1108 250 LINE",
"1119 251 OFFCURVE",
"1128 253 OFFCURVE",
"1137 254 CURVE",
"1156 360 OFFCURVE",
"1152 544 OFFCURVE",
"1134 626 CURVE",
"984 781 LINE",
"904 781 OFFCURVE",
"754 774 OFFCURVE",
"658 773 CURVE",
"661 742 OFFCURVE",
"666 711 OFFCURVE",
"665 681 CURVE",
"619 728 LINE",
"579 777 OFFCURVE",
"504 795 OFFCURVE",
"402 795 CURVE SMOOTH",
"172 795 OFFCURVE",
"10 645 OFFCURVE",
"10 388 CURVE SMOOTH",
"10 262 OFFCURVE",
"47 160 OFFCURVE",
"127 83 CURVE SMOOTH",
"266 -52 LINE SMOOTH",
"344 -128 OFFCURVE",
"466 -190 OFFCURVE",
"672 -190 CURVE SMOOTH"
);
}
);
width = 1009;
}
);
leftKerningGroup = O;
rightKerningGroup = C;
unicode = 0043;
},
{
color = 5;
glyphname = Cacute;
lastChange = "2017-11-24 10:13:38 +0000";
layers = (
{
layerId = "863809E3-B3D3-4728-B9C6-73F0AB5A9F00";
paths = (
{
closed = 1;
nodes = (
"850 -35 OFFCURVE",
"984 94 OFFCURVE",
"994 368 CURVE",
"824 376 OFFCURVE",
"681 376 OFFCURVE",
"526 368 CURVE",
"526 321 LINE",
"473 321 LINE",
"473 450 LINE",
"526 450 LINE",
"527 409 LINE",
"622 393 OFFCURVE",
"883 393 OFFCURVE",
"987 409 CURVE",
"1006 515 OFFCURVE",
"1002 699 OFFCURVE",
"984 781 CURVE",
"925 781 OFFCURVE",
"835 777 OFFCURVE",
"752 775 CURVE",
"755 786 OFFCURVE",
"758 795 OFFCURVE",
"759 803 CURVE",
"709 866 OFFCURVE",
"499 904 OFFCURVE",
"377 854 CURVE",
"295 739 OFFCURVE",
"300 590 OFFCURVE",
"376 528 CURVE",
"246 573 OFFCURVE",
"277 729 OFFCURVE",
"298 782 CURVE",
"121 740 OFFCURVE",
"10 601 OFFCURVE",
"10 388 CURVE SMOOTH",
"10 135 OFFCURVE",
"156 -35 OFFCURVE",
"522 -35 CURVE SMOOTH"
);
}
);
width = 1009;
},
{
layerId = "BDCFD595-0135-4C14-B4A6-60502184522E";
paths = (
{
closed = 1;
nodes = (
"1000 -190 OFFCURVE",
"1134 -61 OFFCURVE",
"1144 213 CURVE",
"1108 250 LINE",
"1119 251 OFFCURVE",
"1128 253 OFFCURVE",
"1137 254 CURVE",
"1156 360 OFFCURVE",
"1152 544 OFFCURVE",
"1134 626 CURVE",
"984 781 LINE",
"933 781 OFFCURVE",
"858 778 OFFCURVE",
"785 776 CURVE",
"759 803 LINE",
"709 866 OFFCURVE",
"499 904 OFFCURVE",
"377 854 CURVE",
"354 821 OFFCURVE",
"338 786 OFFCURVE",
"328 751 CURVE",
"298 782 LINE",
"121 740 OFFCURVE",
"10 601 OFFCURVE",
"10 388 CURVE SMOOTH",
"10 268 OFFCURVE",
"43 166 OFFCURVE",
"117 93 CURVE SMOOTH",
"242 -37 LINE SMOOTH",
"343 -141 OFFCURVE",
"476 -190 OFFCURVE",
"672 -190 CURVE SMOOTH"
);
}
);
width = 1009;
}
);
leftKerningGroup = O;
leftMetricsKey = "=C";
rightKerningGroup = C;
rightMetricsKey = "=C";
unicode = 0106;
},
{
color = 5;
glyphname = Ccaron;
lastChange = "2017-11-24 10:13:38 +0000";
layers = (
{
layerId = "863809E3-B3D3-4728-B9C6-73F0AB5A9F00";
paths = (
{
closed = 1;
nodes = (
"850 -35 OFFCURVE",
"984 94 OFFCURVE",
"994 368 CURVE",
"824 376 OFFCURVE",
"681 376 OFFCURVE",
"526 368 CURVE",
"526 321 LINE",
"473 321 LINE",
"473 450 LINE",
"526 450 LINE",
"527 409 LINE",
"622 393 OFFCURVE",
"883 393 OFFCURVE",
"987 409 CURVE",
"1006 515 OFFCURVE",
"1002 699 OFFCURVE",
"984 781 CURVE",
"942 781 OFFCURVE",
"885 779 OFFCURVE",
"827 777 CURVE",
"830 801 OFFCURVE",
"831 824 OFFCURVE",
"827 847 CURVE",
"792 865 OFFCURVE",
"694 874 OFFCURVE",
"649 875 CURVE",
"596 861 OFFCURVE",
"535 811 OFFCURVE",
"480 748 CURVE",
"455 765 LINE",
"473 785 OFFCURVE",
"491 804 OFFCURVE",
"509 821 CURVE",
"475 846 OFFCURVE",
"436 867 OFFCURVE",
"407 875 CURVE",
"366 874 OFFCURVE",
"274 865 OFFCURVE",
"239 847 CURVE",
"222 737 OFFCURVE",
"288 605 OFFCURVE",
"357 543 CURVE",
"290 564 OFFCURVE",
"214 651 OFFCURVE",
"205 742 CURVE",
"78 677 OFFCURVE",
"10 556 OFFCURVE",
"10 388 CURVE SMOOTH",
"10 135 OFFCURVE",
"156 -35 OFFCURVE",
"522 -35 CURVE SMOOTH"
);
}
);
width = 1009;
},
{
layerId = "BDCFD595-0135-4C14-B4A6-60502184522E";
paths = (
{
closed = 1;
nodes = (
"1000 -190 OFFCURVE",
"1134 -61 OFFCURVE",
"1144 213 CURVE",
"1108 250 LINE",
"1119 251 OFFCURVE",
"1128 253 OFFCURVE",
"1137 254 CURVE",
"1156 360 OFFCURVE",
"1152 544 OFFCURVE",
"1134 626 CURVE",
"984 781 LINE",
"958 781 OFFCURVE",
"927 780 OFFCURVE",
"893 779 CURVE",
"827 847 LINE",
"792 865 OFFCURVE",
"694 874 OFFCURVE",
"649 875 CURVE",
"612 865 OFFCURVE",
"570 837 OFFCURVE",
"530 800 CURVE",
"509 821 LINE",
"475 846 OFFCURVE",
"436 867 OFFCURVE",
"407 875 CURVE",
"366 874 OFFCURVE",
"274 865 OFFCURVE",
"239 847 CURVE",
"231 793 OFFCURVE",
"242 735 OFFCURVE",
"264 681 CURVE",
"205 742 LINE",
"78 677 OFFCURVE",
"10 556 OFFCURVE",
"10 388 CURVE SMOOTH",
"10 268 OFFCURVE",
"43 166 OFFCURVE",
"117 93 CURVE SMOOTH",
"242 -37 LINE SMOOTH",
"343 -141 OFFCURVE",
"476 -190 OFFCURVE",
"672 -190 CURVE SMOOTH"
);
}
);
width = 1009;
}
);
leftKerningGroup = O;
leftMetricsKey = "=C";
rightKerningGroup = C;
rightMetricsKey = "=C";
unicode = 010C;
},
{
color = 5;
glyphname = Ccedilla;
lastChange = "2017-11-24 10:13:38 +0000";
layers = (
{
layerId = "863809E3-B3D3-4728-B9C6-73F0AB5A9F00";
paths = (
{
closed = 0;
nodes = (
"286 152 LINE"
);
},
{
closed = 1;
nodes = (
"617 -172 OFFCURVE",
"707 -135 OFFCURVE",
"719 -14 CURVE",
"905 32 OFFCURVE",
"986 157 OFFCURVE",
"994 368 CURVE",
"824 376 OFFCURVE",
"681 376 OFFCURVE",
"526 368 CURVE",
"526 321 LINE",
"473 321 LINE",
"473 450 LINE",
"526 450 LINE",
"527 409 LINE",
"622 393 OFFCURVE",
"883 393 OFFCURVE",
"987 409 CURVE",
"1006 515 OFFCURVE",
"1002 699 OFFCURVE",
"984 781 CURVE",
"904 781 OFFCURVE",
"754 774 OFFCURVE",
"658 773 CURVE",
"663 720 OFFCURVE",
"673 667 OFFCURVE",
"655 616 CURVE",
"652 753 OFFCURVE",
"560 795 OFFCURVE",
"402 795 CURVE SMOOTH",
"172 795 OFFCURVE",
"10 645 OFFCURVE",
"10 388 CURVE SMOOTH",
"10 204 OFFCURVE",
"88 63 OFFCURVE",
"272 1 CURVE",
"293 37 OFFCURVE",
"300 84 OFFCURVE",
"293 139 CURVE",
"359 10 OFFCURVE",
"277 -96 OFFCURVE",
"240 -150 CURVE",
"291 -165 OFFCURVE",
"363 -172 OFFCURVE",
"455 -172 CURVE SMOOTH"
);
}
);
width = 1009;
},
{
layerId = "BDCFD595-0135-4C14-B4A6-60502184522E";
paths = (
{
closed = 1;
nodes = (
"767 -327 OFFCURVE",
"857 -290 OFFCURVE",
"869 -169 CURVE",
"1055 -123 OFFCURVE",
"1136 2 OFFCURVE",
"1144 213 CURVE",
"1108 250 LINE",
"1119 251 OFFCURVE",
"1128 253 OFFCURVE",
"1137 254 CURVE",
"1156 360 OFFCURVE",
"1152 544 OFFCURVE",
"1134 626 CURVE",
"984 781 LINE",
"904 781 OFFCURVE",
"754 774 OFFCURVE",
"658 773 CURVE",
"661 742 OFFCURVE",
"666 711 OFFCURVE",
"666 679 CURVE",
"617 731 LINE SMOOTH",
"573 777 OFFCURVE",
"504 795 OFFCURVE",
"402 795 CURVE SMOOTH",
"172 795 OFFCURVE",
"10 645 OFFCURVE",
"10 388 CURVE SMOOTH",
"10 259 OFFCURVE",
"49 162 OFFCURVE",
"128 81 CURVE SMOOTH",
"285 -79 LINE",
"270 -108 OFFCURVE",
"252 -132 OFFCURVE",
"240 -150 CURVE",
"390 -305 LINE",
"441 -320 OFFCURVE",
"513 -327 OFFCURVE",
"605 -327 CURVE SMOOTH"
);
}
);
width = 1009;
}
);
leftKerningGroup = O;
leftMetricsKey = "=C";
rightKerningGroup = C;
rightMetricsKey = "=C";
unicode = 00C7;
},
{
color = 5;
glyphname = Ccircumflex;
lastChange = "2017-11-24 10:13:38 +0000";
layers = (
{
layerId = "863809E3-B3D3-4728-B9C6-73F0AB5A9F00";
paths = (
{
closed = 1;
nodes = (
"850 -35 OFFCURVE",
"984 94 OFFCURVE",
"994 368 CURVE",
"824 376 OFFCURVE",
"681 376 OFFCURVE",
"526 368 CURVE",
"526 321 LINE",
"473 321 LINE",
"473 450 LINE",
"526 450 LINE",
"527 409 LINE",
"622 393 OFFCURVE",
"883 393 OFFCURVE",
"987 409 CURVE",
"1006 515 OFFCURVE",
"1002 699 OFFCURVE",
"984 781 CURVE",
"921 781 OFFCURVE",
"816 777 OFFCURVE",
"727 774 CURVE",
"701 814 OFFCURVE",
"670 847 OFFCURVE",
"641 867 CURVE",
"588 877 OFFCURVE",
"420 879 OFFCURVE",
"339 867 CURVE",
"263 815 OFFCURVE",
"207 697 OFFCURVE",
"195 559 CURVE",
"170 594 OFFCURVE",
"178 684 OFFCURVE",
"191 743 CURVE",
"79 678 OFFCURVE",
"10 556 OFFCURVE",
"10 388 CURVE SMOOTH",
"10 135 OFFCURVE",
"156 -35 OFFCURVE",
"522 -35 CURVE SMOOTH"
);
}
);
width = 1009;
},
{
layerId = "BDCFD595-0135-4C14-B4A6-60502184522E";
paths = (
{
closed = 1;
nodes = (
"1000 -190 OFFCURVE",
"1134 -61 OFFCURVE",
"1144 213 CURVE",
"1108 250 LINE",
"1119 251 OFFCURVE",
"1128 253 OFFCURVE",
"1137 254 CURVE",
"1156 360 OFFCURVE",
"1152 544 OFFCURVE",
"1134 626 CURVE",
"984 781 LINE",
"921 781 OFFCURVE",
"816 777 OFFCURVE",
"727 774 CURVE",
"701 814 OFFCURVE",
"670 847 OFFCURVE",
"641 867 CURVE",
"588 877 OFFCURVE",
"420 879 OFFCURVE",
"339 867 CURVE",
"292 835 OFFCURVE",
"253 778 OFFCURVE",
"227 706 CURVE",
"191 743 LINE",
"79 678 OFFCURVE",
"10 556 OFFCURVE",
"10 388 CURVE SMOOTH",
"10 262 OFFCURVE",
"47 160 OFFCURVE",
"127 83 CURVE SMOOTH",
"266 -52 LINE SMOOTH",
"344 -128 OFFCURVE",
"466 -190 OFFCURVE",
"672 -190 CURVE SMOOTH"
);
}
);
width = 1009;
}
);
leftKerningGroup = O;
leftMetricsKey = "=C";
rightKerningGroup = C;
rightMetricsKey = "=C";
unicode = 0108;
},
{
color = 5;
glyphname = Cdotaccent;
lastChange = "2017-11-24 10:13:38 +0000";
layers = (
{
layerId = "863809E3-B3D3-4728-B9C6-73F0AB5A9F00";
paths = (
{
closed = 1;
nodes = (
"850 -35 OFFCURVE",
"984 94 OFFCURVE",
"994 368 CURVE",
"824 376 OFFCURVE",
"681 376 OFFCURVE",
"526 368 CURVE",
"526 321 LINE",
"473 321 LINE",
"473 450 LINE",
"526 450 LINE",
"527 409 LINE",
"622 393 OFFCURVE",
"883 393 OFFCURVE",
"987 409 CURVE",
"1006 515 OFFCURVE",
"1002 699 OFFCURVE",
"984 781 CURVE",
"914 781 OFFCURVE",
"816 776 OFFCURVE",
"729 774 CURVE",
"693 841 OFFCURVE",
"625 876 OFFCURVE",
"518 876 CURVE SMOOTH",
"369 876 OFFCURVE",
"309 788 OFFCURVE",
"309 707 CURVE SMOOTH",
"309 625 OFFCURVE",
"365 561 OFFCURVE",
"438 538 CURVE",
"330 542 OFFCURVE",
"235 628 OFFCURVE",
"271 775 CURVE",
"116 725 OFFCURVE",
"10 589 OFFCURVE",
"10 388 CURVE SMOOTH",
"10 135 OFFCURVE",
"156 -35 OFFCURVE",
"522 -35 CURVE SMOOTH"
);
}
);
width = 1009;
},
{
layerId = "BDCFD595-0135-4C14-B4A6-60502184522E";
paths = (
{
closed = 1;
nodes = (
"1000 -190 OFFCURVE",
"1134 -61 OFFCURVE",
"1144 213 CURVE",
"1108 250 LINE",
"1119 251 OFFCURVE",
"1128 253 OFFCURVE",
"1137 254 CURVE",
"1156 360 OFFCURVE",
"1152 544 OFFCURVE",
"1134 626 CURVE",
"984 781 LINE",
"914 781 OFFCURVE",
"816 776 OFFCURVE",
"728 773 CURVE",
"693 841 OFFCURVE",
"625 876 OFFCURVE",
"518 876 CURVE SMOOTH",
"385 876 OFFCURVE",
"323 806 OFFCURVE",
"311 734 CURVE",
"271 775 LINE",
"116 725 OFFCURVE",
"10 589 OFFCURVE",
"10 388 CURVE SMOOTH",
"10 268 OFFCURVE",
"45 168 OFFCURVE",
"117 93 CURVE SMOOTH",
"242 -37 LINE SMOOTH",
"343 -142 OFFCURVE",
"476 -190 OFFCURVE",
"672 -190 CURVE SMOOTH"
);
}
);
width = 1009;
}
);
leftKerningGroup = O;
leftMetricsKey = "=C";
rightKerningGroup = C;
rightMetricsKey = "=C";
unicode = 010A;
},
{
color = 4;
glyphname = D;
lastChange = "2017-11-24 10:13:38 +0000";
layers = (
{
layerId = "863809E3-B3D3-4728-B9C6-73F0AB5A9F00";
paths = (
{
closed = 1;
nodes = (
"927 -24 OFFCURVE",
"1003 196 OFFCURVE",
"1003 413 CURVE SMOOTH",
"1003 671 OFFCURVE",
"848 783 OFFCURVE",
"566 783 CURVE SMOOTH",
"318 783 OFFCURVE",
"198 764 OFFCURVE",
"28 779 CURVE",
"1 712 OFFCURVE",
"4 592 OFFCURVE",
"24 535 CURVE",
"59 528 OFFCURVE",
"91 505 OFFCURVE",
"91 391 CURVE SMOOTH",
"91 271 OFFCURVE",
"66 233 OFFCURVE",
"24 222 CURVE",
"6 165 OFFCURVE",
"9 41 OFFCURVE",
"31 -16 CURVE",
"228 -7 OFFCURVE",
"312 -24 OFFCURVE",
"525 -24 CURVE SMOOTH"
);
},
{
closed = 1;
nodes = (
"480 450 LINE",
"541 450 LINE",
"541 321 LINE",
"480 321 LINE"
);
}
);
width = 1013;
},
{
layerId = "BDCFD595-0135-4C14-B4A6-60502184522E";
paths = (
{
closed = 1;
nodes = (
"1077 -179 OFFCURVE",
"1153 41 OFFCURVE",
"1153 258 CURVE SMOOTH",
"1153 382 OFFCURVE",
"1118 461 OFFCURVE",
"1049 533 CURVE SMOOTH",
"925 662 LINE SMOOTH",
"857 733 OFFCURVE",
"735 783 OFFCURVE",
"566 783 CURVE SMOOTH",
"318 783 OFFCURVE",
"198 764 OFFCURVE",
"28 779 CURVE",
"1 712 OFFCURVE",
"4 592 OFFCURVE",
"24 535 CURVE",
"82 475 LINE",
"88 455 OFFCURVE",
"91 427 OFFCURVE",
"91 391 CURVE SMOOTH",
"91 271 OFFCURVE",
"66 233 OFFCURVE",
"24 222 CURVE",
"6 165 OFFCURVE",
"9 41 OFFCURVE",
"31 -16 CURVE",
"181 -171 LINE",
"378 -162 OFFCURVE",
"462 -179 OFFCURVE",
"675 -179 CURVE SMOOTH"
);
}
);
width = 1013;
}
);
leftKerningGroup = N;
rightKerningGroup = O;
unicode = 0044;
},
{
color = 5;
glyphname = Eth;
lastChange = "2017-11-24 10:13:38 +0000";
layers = (
{
layerId = "863809E3-B3D3-4728-B9C6-73F0AB5A9F00";
paths = (
{
closed = 1;
nodes = (
"927 -24 OFFCURVE",
"1003 196 OFFCURVE",
"1003 413 CURVE SMOOTH",
"1003 671 OFFCURVE",
"848 783 OFFCURVE",
"566 783 CURVE SMOOTH",
"318 783 OFFCURVE",
"198 764 OFFCURVE",
"28 779 CURVE",
"1 712 OFFCURVE",
"4 592 OFFCURVE",
"24 535 CURVE",
"56 529 OFFCURVE",
"133 519 OFFCURVE",
"184 494 CURVE",
"23 494 LINE",
"3 450 OFFCURVE",
"4 321 OFFCURVE",
"23 277 CURVE",
"83 277 LINE",
"71 243 OFFCURVE",
"51 228 OFFCURVE",
"24 222 CURVE",
"6 165 OFFCURVE",
"9 41 OFFCURVE",
"31 -16 CURVE",
"228 -7 OFFCURVE",
"312 -24 OFFCURVE",
"525 -24 CURVE SMOOTH"
);
},
{
closed = 1;
nodes = (
"480 329 LINE",
"521 329 LINE",
"521 441 LINE",
"480 441 LINE",
"480 483 LINE",
"541 483 LINE",
"541 288 LINE",
"480 288 LINE"
);
}
);
width = 1013;
},
{
layerId = "BDCFD595-0135-4C14-B4A6-60502184522E";
paths = (
{
closed = 1;
nodes = (
"1077 -179 OFFCURVE",
"1153 41 OFFCURVE",
"1153 258 CURVE SMOOTH",
"1153 382 OFFCURVE",
"1118 461 OFFCURVE",
"1049 533 CURVE SMOOTH",
"925 662 LINE SMOOTH",
"857 733 OFFCURVE",
"735 783 OFFCURVE",
"566 783 CURVE SMOOTH",
"318 783 OFFCURVE",
"198 764 OFFCURVE",
"28 779 CURVE",
"1 712 OFFCURVE",
"4 592 OFFCURVE",
"24 535 CURVE",
"64 494 LINE",
"23 494 LINE",
"3 450 OFFCURVE",
"4 321 OFFCURVE",
"23 277 CURVE",
"59 239 LINE",
"50 230 OFFCURVE",
"38 225 OFFCURVE",
"24 222 CURVE",
"6 165 OFFCURVE",
"9 41 OFFCURVE",
"31 -16 CURVE",
"181 -171 LINE",
"378 -162 OFFCURVE",
"462 -179 OFFCURVE",
"675 -179 CURVE SMOOTH"
);
}
);
width = 1013;
}
);
leftKerningGroup = Eth;
leftMetricsKey = "=D";
rightKerningGroup = O;
rightMetricsKey = "=D";
unicode = 00D0;
},
{
color = 5;
glyphname = Dcaron;
lastChange = "2017-11-24 10:13:38 +0000";
layers = (
{
layerId = "863809E3-B3D3-4728-B9C6-73F0AB5A9F00";
paths = (
{
closed = 1;
nodes = (
"927 -24 OFFCURVE",
"1003 196 OFFCURVE",
"1003 413 CURVE SMOOTH",
"1003 594 OFFCURVE",
"927 703 OFFCURVE",
"784 752 CURVE",
"791 784 OFFCURVE",
"793 817 OFFCURVE",
"788 847 CURVE",
"753 865 OFFCURVE",
"655 874 OFFCURVE",
"610 875 CURVE",
"557 861 OFFCURVE",
"496 811 OFFCURVE",
"441 748 CURVE",
"416 765 LINE",
"434 785 OFFCURVE",
"452 804 OFFCURVE",
"470 821 CURVE",
"436 846 OFFCURVE",
"397 867 OFFCURVE",
"368 875 CURVE",
"327 874 OFFCURVE",
"235 865 OFFCURVE",
"200 847 CURVE",
"184 745 OFFCURVE",
"240 624 OFFCURVE",
"303 557 CURVE",
"226 590 OFFCURVE",
"160 705 OFFCURVE",
"163 773 CURVE",
"120 773 OFFCURVE",
"75 775 OFFCURVE",
"28 779 CURVE",
"1 712 OFFCURVE",
"4 592 OFFCURVE",
"24 535 CURVE",
"59 528 OFFCURVE",
"91 505 OFFCURVE",
"91 391 CURVE SMOOTH",
"91 271 OFFCURVE",
"66 233 OFFCURVE",
"24 222 CURVE",
"6 165 OFFCURVE",
"9 41 OFFCURVE",
"31 -16 CURVE",
"228 -7 OFFCURVE",
"312 -24 OFFCURVE",
"525 -24 CURVE SMOOTH"
);
},
{
closed = 1;
nodes = (
"480 450 LINE",
"541 450 LINE",
"541 321 LINE",
"480 321 LINE"
);
}
);
width = 1013;
},
{
layerId = "BDCFD595-0135-4C14-B4A6-60502184522E";
paths = (
{
closed = 1;
nodes = (
"1077 -179 OFFCURVE",
"1153 41 OFFCURVE",
"1153 258 CURVE SMOOTH",
"1153 382 OFFCURVE",
"1107 473 OFFCURVE",
"1043 539 CURVE SMOOTH",
"940 645 LINE",
"941 661 OFFCURVE",
"941 677 OFFCURVE",
"938 692 CURVE",
"788 847 LINE",
"753 865 OFFCURVE",
"655 874 OFFCURVE",
"610 875 CURVE",
"573 865 OFFCURVE",
"531 837 OFFCURVE",
"491 800 CURVE",
"470 821 LINE",
"436 846 OFFCURVE",
"397 867 OFFCURVE",
"368 875 CURVE",
"327 874 OFFCURVE",
"235 865 OFFCURVE",
"200 847 CURVE",
"194 808 OFFCURVE",
"198 765 OFFCURVE",
"210 724 CURVE",
"163 773 LINE",
"120 773 OFFCURVE",
"75 775 OFFCURVE",
"28 779 CURVE",
"1 712 OFFCURVE",
"4 592 OFFCURVE",
"24 535 CURVE",
"82 475 LINE",
"88 455 OFFCURVE",
"91 427 OFFCURVE",
"91 391 CURVE SMOOTH",
"91 271 OFFCURVE",
"66 233 OFFCURVE",
"24 222 CURVE",
"6 165 OFFCURVE",
"9 41 OFFCURVE",
"31 -16 CURVE",
"181 -171 LINE",
"378 -162 OFFCURVE",
"462 -179 OFFCURVE",
"675 -179 CURVE SMOOTH"
);
}
);
width = 1013;
}
);
leftKerningGroup = N;
leftMetricsKey = "=D";
rightKerningGroup = O;
rightMetricsKey = "=D";
unicode = 010E;
},
{
color = 3;
glyphname = Dcroat;
lastChange = "2017-11-24 10:13:38 +0000";
layers = (
{
layerId = "863809E3-B3D3-4728-B9C6-73F0AB5A9F00";
paths = (
{
closed = 1;
nodes = (
"927 -24 OFFCURVE",
"1003 196 OFFCURVE",
"1003 413 CURVE SMOOTH",
"1003 671 OFFCURVE",
"848 783 OFFCURVE",
"566 783 CURVE SMOOTH",
"318 783 OFFCURVE",
"198 764 OFFCURVE",
"28 779 CURVE",
"1 712 OFFCURVE",
"4 592 OFFCURVE",
"24 535 CURVE",
"56 529 OFFCURVE",
"133 519 OFFCURVE",
"184 494 CURVE",
"23 494 LINE",
"3 450 OFFCURVE",
"4 321 OFFCURVE",
"23 277 CURVE",
"83 277 LINE",
"71 243 OFFCURVE",
"51 228 OFFCURVE",
"24 222 CURVE",
"6 165 OFFCURVE",
"9 41 OFFCURVE",
"31 -16 CURVE",
"228 -7 OFFCURVE",
"312 -24 OFFCURVE",
"525 -24 CURVE SMOOTH"
);
},
{
closed = 1;
nodes = (
"480 329 LINE",
"521 329 LINE",
"521 441 LINE",
"480 441 LINE",
"480 483 LINE",
"541 483 LINE",
"541 288 LINE",
"480 288 LINE"
);
}
);
width = 1013;
},
{
layerId = "BDCFD595-0135-4C14-B4A6-60502184522E";
paths = (
{
closed = 1;
nodes = (
"1077 -179 OFFCURVE",
"1153 41 OFFCURVE",
"1153 258 CURVE SMOOTH",
"1153 382 OFFCURVE",
"1118 461 OFFCURVE",
"1049 533 CURVE SMOOTH",
"925 662 LINE SMOOTH",
"857 733 OFFCURVE",
"735 783 OFFCURVE",
"566 783 CURVE SMOOTH",
"318 783 OFFCURVE",
"198 764 OFFCURVE",
"28 779 CURVE",
"1 712 OFFCURVE",
"4 592 OFFCURVE",
"24 535 CURVE",
"64 494 LINE",
"23 494 LINE",
"3 450 OFFCURVE",
"4 321 OFFCURVE",
"23 277 CURVE",
"59 239 LINE",
"50 230 OFFCURVE",
"38 225 OFFCURVE",
"24 222 CURVE",
"6 165 OFFCURVE",
"9 41 OFFCURVE",
"31 -16 CURVE",
"181 -171 LINE",
"378 -162 OFFCURVE",
"462 -179 OFFCURVE",
"675 -179 CURVE SMOOTH"
);
}
);
width = 1013;
}
);
leftKerningGroup = Eth;
rightKerningGroup = O;
unicode = 0110;
},
{
color = 4;
glyphname = E;
lastChange = "2017-11-24 10:13:38 +0000";
layers = (
{
layerId = "863809E3-B3D3-4728-B9C6-73F0AB5A9F00";
paths = (
{
closed = 1;
nodes = (
"91 -11 OFFCURVE",
"319 -2 OFFCURVE",
"489 -2 CURVE SMOOTH",
"646 -2 OFFCURVE",
"818 -15 OFFCURVE",
"958 -17 CURVE",
"973 40 OFFCURVE",
"976 315 OFFCURVE",
"965 374 CURVE",
"863 381 OFFCURVE",
"741 381 OFFCURVE",
"629 374 CURVE",
"621 343 OFFCURVE",
"621 311 OFFCURVE",
"629 280 CURVE",
"512 280 LINE",
"512 323 LINE",
"606 323 LINE",
"606 462 LINE",
"513 462 LINE",
"513 504 LINE",
"629 504 LINE",
"621 473 OFFCURVE",
"621 442 OFFCURVE",
"629 411 CURVE",
"733 399 OFFCURVE",
"865 399 OFFCURVE",
"959 411 CURVE",
"979 482 OFFCURVE",
"971 713 OFFCURVE",
"954 776 CURVE",
"785 769 OFFCURVE",
"605 765 OFFCURVE",
"465 765 CURVE SMOOTH",
"327 765 OFFCURVE",
"84 770 OFFCURVE",
"29 775 CURVE",
"2 712 OFFCURVE",
"2 582 OFFCURVE",
"25 533 CURVE",
"49 532 OFFCURVE",
"91 509 OFFCURVE",
"91 381 CURVE SMOOTH",
"91 263 OFFCURVE",
"57 233 OFFCURVE",
"25 222 CURVE",
"7 165 OFFCURVE",
"10 40 OFFCURVE",
"32 -17 CURVE"
);
}
);
width = 980;
},
{
layerId = "BDCFD595-0135-4C14-B4A6-60502184522E";
paths = (
{
closed = 1;
nodes = (
"241 -166 OFFCURVE",
"469 -157 OFFCURVE",
"639 -157 CURVE SMOOTH",
"796 -157 OFFCURVE",
"968 -170 OFFCURVE",
"1108 -172 CURVE",
"1123 -115 OFFCURVE",
"1126 160 OFFCURVE",
"1115 219 CURVE",
"1082 253 LINE",
"1109 256 LINE",
"1129 327 OFFCURVE",
"1121 558 OFFCURVE",
"1104 621 CURVE",
"954 776 LINE",
"785 769 OFFCURVE",
"605 765 OFFCURVE",
"465 765 CURVE SMOOTH",
"327 765 OFFCURVE",
"84 770 OFFCURVE",
"29 775 CURVE",
"2 712 OFFCURVE",
"2 582 OFFCURVE",
"25 533 CURVE",
"79 477 LINE",
"86 455 OFFCURVE",
"91 424 OFFCURVE",
"91 381 CURVE SMOOTH",
"91 263 OFFCURVE",
"57 233 OFFCURVE",
"25 222 CURVE",
"7 165 OFFCURVE",
"10 40 OFFCURVE",
"32 -17 CURVE",
"182 -172 LINE"
);
}
);
width = 980;
}
);
leftKerningGroup = N;
rightKerningGroup = E;
unicode = 0045;
},
{
color = 5;
glyphname = Eacute;
lastChange = "2017-11-24 10:13:38 +0000";
layers = (
{
layerId = "863809E3-B3D3-4728-B9C6-73F0AB5A9F00";
paths = (
{
closed = 1;
nodes = (
"91 -11 OFFCURVE",
"319 -2 OFFCURVE",
"489 -2 CURVE SMOOTH",
"646 -2 OFFCURVE",
"818 -15 OFFCURVE",
"958 -17 CURVE",
"973 40 OFFCURVE",
"976 315 OFFCURVE",
"965 374 CURVE",
"863 381 OFFCURVE",
"741 381 OFFCURVE",
"629 374 CURVE",
"621 343 OFFCURVE",
"621 311 OFFCURVE",
"629 280 CURVE",
"512 280 LINE",
"512 323 LINE",
"606 323 LINE",
"606 462 LINE",
"513 462 LINE",
"513 504 LINE",
"629 504 LINE",
"621 473 OFFCURVE",
"621 442 OFFCURVE",
"629 411 CURVE",
"733 399 OFFCURVE",
"865 399 OFFCURVE",
"959 411 CURVE",
"979 482 OFFCURVE",
"971 713 OFFCURVE",
"954 776 CURVE",
"880 773 OFFCURVE",
"815 771 OFFCURVE",
"746 769 CURVE",
"750 782 OFFCURVE",
"753 794 OFFCURVE",
"755 803 CURVE",
"705 866 OFFCURVE",
"495 904 OFFCURVE",
"373 854 CURVE",
"296 745 OFFCURVE",
"296 607 OFFCURVE",
"359 540 CURVE",
"264 575 OFFCURVE",
"270 692 OFFCURVE",
"290 767 CURVE",
"182 769 OFFCURVE",
"62 772 OFFCURVE",
"29 775 CURVE",
"2 712 OFFCURVE",
"2 582 OFFCURVE",
"25 533 CURVE",
"49 532 OFFCURVE",
"91 509 OFFCURVE",
"91 381 CURVE SMOOTH",
"91 263 OFFCURVE",
"57 233 OFFCURVE",
"25 222 CURVE",
"7 165 OFFCURVE",
"10 40 OFFCURVE",
"32 -17 CURVE"
);
}
);
width = 980;
},
{
layerId = "BDCFD595-0135-4C14-B4A6-60502184522E";
paths = (
{
closed = 1;
nodes = (
"241 -166 OFFCURVE",
"469 -157 OFFCURVE",
"639 -157 CURVE SMOOTH",
"796 -157 OFFCURVE",
"968 -170 OFFCURVE",
"1108 -172 CURVE",
"1123 -115 OFFCURVE",
"1126 160 OFFCURVE",
"1115 219 CURVE",
"1082 253 LINE",
"1109 256 LINE",
"1129 327 OFFCURVE",
"1121 558 OFFCURVE",
"1104 621 CURVE",
"954 776 LINE",
"787 770 LINE",
"755 803 LINE",
"705 866 OFFCURVE",
"495 904 OFFCURVE",
"373 854 CURVE",
"347 817 OFFCURVE",
"329 776 OFFCURVE",
"321 735 CURVE",
"290 767 LINE",
"182 769 OFFCURVE",
"62 772 OFFCURVE",
"29 775 CURVE",
"2 712 OFFCURVE",
"2 582 OFFCURVE",
"25 533 CURVE",
"79 477 LINE",
"86 455 OFFCURVE",
"91 424 OFFCURVE",
"91 381 CURVE SMOOTH",
"91 263 OFFCURVE",
"57 233 OFFCURVE",
"25 222 CURVE",
"7 165 OFFCURVE",
"10 40 OFFCURVE",
"32 -17 CURVE",
"182 -172 LINE"
);
}
);
width = 980;
}
);
leftKerningGroup = N;
leftMetricsKey = "=E";
rightKerningGroup = E;
rightMetricsKey = "=E";
unicode = 00C9;
},
{
color = 5;
glyphname = Ebreve;
lastChange = "2017-11-24 10:13:38 +0000";
layers = (
{
layerId = "863809E3-B3D3-4728-B9C6-73F0AB5A9F00";
paths = (
{
closed = 1;
nodes = (
"91 -11 OFFCURVE",
"319 -2 OFFCURVE",
"489 -2 CURVE SMOOTH",
"646 -2 OFFCURVE",
"818 -15 OFFCURVE",
"958 -17 CURVE",
"973 40 OFFCURVE",
"976 315 OFFCURVE",
"965 374 CURVE",
"863 381 OFFCURVE",
"741 381 OFFCURVE",
"629 374 CURVE",
"621 343 OFFCURVE",
"621 311 OFFCURVE",
"629 280 CURVE",
"512 280 LINE",
"512 323 LINE",
"606 323 LINE",
"606 462 LINE",
"513 462 LINE",
"513 504 LINE",
"629 504 LINE",
"621 473 OFFCURVE",
"621 442 OFFCURVE",
"629 411 CURVE",
"733 399 OFFCURVE",
"865 399 OFFCURVE",
"959 411 CURVE",
"979 482 OFFCURVE",
"971 713 OFFCURVE",
"954 776 CURVE",
"795 770 LINE",
"794 808 OFFCURVE",
"793 828 OFFCURVE",
"789 847 CURVE",
"754 865 OFFCURVE",
"662 874 OFFCURVE",
"621 875 CURVE",
"601 845 OFFCURVE",
"560 830 OFFCURVE",
"500 830 CURVE SMOOTH",
"440 830 OFFCURVE",
"400 845 OFFCURVE",
"379 875 CURVE",
"334 874 OFFCURVE",
"236 865 OFFCURVE",
"201 847 CURVE",
"184 736 OFFCURVE",
"223 635 OFFCURVE",
"303 576 CURVE",
"218 600 OFFCURVE",
"168 675 OFFCURVE",
"159 766 CURVE",
"101 771 OFFCURVE",
"50 773 OFFCURVE",
"29 775 CURVE",
"2 712 OFFCURVE",
"2 582 OFFCURVE",
"25 533 CURVE",
"49 532 OFFCURVE",
"91 509 OFFCURVE",
"91 381 CURVE SMOOTH",
"91 263 OFFCURVE",
"57 233 OFFCURVE",
"25 222 CURVE",
"7 165 OFFCURVE",
"10 40 OFFCURVE",
"32 -17 CURVE"
);
}
);
width = 980;
},
{
layerId = "BDCFD595-0135-4C14-B4A6-60502184522E";
paths = (
{
closed = 1;
nodes = (
"241 -166 OFFCURVE",
"469 -157 OFFCURVE",
"639 -157 CURVE SMOOTH",
"796 -157 OFFCURVE",
"968 -170 OFFCURVE",
"1108 -172 CURVE",
"1123 -115 OFFCURVE",
"1126 160 OFFCURVE",
"1115 219 CURVE",
"1082 253 LINE",
"1109 256 LINE",
"1129 327 OFFCURVE",
"1121 558 OFFCURVE",
"1104 621 CURVE",
"954 776 LINE",
"924 775 OFFCURVE",
"892 774 OFFCURVE",
"861 772 CURVE",
"789 847 LINE",
"754 865 OFFCURVE",
"662 874 OFFCURVE",
"621 875 CURVE",
"601 845 OFFCURVE",
"560 830 OFFCURVE",
"500 830 CURVE SMOOTH",
"440 830 OFFCURVE",
"400 845 OFFCURVE",
"379 875 CURVE",
"334 874 OFFCURVE",
"236 865 OFFCURVE",
"201 847 CURVE",
"194 801 OFFCURVE",
"196 756 OFFCURVE",
"208 716 CURVE",
"159 766 LINE",
"101 771 OFFCURVE",
"50 773 OFFCURVE",
"29 775 CURVE",
"2 712 OFFCURVE",
"2 582 OFFCURVE",
"25 533 CURVE",
"79 477 LINE",
"86 455 OFFCURVE",
"91 424 OFFCURVE",
"91 381 CURVE SMOOTH",
"91 263 OFFCURVE",
"57 233 OFFCURVE",
"25 222 CURVE",
"7 165 OFFCURVE",
"10 40 OFFCURVE",
"32 -17 CURVE",
"182 -172 LINE"
);
}
);
width = 980;
}
);
leftKerningGroup = N;
leftMetricsKey = "=E";
rightKerningGroup = E;
rightMetricsKey = "=E";
unicode = 0114;
},
{
color = 5;
glyphname = Ecaron;
lastChange = "2017-11-24 10:13:38 +0000";
layers = (
{
layerId = "863809E3-B3D3-4728-B9C6-73F0AB5A9F00";
paths = (
{
closed = 1;
nodes = (
"91 -11 OFFCURVE",
"319 -2 OFFCURVE",
"489 -2 CURVE SMOOTH",
"646 -2 OFFCURVE",
"818 -15 OFFCURVE",
"958 -17 CURVE",
"973 40 OFFCURVE",
"976 315 OFFCURVE",
"965 374 CURVE",
"863 381 OFFCURVE",
"741 381 OFFCURVE",
"629 374 CURVE",
"621 343 OFFCURVE",
"621 311 OFFCURVE",
"629 280 CURVE",
"512 280 LINE",
"512 323 LINE",
"606 323 LINE",
"606 462 LINE",
"513 462 LINE",
"513 504 LINE",
"629 504 LINE",
"621 473 OFFCURVE",
"621 442 OFFCURVE",
"629 411 CURVE",
"733 399 OFFCURVE",
"865 399 OFFCURVE",
"959 411 CURVE",
"979 482 OFFCURVE",
"971 713 OFFCURVE",
"954 776 CURVE",
"910 774 OFFCURVE",
"863 772 OFFCURVE",
"815 771 CURVE",
"819 797 OFFCURVE",
"820 822 OFFCURVE",
"816 847 CURVE",
"781 865 OFFCURVE",
"683 874 OFFCURVE",
"638 875 CURVE",
"585 861 OFFCURVE",
"524 811 OFFCURVE",
"469 748 CURVE",
"444 765 LINE",
"462 785 OFFCURVE",
"480 804 OFFCURVE",
"498 821 CURVE",
"464 846 OFFCURVE",
"425 867 OFFCURVE",
"396 875 CURVE",
"355 874 OFFCURVE",
"263 865 OFFCURVE",
"228 847 CURVE",
"212 747 OFFCURVE",
"266 627 OFFCURVE",
"329 560 CURVE",
"255 592 OFFCURVE",
"194 694 OFFCURVE",
"194 769 CURVE",
"123 771 OFFCURVE",
"53 773 OFFCURVE",
"29 775 CURVE",
"2 712 OFFCURVE",
"2 582 OFFCURVE",
"25 533 CURVE",
"49 532 OFFCURVE",
"91 509 OFFCURVE",
"91 381 CURVE SMOOTH",
"91 263 OFFCURVE",
"57 233 OFFCURVE",
"25 222 CURVE",
"7 165 OFFCURVE",
"10 40 OFFCURVE",
"32 -17 CURVE"
);
}
);
width = 980;
},
{
layerId = "BDCFD595-0135-4C14-B4A6-60502184522E";
paths = (
{
closed = 1;
nodes = (
"241 -166 OFFCURVE",
"469 -157 OFFCURVE",
"639 -157 CURVE SMOOTH",
"796 -157 OFFCURVE",
"968 -170 OFFCURVE",
"1108 -172 CURVE",
"1123 -115 OFFCURVE",
"1126 160 OFFCURVE",
"1115 219 CURVE",
"1082 253 LINE",
"1109 256 LINE",
"1129 327 OFFCURVE",
"1121 558 OFFCURVE",
"1104 621 CURVE",
"954 776 LINE",
"887 773 LINE",
"816 847 LINE",
"781 865 OFFCURVE",
"683 874 OFFCURVE",
"638 875 CURVE",
"601 865 OFFCURVE",
"559 837 OFFCURVE",
"519 800 CURVE",
"498 821 LINE",
"464 846 OFFCURVE",
"425 867 OFFCURVE",
"396 875 CURVE",
"355 874 OFFCURVE",
"263 865 OFFCURVE",
"228 847 CURVE",
"222 807 OFFCURVE",
"226 765 OFFCURVE",
"238 723 CURVE",
"194 769 LINE",
"123 771 OFFCURVE",
"53 773 OFFCURVE",
"29 775 CURVE",
"2 712 OFFCURVE",
"2 582 OFFCURVE",
"25 533 CURVE",
"79 477 LINE",
"86 455 OFFCURVE",
"91 424 OFFCURVE",
"91 381 CURVE SMOOTH",
"91 263 OFFCURVE",
"57 233 OFFCURVE",
"25 222 CURVE",
"7 165 OFFCURVE",
"10 40 OFFCURVE",
"32 -17 CURVE",
"182 -172 LINE"
);
}
);
width = 980;
}
);
leftKerningGroup = N;
leftMetricsKey = "=E";
rightKerningGroup = E;
rightMetricsKey = "=E";
unicode = 011A;
},
{
color = 5;
glyphname = Ecircumflex;
lastChange = "2017-11-24 10:13:38 +0000";
layers = (
{
layerId = "863809E3-B3D3-4728-B9C6-73F0AB5A9F00";
paths = (
{
closed = 1;
nodes = (
"91 -11 OFFCURVE",
"319 -2 OFFCURVE",
"489 -2 CURVE SMOOTH",
"646 -2 OFFCURVE",
"818 -15 OFFCURVE",
"958 -17 CURVE",
"973 40 OFFCURVE",
"976 315 OFFCURVE",
"965 374 CURVE",
"863 381 OFFCURVE",
"741 381 OFFCURVE",
"629 374 CURVE",
"621 343 OFFCURVE",
"621 311 OFFCURVE",
"629 280 CURVE",
"512 280 LINE",
"512 323 LINE",
"606 323 LINE",
"606 462 LINE",
"513 462 LINE",
"513 504 LINE",
"629 504 LINE",
"621 473 OFFCURVE",
"621 442 OFFCURVE",
"629 411 CURVE",
"733 399 OFFCURVE",
"865 399 OFFCURVE",
"959 411 CURVE",
"979 482 OFFCURVE",
"971 713 OFFCURVE",
"954 776 CURVE",
"899 773 OFFCURVE",
"828 770 OFFCURVE",
"755 769 CURVE",
"729 811 OFFCURVE",
"696 846 OFFCURVE",
"666 867 CURVE",
"613 877 OFFCURVE",
"446 879 OFFCURVE",
"364 867 CURVE",
"288 815 OFFCURVE",
"211 687 OFFCURVE",
"220 559 CURVE",
"192 601 OFFCURVE",
"199 713 OFFCURVE",
"231 768 CURVE",
"149 770 OFFCURVE",
"56 772 OFFCURVE",
"29 775 CURVE",
"2 712 OFFCURVE",
"2 582 OFFCURVE",
"25 533 CURVE",
"49 532 OFFCURVE",
"91 509 OFFCURVE",
"91 381 CURVE SMOOTH",
"91 263 OFFCURVE",
"57 233 OFFCURVE",
"25 222 CURVE",
"7 165 OFFCURVE",
"10 40 OFFCURVE",
"32 -17 CURVE"
);
}
);
width = 980;
},
{
layerId = "BDCFD595-0135-4C14-B4A6-60502184522E";
paths = (
{
closed = 1;
nodes = (
"241 -166 OFFCURVE",
"469 -157 OFFCURVE",
"639 -157 CURVE SMOOTH",
"796 -157 OFFCURVE",
"968 -170 OFFCURVE",
"1108 -172 CURVE",
"1123 -115 OFFCURVE",
"1126 160 OFFCURVE",
"1115 219 CURVE",
"1082 253 LINE",
"1109 256 LINE",
"1129 327 OFFCURVE",
"1121 558 OFFCURVE",
"1104 621 CURVE",
"954 776 LINE",
"899 773 OFFCURVE",
"828 770 OFFCURVE",
"755 769 CURVE",
"729 811 OFFCURVE",
"696 846 OFFCURVE",
"666 867 CURVE",
"613 877 OFFCURVE",
"446 879 OFFCURVE",
"364 867 CURVE",
"326 841 OFFCURVE",
"287 795 OFFCURVE",
"259 739 CURVE",
"231 768 LINE",
"149 770 OFFCURVE",
"56 772 OFFCURVE",
"29 775 CURVE",
"2 712 OFFCURVE",
"2 582 OFFCURVE",
"25 533 CURVE",
"79 477 LINE",
"86 455 OFFCURVE",
"91 424 OFFCURVE",
"91 381 CURVE SMOOTH",
"91 263 OFFCURVE",
"57 233 OFFCURVE",
"25 222 CURVE",
"7 165 OFFCURVE",
"10 40 OFFCURVE",
"32 -17 CURVE",
"182 -172 LINE"
);
}
);
width = 980;
}
);
leftKerningGroup = N;
leftMetricsKey = "=E";
rightKerningGroup = E;
rightMetricsKey = "=E";
unicode = 00CA;
},
{
color = 5;
glyphname = Edieresis;
lastChange = "2017-11-24 10:13:38 +0000";
layers = (
{
layerId = "863809E3-B3D3-4728-B9C6-73F0AB5A9F00";
paths = (
{
closed = 1;
nodes = (
"91 -11 OFFCURVE",
"319 -2 OFFCURVE",
"489 -2 CURVE SMOOTH",
"646 -2 OFFCURVE",
"818 -15 OFFCURVE",
"958 -17 CURVE",
"973 40 OFFCURVE",
"976 315 OFFCURVE",
"965 374 CURVE",
"863 381 OFFCURVE",
"741 381 OFFCURVE",
"629 374 CURVE",
"621 343 OFFCURVE",
"621 311 OFFCURVE",
"629 280 CURVE",
"512 280 LINE",
"512 323 LINE",
"606 323 LINE",
"606 462 LINE",
"513 462 LINE",
"513 504 LINE",
"629 504 LINE",
"621 473 OFFCURVE",
"621 442 OFFCURVE",
"629 411 CURVE",
"733 399 OFFCURVE",
"865 399 OFFCURVE",
"959 411 CURVE",
"979 482 OFFCURVE",
"971 713 OFFCURVE",
"954 776 CURVE",
"923 774 OFFCURVE",
"890 773 OFFCURVE",
"858 772 CURVE",
"833 831 OFFCURVE",
"771 876 OFFCURVE",
"657 876 CURVE SMOOTH",
"529 876 OFFCURVE",
"466 822 OFFCURVE",
"445 760 CURVE",
"437 795 OFFCURVE",
"449 837 OFFCURVE",
"493 866 CURVE",
"469 871 OFFCURVE",
"440 876 OFFCURVE",
"407 876 CURVE SMOOTH",
"242 876 OFFCURVE",
"187 786 OFFCURVE",
"187 707 CURVE SMOOTH",
"187 633 OFFCURVE",
"233 573 OFFCURVE",
"296 546 CURVE",
"198 555 OFFCURVE",
"127 640 OFFCURVE",
"158 770 CURVE",
"93 771 OFFCURVE",
"47 773 OFFCURVE",
"29 775 CURVE",
"2 712 OFFCURVE",
"2 582 OFFCURVE",
"25 533 CURVE",
"49 532 OFFCURVE",
"91 509 OFFCURVE",
"91 381 CURVE SMOOTH",
"91 263 OFFCURVE",
"57 233 OFFCURVE",
"25 222 CURVE",
"7 165 OFFCURVE",
"10 40 OFFCURVE",
"32 -17 CURVE"
);
}
);
width = 980;
},
{
layerId = "BDCFD595-0135-4C14-B4A6-60502184522E";
paths = (
{
closed = 1;
nodes = (
"241 -166 OFFCURVE",
"469 -157 OFFCURVE",
"639 -157 CURVE SMOOTH",
"796 -157 OFFCURVE",
"968 -170 OFFCURVE",
"1108 -172 CURVE",
"1123 -115 OFFCURVE",
"1126 160 OFFCURVE",
"1115 219 CURVE",
"1082 253 LINE",
"1109 256 LINE",
"1129 327 OFFCURVE",
"1121 558 OFFCURVE",
"1104 621 CURVE",
"954 776 LINE",
"927 774 OFFCURVE",
"899 773 OFFCURVE",
"871 772 CURVE",
"835 809 LINE",
"803 849 OFFCURVE",
"745 876 OFFCURVE",
"657 876 CURVE SMOOTH",
"595 876 OFFCURVE",
"549 863 OFFCURVE",
"515 844 CURVE",
"493 866 LINE",
"469 871 OFFCURVE",
"440 876 OFFCURVE",
"407 876 CURVE SMOOTH",
"263 876 OFFCURVE",
"203 807 OFFCURVE",
"190 737 CURVE",
"158 770 LINE",
"93 771 OFFCURVE",
"47 773 OFFCURVE",
"29 775 CURVE",
"2 712 OFFCURVE",
"2 582 OFFCURVE",
"25 533 CURVE",
"79 477 LINE",
"86 455 OFFCURVE",
"91 424 OFFCURVE",
"91 381 CURVE SMOOTH",
"91 263 OFFCURVE",
"57 233 OFFCURVE",
"25 222 CURVE",
"7 165 OFFCURVE",
"10 40 OFFCURVE",
"32 -17 CURVE",
"182 -172 LINE"
);
}
);
width = 980;
}
);
leftKerningGroup = N;
leftMetricsKey = "=E";
rightKerningGroup = E;
rightMetricsKey = "=E";
unicode = 00CB;
},
{
color = 5;
glyphname = Edotaccent;
lastChange = "2017-11-24 10:13:38 +0000";
layers = (
{
layerId = "863809E3-B3D3-4728-B9C6-73F0AB5A9F00";
paths = (
{
closed = 1;
nodes = (
"91 -11 OFFCURVE",
"319 -2 OFFCURVE",
"489 -2 CURVE SMOOTH",
"646 -2 OFFCURVE",
"818 -15 OFFCURVE",
"958 -17 CURVE",
"973 40 OFFCURVE",
"976 315 OFFCURVE",
"965 374 CURVE",
"863 381 OFFCURVE",
"741 381 OFFCURVE",
"629 374 CURVE",
"621 343 OFFCURVE",
"621 311 OFFCURVE",
"629 280 CURVE",
"512 280 LINE",
"512 323 LINE",
"606 323 LINE",
"606 462 LINE",
"513 462 LINE",
"513 504 LINE",
"629 504 LINE",
"621 473 OFFCURVE",
"621 442 OFFCURVE",
"629 411 CURVE",
"733 399 OFFCURVE",
"865 399 OFFCURVE",
"959 411 CURVE",
"979 482 OFFCURVE",
"971 713 OFFCURVE",
"954 776 CURVE",
"868 772 OFFCURVE",
"792 770 OFFCURVE",
"713 768 CURVE",
"681 839 OFFCURVE",
"613 876 OFFCURVE",
"498 876 CURVE SMOOTH",
"342 876 OFFCURVE",
"289 788 OFFCURVE",
"289 707 CURVE SMOOTH",
"289 648 OFFCURVE",
"319 597 OFFCURVE",
"363 565 CURVE",
"284 584 OFFCURVE",
"234 656 OFFCURVE",
"259 767 CURVE",
"154 769 OFFCURVE",
"59 772 OFFCURVE",
"29 775 CURVE",
"2 712 OFFCURVE",
"2 582 OFFCURVE",
"25 533 CURVE",
"49 532 OFFCURVE",
"91 509 OFFCURVE",
"91 381 CURVE SMOOTH",
"91 263 OFFCURVE",
"57 233 OFFCURVE",
"25 222 CURVE",
"7 165 OFFCURVE",
"10 40 OFFCURVE",
"32 -17 CURVE"
);
}
);
width = 980;
},
{
layerId = "BDCFD595-0135-4C14-B4A6-60502184522E";
paths = (
{
closed = 1;
nodes = (
"241 -166 OFFCURVE",
"469 -157 OFFCURVE",
"639 -157 CURVE SMOOTH",
"796 -157 OFFCURVE",
"968 -170 OFFCURVE",
"1108 -172 CURVE",
"1123 -115 OFFCURVE",
"1126 160 OFFCURVE",
"1115 219 CURVE",
"1082 253 LINE",
"1109 256 LINE",
"1129 327 OFFCURVE",
"1121 558 OFFCURVE",
"1104 621 CURVE",
"954 776 LINE",
"873 772 OFFCURVE",
"801 770 OFFCURVE",
"726 768 CURVE",
"690 806 LINE",
"652 852 OFFCURVE",
"590 876 OFFCURVE",
"498 876 CURVE SMOOTH",
"359 876 OFFCURVE",
"302 806 OFFCURVE",
"291 734 CURVE",
"259 767 LINE",
"154 769 OFFCURVE",
"59 772 OFFCURVE",
"29 775 CURVE",
"2 712 OFFCURVE",
"2 582 OFFCURVE",
"25 533 CURVE",
"79 477 LINE",
"86 455 OFFCURVE",
"91 424 OFFCURVE",
"91 381 CURVE SMOOTH",
"91 263 OFFCURVE",
"57 233 OFFCURVE",
"25 222 CURVE",
"7 165 OFFCURVE",
"10 40 OFFCURVE",
"32 -17 CURVE",
"182 -172 LINE"
);
}
);
width = 980;
}
);
leftKerningGroup = N;
leftMetricsKey = "=E";
rightKerningGroup = E;
rightMetricsKey = "=E";
unicode = 0116;
},
{
color = 5;
glyphname = Edotbelow;
lastChange = "2017-11-24 10:13:39 +0000";
layers = (
{
layerId = "863809E3-B3D3-4728-B9C6-73F0AB5A9F00";
paths = (
{
closed = 1;
nodes = (
"666 -173 OFFCURVE",
"723 -92 OFFCURVE",
"725 -9 CURVE",
"807 -12 OFFCURVE",
"886 -16 OFFCURVE",
"958 -17 CURVE",
"973 40 OFFCURVE",
"976 315 OFFCURVE",
"965 374 CURVE",
"863 381 OFFCURVE",
"741 381 OFFCURVE",
"629 374 CURVE",
"621 343 OFFCURVE",
"621 311 OFFCURVE",
"629 280 CURVE",
"512 280 LINE",
"512 323 LINE",
"606 323 LINE",
"606 462 LINE",
"513 462 LINE",
"513 504 LINE",
"629 504 LINE",
"621 473 OFFCURVE",
"621 442 OFFCURVE",
"629 411 CURVE",
"733 399 OFFCURVE",
"865 399 OFFCURVE",
"959 411 CURVE",
"979 482 OFFCURVE",
"971 713 OFFCURVE",
"954 776 CURVE",
"785 769 OFFCURVE",
"605 765 OFFCURVE",
"465 765 CURVE SMOOTH",
"327 765 OFFCURVE",
"84 770 OFFCURVE",
"29 775 CURVE",
"2 712 OFFCURVE",
"2 582 OFFCURVE",
"25 533 CURVE",
"49 532 OFFCURVE",
"91 509 OFFCURVE",
"91 381 CURVE SMOOTH",
"91 263 OFFCURVE",
"57 233 OFFCURVE",
"25 222 CURVE",
"7 165 OFFCURVE",
"10 40 OFFCURVE",
"32 -17 CURVE",
"66 -13 OFFCURVE",
"154 -9 OFFCURVE",
"254 -6 CURVE",
"257 63 OFFCURVE",
"297 146 OFFCURVE",
"385 151 CURVE",
"315 119 OFFCURVE",
"288 59 OFFCURVE",
"288 5 CURVE SMOOTH",
"288 -97 OFFCURVE",
"364 -173 OFFCURVE",
"510 -173 CURVE SMOOTH"
);
}
);
width = 980;
},
{
layerId = "BDCFD595-0135-4C14-B4A6-60502184522E";
paths = (
{
closed = 1;
nodes = (
"816 -328 OFFCURVE",
"873 -247 OFFCURVE",
"875 -164 CURVE",
"957 -167 OFFCURVE",
"1036 -171 OFFCURVE",
"1108 -172 CURVE",
"1123 -115 OFFCURVE",
"1126 160 OFFCURVE",
"1115 219 CURVE",
"1082 253 LINE",
"1109 256 LINE",
"1129 327 OFFCURVE",
"1121 558 OFFCURVE",
"1104 621 CURVE",
"954 776 LINE",
"785 769 OFFCURVE",
"605 765 OFFCURVE",
"465 765 CURVE SMOOTH",
"327 765 OFFCURVE",
"84 770 OFFCURVE",
"29 775 CURVE",
"2 712 OFFCURVE",
"2 582 OFFCURVE",
"25 533 CURVE",
"79 477 LINE",
"86 455 OFFCURVE",
"91 424 OFFCURVE",
"91 381 CURVE SMOOTH",
"91 263 OFFCURVE",
"57 233 OFFCURVE",
"25 222 CURVE",
"7 165 OFFCURVE",
"10 40 OFFCURVE",
"32 -17 CURVE",
"182 -172 LINE",
"214 -168 OFFCURVE",
"291 -165 OFFCURVE",
"382 -162 CURVE",
"467 -253 LINE SMOOTH",
"510 -300 OFFCURVE",
"572 -328 OFFCURVE",
"660 -328 CURVE SMOOTH"
);
}
);
width = 980;
}
);
leftKerningGroup = N;
leftMetricsKey = "=E";
rightKerningGroup = E;
rightMetricsKey = "=E";
unicode = 1EB8;
},
{
color = 5;
glyphname = Egrave;
lastChange = "2017-11-24 10:13:39 +0000";
layers = (
{
layerId = "863809E3-B3D3-4728-B9C6-73F0AB5A9F00";
paths = (
{
closed = 1;
nodes = (
"91 -11 OFFCURVE",
"319 -2 OFFCURVE",
"489 -2 CURVE SMOOTH",
"646 -2 OFFCURVE",
"818 -15 OFFCURVE",
"958 -17 CURVE",
"973 40 OFFCURVE",
"976 315 OFFCURVE",
"965 374 CURVE",
"863 381 OFFCURVE",
"741 381 OFFCURVE",
"629 374 CURVE",
"621 343 OFFCURVE",
"621 311 OFFCURVE",
"629 280 CURVE",
"512 280 LINE",
"512 323 LINE",
"606 323 LINE",
"606 462 LINE",
"513 462 LINE",
"513 504 LINE",
"629 504 LINE",
"621 473 OFFCURVE",
"621 442 OFFCURVE",
"629 411 CURVE",
"733 399 OFFCURVE",
"865 399 OFFCURVE",
"959 411 CURVE",
"979 482 OFFCURVE",
"971 713 OFFCURVE",
"954 776 CURVE",
"854 772 OFFCURVE",
"750 769 OFFCURVE",
"652 767 CURVE",
"641 802 OFFCURVE",
"625 833 OFFCURVE",
"610 854 CURVE",
"488 904 OFFCURVE",
"278 866 OFFCURVE",
"228 803 CURVE",
"242 718 OFFCURVE",
"305 629 OFFCURVE",
"372 569 CURVE",
"297 594 OFFCURVE",
"232 654 OFFCURVE",
"193 768 CURVE",
"117 770 OFFCURVE",
"54 773 OFFCURVE",
"29 775 CURVE",
"2 712 OFFCURVE",
"2 582 OFFCURVE",
"25 533 CURVE",
"49 532 OFFCURVE",
"91 509 OFFCURVE",
"91 381 CURVE SMOOTH",
"91 263 OFFCURVE",
"57 233 OFFCURVE",
"25 222 CURVE",
"7 165 OFFCURVE",
"10 40 OFFCURVE",
"32 -17 CURVE"
);
}
);
width = 980;
},
{
layerId = "BDCFD595-0135-4C14-B4A6-60502184522E";
paths = (
{
closed = 1;
nodes = (
"241 -166 OFFCURVE",
"469 -157 OFFCURVE",
"639 -157 CURVE SMOOTH",
"796 -157 OFFCURVE",
"968 -170 OFFCURVE",
"1108 -172 CURVE",
"1123 -115 OFFCURVE",
"1126 160 OFFCURVE",
"1115 219 CURVE",
"1082 253 LINE",
"1109 256 LINE",
"1129 327 OFFCURVE",
"1121 558 OFFCURVE",
"1104 621 CURVE",
"954 776 LINE",
"868 773 OFFCURVE",
"779 770 OFFCURVE",
"693 768 CURVE",
"610 854 LINE",
"488 904 OFFCURVE",
"278 866 OFFCURVE",
"228 803 CURVE",
"235 762 OFFCURVE",
"253 720 OFFCURVE",
"278 681 CURVE",
"193 768 LINE",
"117 770 OFFCURVE",
"54 773 OFFCURVE",
"29 775 CURVE",
"2 712 OFFCURVE",
"2 582 OFFCURVE",
"25 533 CURVE",
"79 477 LINE",
"86 455 OFFCURVE",
"91 424 OFFCURVE",
"91 381 CURVE SMOOTH",
"91 263 OFFCURVE",
"57 233 OFFCURVE",
"25 222 CURVE",
"7 165 OFFCURVE",
"10 40 OFFCURVE",
"32 -17 CURVE",
"182 -172 LINE"
);
}
);
width = 980;
}
);
leftKerningGroup = N;
leftMetricsKey = "=E";
rightKerningGroup = E;
rightMetricsKey = "=E";
unicode = 00C8;
},
{
color = 5;
glyphname = Emacron;
lastChange = "2017-11-24 10:13:39 +0000";
layers = (
{
layerId = "863809E3-B3D3-4728-B9C6-73F0AB5A9F00";
paths = (
{
closed = 1;
nodes = (
"91 -11 OFFCURVE",
"319 -2 OFFCURVE",
"489 -2 CURVE SMOOTH",
"646 -2 OFFCURVE",
"818 -15 OFFCURVE",
"958 -17 CURVE",
"973 40 OFFCURVE",
"976 315 OFFCURVE",
"965 374 CURVE",
"863 381 OFFCURVE",
"741 381 OFFCURVE",
"629 374 CURVE",
"621 343 OFFCURVE",
"621 311 OFFCURVE",
"629 280 CURVE",
"512 280 LINE",
"512 323 LINE",
"606 323 LINE",
"606 462 LINE",
"513 462 LINE",
"513 504 LINE",
"629 504 LINE",
"621 473 OFFCURVE",
"621 442 OFFCURVE",
"629 411 CURVE",
"733 399 OFFCURVE",
"865 399 OFFCURVE",
"959 411 CURVE",
"979 482 OFFCURVE",
"971 713 OFFCURVE",
"954 776 CURVE",
"891 774 OFFCURVE",
"829 771 OFFCURVE",
"767 770 CURVE",
"766 803 OFFCURVE",
"763 837 OFFCURVE",
"758 854 CURVE",
"621 844 OFFCURVE",
"369 844 OFFCURVE",
"234 854 CURVE",
"222 798 OFFCURVE",
"224 588 OFFCURVE",
"234 552 CURVE",
"200 608 OFFCURVE",
"193 724 OFFCURVE",
"191 768 CURVE",
"120 770 OFFCURVE",
"53 773 OFFCURVE",
"29 775 CURVE",
"2 712 OFFCURVE",
"2 582 OFFCURVE",
"25 533 CURVE",
"49 532 OFFCURVE",
"91 509 OFFCURVE",
"91 381 CURVE SMOOTH",
"91 263 OFFCURVE",
"57 233 OFFCURVE",
"25 222 CURVE",
"7 165 OFFCURVE",
"10 40 OFFCURVE",
"32 -17 CURVE"
);
}
);
width = 980;
},
{
layerId = "BDCFD595-0135-4C14-B4A6-60502184522E";
paths = (
{
closed = 1;
nodes = (
"241 -166 OFFCURVE",
"469 -157 OFFCURVE",
"639 -157 CURVE SMOOTH",
"796 -157 OFFCURVE",
"968 -170 OFFCURVE",
"1108 -172 CURVE",
"1123 -115 OFFCURVE",
"1126 160 OFFCURVE",
"1115 219 CURVE",
"1082 253 LINE",
"1109 256 LINE",
"1129 327 OFFCURVE",
"1121 558 OFFCURVE",
"1104 621 CURVE",
"954 776 LINE",
"915 775 OFFCURVE",
"876 773 OFFCURVE",
"838 772 CURVE",
"758 854 LINE",
"621 844 OFFCURVE",
"369 844 OFFCURVE",
"234 854 CURVE",
"229 831 OFFCURVE",
"226 783 OFFCURVE",
"226 732 CURVE",
"191 768 LINE",
"120 770 OFFCURVE",
"53 773 OFFCURVE",
"29 775 CURVE",
"2 712 OFFCURVE",
"2 582 OFFCURVE",
"25 533 CURVE",
"79 477 LINE",
"86 455 OFFCURVE",
"91 424 OFFCURVE",
"91 381 CURVE SMOOTH",
"91 263 OFFCURVE",
"57 233 OFFCURVE",
"25 222 CURVE",
"7 165 OFFCURVE",
"10 40 OFFCURVE",
"32 -17 CURVE",
"182 -172 LINE"
);
}
);
width = 980;
}
);
leftKerningGroup = N;
leftMetricsKey = "=E";
rightKerningGroup = E;
rightMetricsKey = "=E";
unicode = 0112;
},
{
color = 5;
glyphname = Eogonek;
lastChange = "2017-11-24 10:13:39 +0000";
layers = (
{
layerId = "863809E3-B3D3-4728-B9C6-73F0AB5A9F00";
paths = (
{
closed = 1;
nodes = (
"810 -169 OFFCURVE",
"864 -152 OFFCURVE",
"953 -159 CURVE",
"973 30 OFFCURVE",
"976 315 OFFCURVE",
"965 374 CURVE",
"863 381 OFFCURVE",
"741 381 OFFCURVE",
"629 374 CURVE",
"621 343 OFFCURVE",
"621 311 OFFCURVE",
"629 280 CURVE",
"512 280 LINE",
"512 323 LINE",
"606 323 LINE",
"606 462 LINE",
"513 462 LINE",
"513 504 LINE",
"629 504 LINE",
"621 473 OFFCURVE",
"621 442 OFFCURVE",
"629 411 CURVE",
"733 399 OFFCURVE",
"865 399 OFFCURVE",
"959 411 CURVE",
"979 482 OFFCURVE",
"971 713 OFFCURVE",
"954 776 CURVE",
"785 769 OFFCURVE",
"605 765 OFFCURVE",
"465 765 CURVE SMOOTH",
"327 765 OFFCURVE",
"84 770 OFFCURVE",
"29 775 CURVE",
"2 712 OFFCURVE",
"2 582 OFFCURVE",
"25 533 CURVE",
"49 532 OFFCURVE",
"91 509 OFFCURVE",
"91 381 CURVE SMOOTH",
"91 263 OFFCURVE",
"57 233 OFFCURVE",
"25 222 CURVE",
"7 165 OFFCURVE",
"10 40 OFFCURVE",
"32 -17 CURVE",
"67 -13 OFFCURVE",
"170 -7 OFFCURVE",
"480 -5 CURVE",
"491 24 OFFCURVE",
"519 93 OFFCURVE",
"583 106 CURVE",
"539 59 OFFCURVE",
"521 7 OFFCURVE",
"521 -34 CURVE SMOOTH",
"521 -123 OFFCURVE",
"583 -169 OFFCURVE",
"699 -169 CURVE SMOOTH"
);
}
);
width = 979;
},
{
layerId = "BDCFD595-0135-4C14-B4A6-60502184522E";
paths = (
{
closed = 1;
nodes = (
"960 -324 OFFCURVE",
"1014 -307 OFFCURVE",
"1103 -314 CURVE",
"1123 -125 OFFCURVE",
"1126 160 OFFCURVE",
"1115 219 CURVE",
"1082 253 LINE",
"1109 256 LINE",
"1129 327 OFFCURVE",
"1121 558 OFFCURVE",
"1104 621 CURVE",
"954 776 LINE",
"785 769 OFFCURVE",
"605 765 OFFCURVE",
"465 765 CURVE SMOOTH",
"327 765 OFFCURVE",
"84 770 OFFCURVE",
"29 775 CURVE",
"2 712 OFFCURVE",
"2 582 OFFCURVE",
"25 533 CURVE",
"79 477 LINE",
"86 455 OFFCURVE",
"91 424 OFFCURVE",
"91 381 CURVE SMOOTH",
"91 263 OFFCURVE",
"57 233 OFFCURVE",
"25 222 CURVE",
"7 165 OFFCURVE",
"10 40 OFFCURVE",
"32 -17 CURVE",
"182 -172 LINE",
"216 -168 OFFCURVE",
"311 -162 OFFCURVE",
"589 -160 CURVE",
"686 -259 LINE SMOOTH",
"735 -309 OFFCURVE",
"783 -324 OFFCURVE",
"849 -324 CURVE SMOOTH"
);
}
);
width = 979;
}
);
leftKerningGroup = N;
leftMetricsKey = "=E";
rightKerningGroup = E;
rightMetricsKey = "=E";
unicode = 0118;
},
{
color = 5;
glyphname = Etilde;
lastChange = "2017-11-24 10:13:39 +0000";
layers = (
{
layerId = "863809E3-B3D3-4728-B9C6-73F0AB5A9F00";
paths = (
{
closed = 1;
nodes = (
"91 -11 OFFCURVE",
"319 -2 OFFCURVE",
"489 -2 CURVE SMOOTH",
"646 -2 OFFCURVE",
"818 -15 OFFCURVE",
"958 -17 CURVE",
"973 40 OFFCURVE",
"976 315 OFFCURVE",
"965 374 CURVE",
"863 381 OFFCURVE",
"741 381 OFFCURVE",
"629 374 CURVE",
"621 343 OFFCURVE",
"621 311 OFFCURVE",
"629 280 CURVE",
"512 280 LINE",
"512 323 LINE",
"606 323 LINE",
"606 462 LINE",
"513 462 LINE",
"513 504 LINE",
"629 504 LINE",
"621 473 OFFCURVE",
"621 442 OFFCURVE",
"629 411 CURVE",
"733 399 OFFCURVE",
"865 399 OFFCURVE",
"959 411 CURVE",
"979 482 OFFCURVE",
"971 713 OFFCURVE",
"954 776 CURVE",
"803 770 LINE",
"804 788 OFFCURVE",
"805 807 OFFCURVE",
"805 827 CURVE",
"770 845 OFFCURVE",
"678 854 OFFCURVE",
"637 855 CURVE",
"623 834 OFFCURVE",
"600 821 OFFCURVE",
"564 821 CURVE SMOOTH",
"513 821 OFFCURVE",
"457 851 OFFCURVE",
"386 851 CURVE SMOOTH",
"276 851 OFFCURVE",
"221 780 OFFCURVE",
"217 581 CURVE",
"196 614 OFFCURVE",
"189 692 OFFCURVE",
"206 768 CURVE",
"145 769 OFFCURVE",
"74 771 OFFCURVE",
"29 775 CURVE",
"2 712 OFFCURVE",
"2 582 OFFCURVE",
"25 533 CURVE",
"49 532 OFFCURVE",
"91 509 OFFCURVE",
"91 381 CURVE SMOOTH",
"91 263 OFFCURVE",
"57 233 OFFCURVE",
"25 222 CURVE",
"7 165 OFFCURVE",
"10 40 OFFCURVE",
"32 -17 CURVE"
);
}
);
width = 980;
},
{
layerId = "BDCFD595-0135-4C14-B4A6-60502184522E";
paths = (
{
closed = 1;
nodes = (
"241 -166 OFFCURVE",
"469 -157 OFFCURVE",
"639 -157 CURVE SMOOTH",
"796 -157 OFFCURVE",
"968 -170 OFFCURVE",
"1108 -172 CURVE",
"1123 -115 OFFCURVE",
"1126 160 OFFCURVE",
"1115 219 CURVE",
"1082 253 LINE",
"1109 256 LINE",
"1129 327 OFFCURVE",
"1121 558 OFFCURVE",
"1104 621 CURVE",
"954 776 LINE",
"858 772 LINE",
"805 827 LINE",
"770 845 OFFCURVE",
"678 854 OFFCURVE",
"637 855 CURVE",
"623 834 OFFCURVE",
"600 821 OFFCURVE",
"564 821 CURVE SMOOTH",
"513 821 OFFCURVE",
"457 851 OFFCURVE",
"386 851 CURVE SMOOTH",
"312 851 OFFCURVE",
"262 819 OFFCURVE",
"237 736 CURVE",
"206 768 LINE",
"145 769 OFFCURVE",
"74 771 OFFCURVE",
"29 775 CURVE",
"2 712 OFFCURVE",
"2 582 OFFCURVE",
"25 533 CURVE",
"79 477 LINE",
"86 455 OFFCURVE",
"91 424 OFFCURVE",
"91 381 CURVE SMOOTH",
"91 263 OFFCURVE",
"57 233 OFFCURVE",
"25 222 CURVE",
"7 165 OFFCURVE",
"10 40 OFFCURVE",
"32 -17 CURVE",
"182 -172 LINE"
);
}
);
width = 980;
}
);
leftKerningGroup = N;
leftMetricsKey = "=E";
rightKerningGroup = E;
rightMetricsKey = "=E";
unicode = 1EBC;
},
{
color = 4;
glyphname = F;
lastChange = "2017-11-24 10:13:39 +0000";
layers = (
{
layerId = "863809E3-B3D3-4728-B9C6-73F0AB5A9F00";
paths = (
{
closed = 1;
nodes = (
"104 -11 OFFCURVE",
"255 -1 OFFCURVE",
"354 -1 CURVE SMOOTH",
"443 -1 OFFCURVE",
"569 -12 OFFCURVE",
"608 -17 CURVE",
"629 40 OFFCURVE",
"627 195 OFFCURVE",
"609 242 CURVE",
"526 239 OFFCURVE",
"509 253 OFFCURVE",
"509 288 CURVE",
"606 288 LINE",
"606 455 LINE",
"509 455 LINE",
"509 496 LINE",
"628 496 LINE",
"622 445 OFFCURVE",
"622 395 OFFCURVE",
"628 344 CURVE",
"754 328 OFFCURVE",
"875 328 OFFCURVE",
"969 344 CURVE",
"989 411 OFFCURVE",
"981 713 OFFCURVE",
"964 776 CURVE",
"793 769 OFFCURVE",
"611 765 OFFCURVE",
"470 765 CURVE SMOOTH",
"330 765 OFFCURVE",
"85 770 OFFCURVE",
"29 775 CURVE",
"2 712 OFFCURVE",
"2 582 OFFCURVE",
"25 533 CURVE",
"49 532 OFFCURVE",
"91 509 OFFCURVE",
"91 381 CURVE SMOOTH",
"91 263 OFFCURVE",
"56 233 OFFCURVE",
"27 222 CURVE",
"7 165 OFFCURVE",
"11 40 OFFCURVE",
"34 -17 CURVE"
);
}
);
width = 989;
},
{
layerId = "BDCFD595-0135-4C14-B4A6-60502184522E";
paths = (
{
closed = 1;
nodes = (
"254 -166 OFFCURVE",
"405 -156 OFFCURVE",
"504 -156 CURVE SMOOTH",
"593 -156 OFFCURVE",
"719 -167 OFFCURVE",
"758 -172 CURVE",
"779 -115 OFFCURVE",
"777 40 OFFCURVE",
"759 87 CURVE",
"714 133 LINE",
"756 133 LINE",
"756 212 LINE",
"778 189 LINE",
"904 173 OFFCURVE",
"1025 173 OFFCURVE",
"1119 189 CURVE",
"1139 256 OFFCURVE",
"1131 558 OFFCURVE",
"1114 621 CURVE",
"964 776 LINE",
"793 769 OFFCURVE",
"611 765 OFFCURVE",
"470 765 CURVE SMOOTH",
"330 765 OFFCURVE",
"85 770 OFFCURVE",
"29 775 CURVE",
"2 712 OFFCURVE",
"2 582 OFFCURVE",
"25 533 CURVE",
"79 477 LINE",
"86 455 OFFCURVE",
"91 424 OFFCURVE",
"91 381 CURVE SMOOTH",
"91 263 OFFCURVE",
"56 233 OFFCURVE",
"27 222 CURVE",
"7 165 OFFCURVE",
"11 40 OFFCURVE",
"34 -17 CURVE",
"184 -172 LINE"
);
}
);
width = 989;
}
);
leftKerningGroup = N;
rightKerningGroup = F;
unicode = 0046;
},
{
color = 4;
glyphname = G;
lastChange = "2017-11-24 10:13:39 +0000";
layers = (
{
layerId = "863809E3-B3D3-4728-B9C6-73F0AB5A9F00";
paths = (
{
closed = 1;
nodes = (
"635 -24 OFFCURVE",
"801 0 OFFCURVE",
"964 -15 CURVE",
"964 58 OFFCURVE",
"986 136 OFFCURVE",
"1020 138 CURVE",
"1043 187 OFFCURVE",
"1043 339 OFFCURVE",
"1016 392 CURVE",
"951 386 OFFCURVE",
"835 381 OFFCURVE",
"756 381 CURVE SMOOTH",
"634 381 OFFCURVE",
"554 389 OFFCURVE",
"499 394 CURVE",
"490 356 OFFCURVE",
"490 333 OFFCURVE",
"497 301 CURVE",
"531 301 LINE",
"531 265 LINE",
"472 265 LINE",
"472 470 LINE",
"521 470 LINE",
"521 417 LINE",
"649 405 OFFCURVE",
"921 405 OFFCURVE",
"1005 417 CURVE",
"1024 515 OFFCURVE",
"1020 699 OFFCURVE",
"1002 780 CURVE",
"922 780 OFFCURVE",
"763 773 OFFCURVE",
"667 772 CURVE",
"672 719 OFFCURVE",
"684 666 OFFCURVE",
"664 622 CURVE",
"658 755 OFFCURVE",
"567 795 OFFCURVE",
"411 795 CURVE SMOOTH",
"162 795 OFFCURVE",
"10 649 OFFCURVE",
"10 378 CURVE SMOOTH",
"10 102 OFFCURVE",
"171 -24 OFFCURVE",
"486 -24 CURVE SMOOTH"
);
}
);
width = 1045;
},
{
layerId = "BDCFD595-0135-4C14-B4A6-60502184522E";
paths = (
{
closed = 1;
nodes = (
"785 -179 OFFCURVE",
"951 -155 OFFCURVE",
"1114 -170 CURVE",
"1114 -97 OFFCURVE",
"1136 -19 OFFCURVE",
"1170 -17 CURVE",
"1193 32 OFFCURVE",
"1193 184 OFFCURVE",
"1166 237 CURVE",
"1143 260 LINE",
"1148 261 OFFCURVE",
"1151 261 OFFCURVE",
"1155 262 CURVE",
"1174 360 OFFCURVE",
"1170 544 OFFCURVE",
"1152 625 CURVE",
"1002 780 LINE",
"922 780 OFFCURVE",
"763 773 OFFCURVE",
"667 772 CURVE",
"670 741 OFFCURVE",
"675 710 OFFCURVE",
"675 680 CURVE",
"626 731 LINE",
"585 778 OFFCURVE",
"512 795 OFFCURVE",
"411 795 CURVE SMOOTH",
"162 795 OFFCURVE",
"10 649 OFFCURVE",
"10 378 CURVE SMOOTH",
"10 245 OFFCURVE",
"47 147 OFFCURVE",
"121 81 CURVE",
"227 -29 LINE SMOOTH",
"326 -131 OFFCURVE",
"451 -179 OFFCURVE",
"636 -179 CURVE SMOOTH"
);
}
);
width = 1045;
}
);
leftKerningGroup = O;
rightKerningGroup = G;
unicode = 0047;
},
{
color = 5;
glyphname = Gbreve;
lastChange = "2017-11-24 10:13:39 +0000";
layers = (
{
layerId = "863809E3-B3D3-4728-B9C6-73F0AB5A9F00";
paths = (
{
closed = 1;
nodes = (
"635 -24 OFFCURVE",
"801 0 OFFCURVE",
"964 -15 CURVE",
"964 58 OFFCURVE",
"986 136 OFFCURVE",
"1020 138 CURVE",
"1043 187 OFFCURVE",
"1043 339 OFFCURVE",
"1016 392 CURVE",
"951 386 OFFCURVE",
"835 381 OFFCURVE",
"756 381 CURVE SMOOTH",
"634 381 OFFCURVE",
"554 389 OFFCURVE",
"499 394 CURVE",
"490 356 OFFCURVE",
"490 333 OFFCURVE",
"497 301 CURVE",
"531 301 LINE",
"531 265 LINE",
"472 265 LINE",
"472 470 LINE",
"521 470 LINE",
"521 417 LINE",
"649 405 OFFCURVE",
"921 405 OFFCURVE",
"1005 417 CURVE",
"1024 515 OFFCURVE",
"1020 699 OFFCURVE",
"1002 780 CURVE",
"962 780 OFFCURVE",
"905 778 OFFCURVE",
"846 777 CURVE",
"847 799 OFFCURVE",
"845 822 OFFCURVE",
"841 847 CURVE",
"806 865 OFFCURVE",
"714 874 OFFCURVE",
"673 875 CURVE",
"653 845 OFFCURVE",
"612 830 OFFCURVE",
"552 830 CURVE SMOOTH",
"492 830 OFFCURVE",
"452 845 OFFCURVE",
"431 875 CURVE",
"386 874 OFFCURVE",
"288 865 OFFCURVE",
"253 847 CURVE",
"234 731 OFFCURVE",
"278 626 OFFCURVE",
"367 568 CURVE",
"279 590 OFFCURVE",
"228 662 OFFCURVE",
"211 751 CURVE",
"80 689 OFFCURVE",
"10 562 OFFCURVE",
"10 378 CURVE SMOOTH",
"10 102 OFFCURVE",
"171 -24 OFFCURVE",
"486 -24 CURVE SMOOTH"
);
}
);
width = 1045;
},
{
layerId = "BDCFD595-0135-4C14-B4A6-60502184522E";
paths = (
{
closed = 1;
nodes = (
"785 -179 OFFCURVE",
"951 -155 OFFCURVE",
"1114 -170 CURVE",
"1114 -97 OFFCURVE",
"1136 -19 OFFCURVE",
"1170 -17 CURVE",
"1193 32 OFFCURVE",
"1193 184 OFFCURVE",
"1166 237 CURVE",
"1143 260 LINE",
"1148 261 OFFCURVE",
"1151 261 OFFCURVE",
"1155 262 CURVE",
"1174 360 OFFCURVE",
"1170 544 OFFCURVE",
"1152 625 CURVE",
"1002 780 LINE",
"976 780 OFFCURVE",
"943 779 OFFCURVE",
"907 778 CURVE",
"841 847 LINE",
"806 865 OFFCURVE",
"714 874 OFFCURVE",
"673 875 CURVE",
"653 845 OFFCURVE",
"612 830 OFFCURVE",
"552 830 CURVE SMOOTH",
"492 830 OFFCURVE",
"452 845 OFFCURVE",
"431 875 CURVE",
"386 874 OFFCURVE",
"288 865 OFFCURVE",
"253 847 CURVE",
"244 792 OFFCURVE",
"249 740 OFFCURVE",
"266 694 CURVE",
"211 751 LINE",
"80 689 OFFCURVE",
"10 562 OFFCURVE",
"10 378 CURVE SMOOTH",
"10 245 OFFCURVE",
"47 147 OFFCURVE",
"121 81 CURVE",
"227 -29 LINE SMOOTH",
"326 -131 OFFCURVE",
"451 -179 OFFCURVE",
"636 -179 CURVE SMOOTH"
);
}
);
width = 1045;
}
);
leftKerningGroup = O;
leftMetricsKey = "=G";
rightKerningGroup = G;
rightMetricsKey = "=G";
unicode = 011E;
},
{
color = 5;
glyphname = Gcaron;
lastChange = "2017-11-24 10:13:39 +0000";
layers = (
{
layerId = "863809E3-B3D3-4728-B9C6-73F0AB5A9F00";
paths = (
{
closed = 1;
nodes = (
"635 -24 OFFCURVE",
"801 0 OFFCURVE",
"964 -15 CURVE",
"964 58 OFFCURVE",
"986 136 OFFCURVE",
"1020 138 CURVE",
"1043 187 OFFCURVE",
"1043 339 OFFCURVE",
"1016 392 CURVE",
"951 386 OFFCURVE",
"835 381 OFFCURVE",
"756 381 CURVE SMOOTH",
"634 381 OFFCURVE",
"554 389 OFFCURVE",
"499 394 CURVE",
"490 356 OFFCURVE",
"490 333 OFFCURVE",
"497 301 CURVE",
"531 301 LINE",
"531 265 LINE",
"472 265 LINE",
"472 470 LINE",
"521 470 LINE",
"521 417 LINE",
"649 405 OFFCURVE",
"921 405 OFFCURVE",
"1005 417 CURVE",
"1024 515 OFFCURVE",
"1020 699 OFFCURVE",
"1002 780 CURVE",
"961 780 OFFCURVE",
"900 778 OFFCURVE",
"837 776 CURVE",
"840 800 OFFCURVE",
"841 824 OFFCURVE",
"837 847 CURVE",
"802 865 OFFCURVE",
"704 874 OFFCURVE",
"659 875 CURVE",
"606 861 OFFCURVE",
"545 811 OFFCURVE",
"490 748 CURVE",
"465 765 LINE",
"483 785 OFFCURVE",
"501 804 OFFCURVE",
"519 821 CURVE",
"485 846 OFFCURVE",
"446 867 OFFCURVE",
"417 875 CURVE",
"376 874 OFFCURVE",
"284 865 OFFCURVE",
"249 847 CURVE",
"232 738 OFFCURVE",
"297 605 OFFCURVE",
"367 543 CURVE",
"298 567 OFFCURVE",
"223 666 OFFCURVE",
"214 756 CURVE",
"84 696 OFFCURVE",
"10 567 OFFCURVE",
"10 378 CURVE SMOOTH",
"10 102 OFFCURVE",
"171 -24 OFFCURVE",
"486 -24 CURVE SMOOTH"
);
}
);
width = 1045;
},
{
layerId = "BDCFD595-0135-4C14-B4A6-60502184522E";
paths = (
{
closed = 1;
nodes = (
"785 -179 OFFCURVE",
"951 -155 OFFCURVE",
"1114 -170 CURVE",
"1114 -97 OFFCURVE",
"1136 -19 OFFCURVE",
"1170 -17 CURVE",
"1193 32 OFFCURVE",
"1193 184 OFFCURVE",
"1166 237 CURVE",
"1143 260 LINE",
"1148 261 OFFCURVE",
"1151 261 OFFCURVE",
"1155 262 CURVE",
"1174 360 OFFCURVE",
"1170 544 OFFCURVE",
"1152 625 CURVE",
"1002 780 LINE",
"976 780 OFFCURVE",
"941 779 OFFCURVE",
"904 778 CURVE",
"837 847 LINE",
"802 865 OFFCURVE",
"704 874 OFFCURVE",
"659 875 CURVE",
"622 865 OFFCURVE",
"580 837 OFFCURVE",
"540 800 CURVE",
"519 821 LINE",
"485 846 OFFCURVE",
"446 867 OFFCURVE",
"417 875 CURVE",
"376 874 OFFCURVE",
"284 865 OFFCURVE",
"249 847 CURVE",
"242 801 OFFCURVE",
"249 750 OFFCURVE",
"266 703 CURVE",
"214 756 LINE",
"84 696 OFFCURVE",
"10 567 OFFCURVE",
"10 378 CURVE SMOOTH",
"10 245 OFFCURVE",
"47 147 OFFCURVE",
"121 81 CURVE",
"227 -29 LINE SMOOTH",
"326 -131 OFFCURVE",
"451 -179 OFFCURVE",
"636 -179 CURVE SMOOTH"
);
}
);
width = 1045;
}
);
leftKerningGroup = O;
leftMetricsKey = "=G";
rightKerningGroup = G;
rightMetricsKey = "=G";
unicode = 01E6;
},
{
color = 5;
glyphname = Gcircumflex;
lastChange = "2017-11-24 10:13:39 +0000";
layers = (
{
layerId = "863809E3-B3D3-4728-B9C6-73F0AB5A9F00";
paths = (
{
closed = 1;
nodes = (
"635 -24 OFFCURVE",
"801 0 OFFCURVE",
"964 -15 CURVE",
"964 58 OFFCURVE",
"986 136 OFFCURVE",
"1020 138 CURVE",
"1043 187 OFFCURVE",
"1043 339 OFFCURVE",
"1016 392 CURVE",
"951 386 OFFCURVE",
"835 381 OFFCURVE",
"756 381 CURVE SMOOTH",
"634 381 OFFCURVE",
"554 389 OFFCURVE",
"499 394 CURVE",
"490 356 OFFCURVE",
"490 333 OFFCURVE",
"497 301 CURVE",
"531 301 LINE",
"531 265 LINE",
"472 265 LINE",
"472 470 LINE",
"521 470 LINE",
"521 417 LINE",
"649 405 OFFCURVE",
"921 405 OFFCURVE",
"1005 417 CURVE",
"1024 515 OFFCURVE",
"1020 699 OFFCURVE",
"1002 780 CURVE",
"944 780 OFFCURVE",
"846 776 OFFCURVE",
"759 774 CURVE",
"734 814 OFFCURVE",
"704 847 OFFCURVE",
"675 867 CURVE",
"618 877 OFFCURVE",
"451 879 OFFCURVE",
"369 867 CURVE",
"293 815 OFFCURVE",
"237 697 OFFCURVE",
"225 559 CURVE",
"197 599 OFFCURVE",
"211 708 OFFCURVE",
"243 763 CURVE",
"91 703 OFFCURVE",
"10 573 OFFCURVE",
"10 378 CURVE SMOOTH",
"10 102 OFFCURVE",
"171 -24 OFFCURVE",
"486 -24 CURVE SMOOTH"
);
}
);
width = 1045;
},
{
layerId = "BDCFD595-0135-4C14-B4A6-60502184522E";
paths = (
{
closed = 1;
nodes = (
"785 -179 OFFCURVE",
"951 -155 OFFCURVE",
"1114 -170 CURVE",
"1114 -97 OFFCURVE",
"1136 -19 OFFCURVE",
"1170 -17 CURVE",
"1193 32 OFFCURVE",
"1193 184 OFFCURVE",
"1166 237 CURVE",
"1143 260 LINE",
"1148 261 OFFCURVE",
"1151 261 OFFCURVE",
"1155 262 CURVE",
"1174 360 OFFCURVE",
"1170 544 OFFCURVE",
"1152 625 CURVE",
"1002 780 LINE",
"944 780 OFFCURVE",
"846 776 OFFCURVE",
"759 774 CURVE",
"734 814 OFFCURVE",
"704 847 OFFCURVE",
"675 867 CURVE",
"618 877 OFFCURVE",
"451 879 OFFCURVE",
"369 867 CURVE",
"329 840 OFFCURVE",
"294 794 OFFCURVE",
"269 736 CURVE",
"243 763 LINE",
"91 703 OFFCURVE",
"10 573 OFFCURVE",
"10 378 CURVE SMOOTH",
"10 245 OFFCURVE",
"47 147 OFFCURVE",
"121 81 CURVE",
"227 -29 LINE SMOOTH",
"326 -131 OFFCURVE",
"451 -179 OFFCURVE",
"636 -179 CURVE SMOOTH"
);
}
);
width = 1045;
}
);
leftKerningGroup = O;
leftMetricsKey = "=G";
rightKerningGroup = G;
rightMetricsKey = "=G";
unicode = 011C;
},
{
color = 5;
glyphname = Gcommaaccent;
lastChange = "2017-11-24 10:13:39 +0000";
layers = (
{
layerId = "863809E3-B3D3-4728-B9C6-73F0AB5A9F00";
paths = (
{
closed = 1;
nodes = (
"670 -130 OFFCURVE",
"729 -78 OFFCURVE",
"749 -13 CURVE",
"815 -9 OFFCURVE",
"890 -8 OFFCURVE",
"964 -15 CURVE",
"964 58 OFFCURVE",
"986 136 OFFCURVE",
"1020 138 CURVE",
"1043 187 OFFCURVE",
"1043 339 OFFCURVE",
"1016 392 CURVE",
"951 386 OFFCURVE",
"835 381 OFFCURVE",
"756 381 CURVE SMOOTH",
"634 381 OFFCURVE",
"554 389 OFFCURVE",
"499 394 CURVE",
"490 356 OFFCURVE",
"490 333 OFFCURVE",
"497 301 CURVE",
"531 301 LINE",
"531 265 LINE",
"472 265 LINE",
"472 470 LINE",
"521 470 LINE",
"521 417 LINE",
"649 405 OFFCURVE",
"921 405 OFFCURVE",
"1005 417 CURVE",
"1024 515 OFFCURVE",
"1020 699 OFFCURVE",
"1002 780 CURVE",
"922 780 OFFCURVE",
"763 773 OFFCURVE",
"667 772 CURVE",
"672 719 OFFCURVE",
"684 666 OFFCURVE",
"664 622 CURVE",
"658 755 OFFCURVE",
"567 795 OFFCURVE",
"411 795 CURVE SMOOTH",
"162 795 OFFCURVE",
"10 649 OFFCURVE",
"10 378 CURVE SMOOTH",
"10 161 OFFCURVE",
"109 36 OFFCURVE",
"309 -8 CURVE",
"324 24 OFFCURVE",
"326 75 OFFCURVE",
"325 117 CURVE",
"378 -14 OFFCURVE",
"357 -95 OFFCURVE",
"343 -163 CURVE",
"380 -174 OFFCURVE",
"549 -177 OFFCURVE",
"588 -170 CURVE"
);
}
);
width = 1045;
},
{
layerId = "BDCFD595-0135-4C14-B4A6-60502184522E";
paths = (
{
closed = 1;
nodes = (
"820 -285 OFFCURVE",
"879 -233 OFFCURVE",
"899 -168 CURVE",
"965 -164 OFFCURVE",
"1040 -163 OFFCURVE",
"1114 -170 CURVE",
"1114 -97 OFFCURVE",
"1136 -19 OFFCURVE",
"1170 -17 CURVE",
"1193 32 OFFCURVE",
"1193 184 OFFCURVE",
"1166 237 CURVE",
"1143 260 LINE",
"1148 261 OFFCURVE",
"1151 261 OFFCURVE",
"1155 262 CURVE",
"1174 360 OFFCURVE",
"1170 544 OFFCURVE",
"1152 625 CURVE",
"1002 780 LINE",
"922 780 OFFCURVE",
"763 773 OFFCURVE",
"667 772 CURVE",
"670 741 OFFCURVE",
"675 710 OFFCURVE",
"675 680 CURVE",
"626 731 LINE",
"585 778 OFFCURVE",
"512 795 OFFCURVE",
"411 795 CURVE SMOOTH",
"162 795 OFFCURVE",
"10 649 OFFCURVE",
"10 378 CURVE SMOOTH",
"10 245 OFFCURVE",
"47 147 OFFCURVE",
"121 81 CURVE",
"227 -29 LINE SMOOTH",
"264 -67 OFFCURVE",
"305 -98 OFFCURVE",
"351 -121 CURVE",
"349 -136 OFFCURVE",
"345 -150 OFFCURVE",
"343 -163 CURVE",
"493 -318 LINE",
"530 -329 OFFCURVE",
"699 -332 OFFCURVE",
"738 -325 CURVE"
);
}
);
width = 1045;
}
);
leftKerningGroup = O;
leftMetricsKey = "=G";
rightKerningGroup = G;
rightMetricsKey = "=G";
unicode = 0122;
},
{
color = 5;
glyphname = Gdotaccent;
lastChange = "2017-11-24 10:13:39 +0000";
layers = (
{
layerId = "863809E3-B3D3-4728-B9C6-73F0AB5A9F00";
paths = (
{
closed = 1;
nodes = (
"635 -24 OFFCURVE",
"801 0 OFFCURVE",
"964 -15 CURVE",
"964 58 OFFCURVE",
"986 136 OFFCURVE",
"1020 138 CURVE",
"1043 187 OFFCURVE",
"1043 339 OFFCURVE",
"1016 392 CURVE",
"951 386 OFFCURVE",
"835 381 OFFCURVE",
"756 381 CURVE SMOOTH",
"634 381 OFFCURVE",
"554 389 OFFCURVE",
"499 394 CURVE",
"490 356 OFFCURVE",
"490 333 OFFCURVE",
"497 301 CURVE",
"531 301 LINE",
"531 265 LINE",
"472 265 LINE",
"472 470 LINE",
"520 470 LINE",
"521 417 LINE",
"649 405 OFFCURVE",
"921 405 OFFCURVE",
"1005 417 CURVE",
"1024 515 OFFCURVE",
"1020 699 OFFCURVE",
"1002 780 CURVE",
"938 780 OFFCURVE",
"822 775 OFFCURVE",
"745 773 CURVE",
"710 841 OFFCURVE",
"641 876 OFFCURVE",
"534 876 CURVE SMOOTH",
"385 876 OFFCURVE",
"325 788 OFFCURVE",
"325 707 CURVE SMOOTH",
"325 639 OFFCURVE",
"364 583 OFFCURVE",
"419 553 CURVE",
"329 569 OFFCURVE",
"260 647 OFFCURVE",
"291 780 CURVE",
"110 736 OFFCURVE",
"10 598 OFFCURVE",
"10 378 CURVE SMOOTH",
"10 102 OFFCURVE",
"171 -24 OFFCURVE",
"486 -24 CURVE SMOOTH"
);
}
);
width = 1045;
},
{
layerId = "BDCFD595-0135-4C14-B4A6-60502184522E";
paths = (
{
closed = 1;
nodes = (
"785 -179 OFFCURVE",
"951 -155 OFFCURVE",
"1114 -170 CURVE",
"1114 -97 OFFCURVE",
"1136 -19 OFFCURVE",
"1170 -17 CURVE",
"1193 32 OFFCURVE",
"1193 184 OFFCURVE",
"1166 237 CURVE",
"1143 260 LINE",
"1148 261 OFFCURVE",
"1151 261 OFFCURVE",
"1155 262 CURVE",
"1174 360 OFFCURVE",
"1170 544 OFFCURVE",
"1152 625 CURVE",
"1002 780 LINE",
"941 780 OFFCURVE",
"832 775 OFFCURVE",
"755 773 CURVE",
"720 809 LINE",
"681 853 OFFCURVE",
"620 876 OFFCURVE",
"534 876 CURVE SMOOTH",
"406 876 OFFCURVE",
"344 811 OFFCURVE",
"329 741 CURVE",
"291 780 LINE",
"110 736 OFFCURVE",
"10 598 OFFCURVE",
"10 378 CURVE SMOOTH",
"10 245 OFFCURVE",
"47 147 OFFCURVE",
"121 81 CURVE",
"227 -29 LINE SMOOTH",
"326 -131 OFFCURVE",
"451 -179 OFFCURVE",
"636 -179 CURVE SMOOTH"
);
}
);
width = 1045;
}
);
leftKerningGroup = O;
leftMetricsKey = "=G";
rightKerningGroup = G;
rightMetricsKey = "=G";
unicode = 0120;
},
{
color = 4;
glyphname = H;
lastChange = "2017-11-24 10:13:39 +0000";
layers = (
{
layerId = "863809E3-B3D3-4728-B9C6-73F0AB5A9F00";
paths = (
{
closed = 1;
nodes = (
"91 -11 OFFCURVE",
"179 -1 OFFCURVE",
"287 -1 CURVE SMOOTH",
"420 -1 OFFCURVE",
"476 -12 OFFCURVE",
"531 -17 CURVE",
"546 40 OFFCURVE",
"549 175 OFFCURVE",
"538 232 CURVE",
"514 232 LINE",
"514 283 LINE",
"594 283 LINE",
"594 232 LINE",
"569 232 LINE",
"561 175 OFFCURVE",
"564 40 OFFCURVE",
"576 -17 CURVE",
"631 -12 OFFCURVE",
"726 -1 OFFCURVE",
"833 -1 CURVE SMOOTH",
"951 -1 OFFCURVE",
"1025 -12 OFFCURVE",
"1080 -17 CURVE",
"1102 40 OFFCURVE",
"1105 165 OFFCURVE",
"1087 222 CURVE",
"1055 233 OFFCURVE",
"1021 263 OFFCURVE",
"1021 381 CURVE SMOOTH",
"1021 509 OFFCURVE",
"1063 532 OFFCURVE",
"1087 533 CURVE",
"1110 582 OFFCURVE",
"1110 712 OFFCURVE",
"1083 775 CURVE",
"1028 770 OFFCURVE",
"912 761 OFFCURVE",
"833 761 CURVE SMOOTH",
"711 761 OFFCURVE",
"631 770 OFFCURVE",
"576 775 CURVE",
"564 715 OFFCURVE",
"561 575 OFFCURVE",
"569 515 CURVE",
"594 515 LINE",
"594 469 LINE",
"514 469 LINE",
"514 515 LINE",
"538 515 LINE",
"549 575 OFFCURVE",
"546 715 OFFCURVE",
"531 775 CURVE",
"475 770 OFFCURVE",
"401 761 OFFCURVE",
"288 761 CURVE SMOOTH",
"200 761 OFFCURVE",
"84 770 OFFCURVE",
"29 775 CURVE",
"2 712 OFFCURVE",
"2 582 OFFCURVE",
"25 533 CURVE",
"49 532 OFFCURVE",
"91 509 OFFCURVE",
"91 381 CURVE SMOOTH",
"91 263 OFFCURVE",
"57 233 OFFCURVE",
"25 222 CURVE",
"7 165 OFFCURVE",
"10 40 OFFCURVE",
"32 -17 CURVE"
);
}
);
width = 1112;
},
{
layerId = "BDCFD595-0135-4C14-B4A6-60502184522E";
paths = (
{
closed = 1;
nodes = (
"241 -166 OFFCURVE",
"329 -156 OFFCURVE",
"437 -156 CURVE SMOOTH",
"570 -156 OFFCURVE",
"626 -167 OFFCURVE",
"681 -172 CURVE",
"684 -161 OFFCURVE",
"686 -148 OFFCURVE",
"688 -133 CURVE",
"726 -172 LINE",
"781 -167 OFFCURVE",
"876 -156 OFFCURVE",
"983 -156 CURVE SMOOTH",
"1101 -156 OFFCURVE",
"1175 -167 OFFCURVE",
"1230 -172 CURVE",
"1252 -115 OFFCURVE",
"1255 10 OFFCURVE",
"1237 67 CURVE",
"1205 78 OFFCURVE",
"1171 108 OFFCURVE",
"1171 226 CURVE SMOOTH",
"1171 354 OFFCURVE",
"1213 377 OFFCURVE",
"1237 378 CURVE",
"1260 427 OFFCURVE",
"1260 557 OFFCURVE",
"1233 620 CURVE",
"1083 775 LINE",
"1028 770 OFFCURVE",
"912 761 OFFCURVE",
"833 761 CURVE SMOOTH",
"711 761 OFFCURVE",
"631 770 OFFCURVE",
"576 775 CURVE",
"574 764 OFFCURVE",
"572 750 OFFCURVE",
"571 734 CURVE",
"531 775 LINE",
"475 770 OFFCURVE",
"401 761 OFFCURVE",
"288 761 CURVE SMOOTH",
"200 761 OFFCURVE",
"84 770 OFFCURVE",
"29 775 CURVE",
"2 712 OFFCURVE",
"2 582 OFFCURVE",
"25 533 CURVE",
"79 477 LINE",
"86 455 OFFCURVE",
"91 424 OFFCURVE",
"91 381 CURVE SMOOTH",
"91 263 OFFCURVE",
"57 233 OFFCURVE",
"25 222 CURVE",
"7 165 OFFCURVE",
"10 40 OFFCURVE",
"32 -17 CURVE",
"182 -172 LINE"
);
}
);
width = 1112;
}
);
leftKerningGroup = N;
rightKerningGroup = N;
unicode = 0048;
},
{
color = 5;
glyphname = Hbar;
lastChange = "2017-11-24 10:13:39 +0000";
layers = (
{
background = {
paths = (
{
closed = 1;
nodes = (
"447 392 LINE",
"454 435 OFFCURVE",
"453 587 OFFCURVE",
"447 609 CURVE",
"23 609 LINE",
"3 565 OFFCURVE",
"4 436 OFFCURVE",
"23 392 CURVE"
);
}
);
};
layerId = "863809E3-B3D3-4728-B9C6-73F0AB5A9F00";
paths = (
{
closed = 1;
nodes = (
"91 -11 OFFCURVE",
"179 -1 OFFCURVE",
"287 -1 CURVE SMOOTH",
"420 -1 OFFCURVE",
"476 -12 OFFCURVE",
"531 -17 CURVE",
"546 40 OFFCURVE",
"549 175 OFFCURVE",
"538 232 CURVE",
"514 232 LINE",
"514 283 LINE",
"594 283 LINE",
"594 232 LINE",
"569 232 LINE",
"561 175 OFFCURVE",
"564 40 OFFCURVE",
"576 -17 CURVE",
"631 -12 OFFCURVE",
"726 -1 OFFCURVE",
"833 -1 CURVE SMOOTH",
"951 -1 OFFCURVE",
"1025 -12 OFFCURVE",
"1080 -17 CURVE",
"1102 40 OFFCURVE",
"1105 165 OFFCURVE",
"1087 222 CURVE",
"1055 233 OFFCURVE",
"1021 263 OFFCURVE",
"1021 381 CURVE SMOOTH",
"1021 392 LINE",
"1089 392 LINE",
"1112 476 OFFCURVE",
"1107 731 OFFCURVE",
"1083 775 CURVE",
"1028 770 OFFCURVE",
"912 761 OFFCURVE",
"824 761 CURVE SMOOTH",
"702 761 OFFCURVE",
"631 770 OFFCURVE",
"576 775 CURVE",
"569 739 OFFCURVE",
"565 673 OFFCURVE",
"565 609 CURVE",
"545 609 LINE",
"545 673 OFFCURVE",
"540 739 OFFCURVE",
"531 775 CURVE",
"475 770 OFFCURVE",
"401 761 OFFCURVE",
"288 761 CURVE SMOOTH",
"200 761 OFFCURVE",
"84 770 OFFCURVE",
"29 775 CURVE",
"22 759 OFFCURVE",
"17 729 OFFCURVE",
"14 636 CURVE",
"200 636 LINE",
"158 607 OFFCURVE",
"62 609 OFFCURVE",
"23 609 CURVE",
"3 565 OFFCURVE",
"4 436 OFFCURVE",
"23 392 CURVE",
"91 392 LINE",
"91 381 LINE SMOOTH",
"91 263 OFFCURVE",
"57 233 OFFCURVE",
"25 222 CURVE",
"7 165 OFFCURVE",
"10 40 OFFCURVE",
"32 -17 CURVE"
);
},
{
closed = 1;
nodes = (
"514 497 LINE",
"594 497 LINE",
"594 451 LINE",
"514 451 LINE"
);
}
);
width = 1112;
},
{
background = {
paths = (
{
closed = 1;
nodes = (
"447 392 LINE",
"454 435 OFFCURVE",
"453 587 OFFCURVE",
"447 609 CURVE",
"23 609 LINE",
"3 565 OFFCURVE",
"4 436 OFFCURVE",
"23 392 CURVE"
);
}
);
};
layerId = "BDCFD595-0135-4C14-B4A6-60502184522E";
paths = (
{
closed = 1;
nodes = (
"241 -166 OFFCURVE",
"329 -156 OFFCURVE",
"437 -156 CURVE SMOOTH",
"570 -156 OFFCURVE",
"626 -167 OFFCURVE",
"681 -172 CURVE",
"684 -161 OFFCURVE",
"686 -148 OFFCURVE",
"688 -133 CURVE",
"726 -172 LINE",
"781 -167 OFFCURVE",
"876 -156 OFFCURVE",
"983 -156 CURVE SMOOTH",
"1101 -156 OFFCURVE",
"1175 -167 OFFCURVE",
"1230 -172 CURVE",
"1252 -115 OFFCURVE",
"1255 10 OFFCURVE",
"1237 67 CURVE",
"1186 120 LINE",
"1177 143 OFFCURVE",
"1171 177 OFFCURVE",
"1171 226 CURVE SMOOTH",
"1171 237 LINE",
"1239 237 LINE",
"1262 321 OFFCURVE",
"1257 576 OFFCURVE",
"1233 620 CURVE",
"1083 775 LINE",
"1028 770 OFFCURVE",
"912 761 OFFCURVE",
"824 761 CURVE SMOOTH",
"702 761 OFFCURVE",
"631 770 OFFCURVE",
"576 775 CURVE",
"574 764 OFFCURVE",
"572 750 OFFCURVE",
"570 734 CURVE",
"531 775 LINE",
"475 770 OFFCURVE",
"401 761 OFFCURVE",
"288 761 CURVE SMOOTH",
"200 761 OFFCURVE",
"84 770 OFFCURVE",
"29 775 CURVE",
"22 759 OFFCURVE",
"17 729 OFFCURVE",
"14 636 CURVE",
"40 609 LINE",
"23 609 LINE",
"3 565 OFFCURVE",
"4 436 OFFCURVE",
"23 392 CURVE",
"88 325 LINE",
"79 253 OFFCURVE",
"51 231 OFFCURVE",
"25 222 CURVE",
"7 165 OFFCURVE",
"10 40 OFFCURVE",
"32 -17 CURVE",
"182 -172 LINE"
);
}
);
width = 1112;
}
);
leftKerningGroup = Hbar;
leftMetricsKey = "=H";
rightKerningGroup = Hbar;
rightMetricsKey = "=H";
unicode = 0126;
},
{
color = 5;
glyphname = Hcircumflex;
lastChange = "2017-11-24 10:13:39 +0000";
layers = (
{
layerId = "863809E3-B3D3-4728-B9C6-73F0AB5A9F00";
paths = (
{
closed = 1;
nodes = (
"1021 509 OFFCURVE",
"1063 532 OFFCURVE",
"1087 533 CURVE",
"1110 582 OFFCURVE",
"1110 712 OFFCURVE",
"1083 775 CURVE",
"1028 770 OFFCURVE",
"912 761 OFFCURVE",
"833 761 CURVE SMOOTH",
"797 761 LINE",
"765 814 OFFCURVE",
"734 847 OFFCURVE",
"706 867 CURVE",
"653 877 OFFCURVE",
"486 879 OFFCURVE",
"404 867 CURVE",
"341 824 OFFCURVE",
"281 728 OFFCURVE",
"267 624 CURVE",
"257 671 OFFCURVE",
"260 725 OFFCURVE",
"276 761 CURVE",
"190 762 OFFCURVE",
"82 770 OFFCURVE",
"29 775 CURVE",
"2 712 OFFCURVE",
"2 582 OFFCURVE",
"25 533 CURVE",
"49 532 OFFCURVE",
"91 509 OFFCURVE",
"91 381 CURVE SMOOTH",
"91 263 OFFCURVE",
"57 233 OFFCURVE",
"25 222 CURVE",
"7 165 OFFCURVE",
"10 40 OFFCURVE",
"32 -17 CURVE",
"91 -11 OFFCURVE",
"179 -1 OFFCURVE",
"287 -1 CURVE SMOOTH",
"420 -1 OFFCURVE",
"476 -12 OFFCURVE",
"531 -17 CURVE",
"546 40 OFFCURVE",
"549 175 OFFCURVE",
"538 232 CURVE",
"514 232 LINE",
"514 283 LINE",
"594 283 LINE",
"594 232 LINE",
"569 232 LINE",
"561 175 OFFCURVE",
"564 40 OFFCURVE",
"576 -17 CURVE",
"631 -12 OFFCURVE",
"726 -1 OFFCURVE",
"833 -1 CURVE SMOOTH",
"951 -1 OFFCURVE",
"1025 -12 OFFCURVE",
"1080 -17 CURVE",
"1102 40 OFFCURVE",
"1105 165 OFFCURVE",
"1087 222 CURVE",
"1055 233 OFFCURVE",
"1021 263 OFFCURVE",
"1021 381 CURVE SMOOTH"
);
},
{
closed = 1;
nodes = (
"514 451 LINE",
"514 507 LINE",
"594 507 LINE",
"594 451 LINE"
);
}
);
width = 1112;
},
{
layerId = "BDCFD595-0135-4C14-B4A6-60502184522E";
paths = (
{
closed = 1;
nodes = (
"241 -166 OFFCURVE",
"329 -156 OFFCURVE",
"437 -156 CURVE SMOOTH",
"570 -156 OFFCURVE",
"626 -167 OFFCURVE",
"681 -172 CURVE",
"684 -161 OFFCURVE",
"686 -148 OFFCURVE",
"688 -133 CURVE",
"726 -172 LINE",
"781 -167 OFFCURVE",
"876 -156 OFFCURVE",
"983 -156 CURVE SMOOTH",
"1101 -156 OFFCURVE",
"1175 -167 OFFCURVE",
"1230 -172 CURVE",
"1252 -115 OFFCURVE",
"1255 10 OFFCURVE",
"1237 67 CURVE",
"1205 78 OFFCURVE",
"1171 108 OFFCURVE",
"1171 226 CURVE SMOOTH",
"1171 354 OFFCURVE",
"1213 377 OFFCURVE",
"1237 378 CURVE",
"1260 427 OFFCURVE",
"1260 557 OFFCURVE",
"1233 620 CURVE",
"1083 775 LINE",
"1028 770 OFFCURVE",
"912 761 OFFCURVE",
"833 761 CURVE SMOOTH",
"797 761 LINE",
"765 814 OFFCURVE",
"734 847 OFFCURVE",
"706 867 CURVE",
"653 877 OFFCURVE",
"486 879 OFFCURVE",
"404 867 CURVE",
"365 840 OFFCURVE",
"327 793 OFFCURVE",
"300 736 CURVE",
"276 761 LINE",
"190 762 OFFCURVE",
"82 770 OFFCURVE",
"29 775 CURVE",
"2 712 OFFCURVE",
"2 582 OFFCURVE",
"25 533 CURVE",
"79 477 LINE",
"86 455 OFFCURVE",
"91 424 OFFCURVE",
"91 381 CURVE SMOOTH",
"91 263 OFFCURVE",
"57 233 OFFCURVE",
"25 222 CURVE",
"7 165 OFFCURVE",
"10 40 OFFCURVE",
"32 -17 CURVE",
"182 -172 LINE"
);
}
);
width = 1112;
}
);
leftKerningGroup = N;
leftMetricsKey = "=H";
rightKerningGroup = N;
rightMetricsKey = "=H";
unicode = 0124;
},
{
color = 4;
glyphname = I;
lastChange = "2017-11-24 10:13:39 +0000";
layers = (
{
layerId = "863809E3-B3D3-4728-B9C6-73F0AB5A9F00";
paths = (
{
closed = 1;
nodes = (
"93 -12 OFFCURVE",
"209 -1 OFFCURVE",
"301 -1 CURVE SMOOTH",
"400 -1 OFFCURVE",
"521 -12 OFFCURVE",
"581 -17 CURVE",
"604 40 OFFCURVE",
"608 165 OFFCURVE",
"588 222 CURVE",
"558 233 OFFCURVE",
"522 263 OFFCURVE",
"522 381 CURVE SMOOTH",
"522 509 OFFCURVE",
"557 531 OFFCURVE",
"587 532 CURVE",
"610 581 OFFCURVE",
"611 712 OFFCURVE",
"584 775 CURVE",
"524 770 OFFCURVE",
"403 760 OFFCURVE",
"304 760 CURVE SMOOTH",
"213 760 OFFCURVE",
"90 770 OFFCURVE",
"30 775 CURVE",
"1 712 OFFCURVE",
"1 582 OFFCURVE",
"26 533 CURVE",
"47 532 OFFCURVE",
"92 509 OFFCURVE",
"92 381 CURVE SMOOTH",
"92 263 OFFCURVE",
"56 233 OFFCURVE",
"26 222 CURVE",
"6 165 OFFCURVE",
"10 40 OFFCURVE",
"33 -17 CURVE"
);
}
);
width = 612;
},
{
layerId = "BDCFD595-0135-4C14-B4A6-60502184522E";
paths = (
{
closed = 1;
nodes = (
"243 -167 OFFCURVE",
"359 -156 OFFCURVE",
"451 -156 CURVE SMOOTH",
"550 -156 OFFCURVE",
"671 -167 OFFCURVE",
"731 -172 CURVE",
"754 -115 OFFCURVE",
"758 10 OFFCURVE",
"738 67 CURVE",
"708 78 OFFCURVE",
"672 108 OFFCURVE",
"672 226 CURVE SMOOTH",
"672 354 OFFCURVE",
"707 376 OFFCURVE",
"737 377 CURVE",
"760 426 OFFCURVE",
"761 557 OFFCURVE",
"734 620 CURVE",
"584 775 LINE",
"524 770 OFFCURVE",
"403 760 OFFCURVE",
"304 760 CURVE SMOOTH",
"213 760 OFFCURVE",
"90 770 OFFCURVE",
"30 775 CURVE",
"1 712 OFFCURVE",
"1 582 OFFCURVE",
"26 533 CURVE",
"79 478 LINE",
"87 455 OFFCURVE",
"92 424 OFFCURVE",
"92 381 CURVE SMOOTH",
"92 263 OFFCURVE",
"56 233 OFFCURVE",
"26 222 CURVE",
"6 165 OFFCURVE",
"10 40 OFFCURVE",
"33 -17 CURVE",
"183 -172 LINE"
);
}
);
width = 612;
}
);
leftKerningGroup = N;
rightKerningGroup = N;
unicode = 0049;
},
{
color = 5;
glyphname = IJ;
lastChange = "2017-11-24 10:13:39 +0000";
layers = (
{
layerId = "863809E3-B3D3-4728-B9C6-73F0AB5A9F00";
paths = (
{
closed = 1;
nodes = (
"93 -12 OFFCURVE",
"209 -1 OFFCURVE",
"301 -1 CURVE SMOOTH",
"400 -1 OFFCURVE",
"521 -12 OFFCURVE",
"581 -17 CURVE",
"604 40 OFFCURVE",
"608 165 OFFCURVE",
"588 222 CURVE",
"558 233 OFFCURVE",
"522 263 OFFCURVE",
"522 381 CURVE SMOOTH",
"522 509 OFFCURVE",
"557 531 OFFCURVE",
"587 532 CURVE",
"610 581 OFFCURVE",
"611 712 OFFCURVE",
"584 775 CURVE",
"524 770 OFFCURVE",
"403 760 OFFCURVE",
"304 760 CURVE SMOOTH",
"213 760 OFFCURVE",
"90 770 OFFCURVE",
"30 775 CURVE",
"1 712 OFFCURVE",
"1 582 OFFCURVE",
"26 533 CURVE",
"47 532 OFFCURVE",
"92 509 OFFCURVE",
"92 381 CURVE SMOOTH",
"92 263 OFFCURVE",
"56 233 OFFCURVE",
"26 222 CURVE",
"6 165 OFFCURVE",
"10 40 OFFCURVE",
"33 -17 CURVE"
);
},
{
closed = 1;
nodes = (
"1258 -34 OFFCURVE",
"1411 47 OFFCURVE",
"1411 252 CURVE SMOOTH",
"1411 301 OFFCURVE",
"1398 357 OFFCURVE",
"1398 420 CURVE SMOOTH",
"1398 517 OFFCURVE",
"1433 531 OFFCURVE",
"1463 532 CURVE",
"1486 581 OFFCURVE",
"1487 712 OFFCURVE",
"1460 775 CURVE",
"1400 770 OFFCURVE",
"1279 760 OFFCURVE",
"1170 760 CURVE SMOOTH",
"1079 760 OFFCURVE",
"946 763 OFFCURVE",
"724 775 CURVE",
"695 712 OFFCURVE",
"695 582 OFFCURVE",
"720 533 CURVE",
"912 533 OFFCURVE",
"1021 427 OFFCURVE",
"1041 278 CURVE",
"1014 273 LINE",
"982 450 OFFCURVE",
"886 459 OFFCURVE",
"818 459 CURVE SMOOTH",
"674 459 OFFCURVE",
"615 360 OFFCURVE",
"615 251 CURVE SMOOTH",
"615 71 OFFCURVE",
"756 -34 OFFCURVE",
"1010 -34 CURVE SMOOTH"
);
}
);
width = 1488;
},
{
layerId = "BDCFD595-0135-4C14-B4A6-60502184522E";
paths = (
{
closed = 1;
nodes = (
"1408 -189 OFFCURVE",
"1561 -108 OFFCURVE",
"1561 97 CURVE SMOOTH",
"1561 146 OFFCURVE",
"1548 202 OFFCURVE",
"1548 265 CURVE SMOOTH",
"1548 362 OFFCURVE",
"1583 376 OFFCURVE",
"1613 377 CURVE",
"1636 426 OFFCURVE",
"1637 557 OFFCURVE",
"1610 620 CURVE",
"1460 775 LINE",
"1400 770 OFFCURVE",
"1279 760 OFFCURVE",
"1170 760 CURVE SMOOTH",
"1079 760 OFFCURVE",
"946 763 OFFCURVE",
"724 775 CURVE",
"710 745 OFFCURVE",
"703 698 OFFCURVE",
"702 653 CURVE",
"584 775 LINE",
"524 770 OFFCURVE",
"403 760 OFFCURVE",
"304 760 CURVE SMOOTH",
"213 760 OFFCURVE",
"90 770 OFFCURVE",
"30 775 CURVE",
"1 712 OFFCURVE",
"1 582 OFFCURVE",
"26 533 CURVE",
"79 478 LINE",
"87 455 OFFCURVE",
"92 424 OFFCURVE",
"92 381 CURVE SMOOTH",
"92 263 OFFCURVE",
"56 233 OFFCURVE",
"26 222 CURVE",
"6 165 OFFCURVE",
"10 40 OFFCURVE",
"33 -17 CURVE",
"183 -172 LINE",
"243 -167 OFFCURVE",
"359 -156 OFFCURVE",
"451 -156 CURVE SMOOTH",
"550 -156 OFFCURVE",
"671 -167 OFFCURVE",
"731 -172 CURVE",
"747 -133 OFFCURVE",
"754 -61 OFFCURVE",
"750 -1 CURVE",
"770 -21 OFFCURVE",
"794 -46 OFFCURVE",
"824 -75 CURVE SMOOTH",
"895 -144 OFFCURVE",
"1003 -189 OFFCURVE",
"1160 -189 CURVE SMOOTH"
);
},
{
closed = 1;
nodes = (
"754 466 OFFCURVE",
"754 482 OFFCURVE",
"754 498 CURVE",
"793 458 LINE",
"779 457 OFFCURVE",
"765 454 OFFCURVE",
"753 451 CURVE"
);
}
);
width = 1488;
}
);
leftKerningGroup = N;
note = IJ;
rightKerningGroup = U;
rightMetricsKey = "=J";
unicode = 0132;
},
{
color = 5;
glyphname = Iacute;
lastChange = "2017-11-24 10:13:39 +0000";
layers = (
{
layerId = "863809E3-B3D3-4728-B9C6-73F0AB5A9F00";
paths = (
{
closed = 1;
nodes = (
"93 -12 OFFCURVE",
"209 -1 OFFCURVE",
"301 -1 CURVE SMOOTH",
"400 -1 OFFCURVE",
"521 -12 OFFCURVE",
"581 -17 CURVE",
"604 40 OFFCURVE",
"608 165 OFFCURVE",
"588 222 CURVE",
"558 233 OFFCURVE",
"522 263 OFFCURVE",
"522 381 CURVE SMOOTH",
"522 509 OFFCURVE",
"557 531 OFFCURVE",
"587 532 CURVE",
"610 581 OFFCURVE",
"611 712 OFFCURVE",
"584 775 CURVE",
"537 772 LINE",
"541 784 OFFCURVE",
"544 794 OFFCURVE",
"545 803 CURVE",
"495 866 OFFCURVE",
"285 904 OFFCURVE",
"163 854 CURVE",
"88 748 OFFCURVE",
"86 615 OFFCURVE",
"144 546 CURVE",
"61 586 OFFCURVE",
"63 694 OFFCURVE",
"82 770 CURVE",
"62 772 OFFCURVE",
"47 774 OFFCURVE",
"30 775 CURVE",
"1 712 OFFCURVE",
"1 582 OFFCURVE",
"26 533 CURVE",
"47 532 OFFCURVE",
"92 509 OFFCURVE",
"92 381 CURVE SMOOTH",
"92 263 OFFCURVE",
"56 233 OFFCURVE",
"26 222 CURVE",
"6 165 OFFCURVE",
"10 40 OFFCURVE",
"33 -17 CURVE"
);
}
);
width = 612;
},
{
layerId = "BDCFD595-0135-4C14-B4A6-60502184522E";
paths = (
{
closed = 1;
nodes = (
"243 -167 OFFCURVE",
"359 -156 OFFCURVE",
"451 -156 CURVE SMOOTH",
"550 -156 OFFCURVE",
"671 -167 OFFCURVE",
"731 -172 CURVE",
"754 -115 OFFCURVE",
"758 10 OFFCURVE",
"738 67 CURVE",
"708 78 OFFCURVE",
"672 108 OFFCURVE",
"672 226 CURVE SMOOTH",
"672 354 OFFCURVE",
"707 376 OFFCURVE",
"737 377 CURVE",
"760 426 OFFCURVE",
"761 557 OFFCURVE",
"734 620 CURVE",
"584 775 LINE",
"573 774 LINE",
"545 803 LINE",
"495 866 OFFCURVE",
"285 904 OFFCURVE",
"163 854 CURVE",
"137 818 OFFCURVE",
"120 779 OFFCURVE",
"111 740 CURVE",
"82 770 LINE",
"62 772 OFFCURVE",
"47 774 OFFCURVE",
"30 775 CURVE",
"1 712 OFFCURVE",
"1 582 OFFCURVE",
"26 533 CURVE",
"79 478 LINE",
"87 455 OFFCURVE",
"92 424 OFFCURVE",
"92 381 CURVE SMOOTH",
"92 263 OFFCURVE",
"56 233 OFFCURVE",
"26 222 CURVE",
"6 165 OFFCURVE",
"10 40 OFFCURVE",
"33 -17 CURVE",
"183 -172 LINE"
);
}
);
width = 612;
}
);
leftKerningGroup = N;
leftMetricsKey = "=I";
rightKerningGroup = N;
rightMetricsKey = "=I";
unicode = 00CD;
},
{
color = 5;
glyphname = Ibreve;
lastChange = "2017-11-24 10:13:39 +0000";
layers = (
{
layerId = "863809E3-B3D3-4728-B9C6-73F0AB5A9F00";
paths = (
{
closed = 1;
nodes = (
"94 -12 OFFCURVE",
"210 -1 OFFCURVE",
"302 -1 CURVE SMOOTH",
"401 -1 OFFCURVE",
"522 -12 OFFCURVE",
"582 -17 CURVE",
"605 40 OFFCURVE",
"609 165 OFFCURVE",
"589 222 CURVE",
"559 233 OFFCURVE",
"523 263 OFFCURVE",
"523 381 CURVE SMOOTH",
"523 509 OFFCURVE",
"558 531 OFFCURVE",
"588 532 CURVE",
"607 573 OFFCURVE",
"610 682 OFFCURVE",
"603 785 CURVE",
"603 804 OFFCURVE",
"601 825 OFFCURVE",
"598 847 CURVE",
"563 865 OFFCURVE",
"473 874 OFFCURVE",
"432 875 CURVE",
"412 845 OFFCURVE",
"371 830 OFFCURVE",
"311 830 CURVE SMOOTH",
"251 830 OFFCURVE",
"211 845 OFFCURVE",
"190 875 CURVE",
"145 874 OFFCURVE",
"47 865 OFFCURVE",
"12 847 CURVE",
"-7 727 OFFCURVE",
"45 618 OFFCURVE",
"140 562 CURVE",
"80 581 OFFCURVE",
"36 613 OFFCURVE",
"9 655 CURVE",
"7 611 OFFCURVE",
"13 560 OFFCURVE",
"27 533 CURVE",
"48 532 OFFCURVE",
"93 509 OFFCURVE",
"93 381 CURVE SMOOTH",
"93 263 OFFCURVE",
"57 233 OFFCURVE",
"27 222 CURVE",
"7 165 OFFCURVE",
"11 40 OFFCURVE",
"34 -17 CURVE"
);
}
);
width = 614;
},
{
layerId = "BDCFD595-0135-4C14-B4A6-60502184522E";
paths = (
{
closed = 1;
nodes = (
"244 -167 OFFCURVE",
"360 -156 OFFCURVE",
"452 -156 CURVE SMOOTH",
"551 -156 OFFCURVE",
"672 -167 OFFCURVE",
"732 -172 CURVE",
"755 -115 OFFCURVE",
"759 10 OFFCURVE",
"739 67 CURVE",
"709 78 OFFCURVE",
"673 108 OFFCURVE",
"673 226 CURVE SMOOTH",
"673 354 OFFCURVE",
"708 376 OFFCURVE",
"738 377 CURVE",
"757 418 OFFCURVE",
"760 527 OFFCURVE",
"753 630 CURVE",
"753 649 OFFCURVE",
"751 670 OFFCURVE",
"748 692 CURVE",
"598 847 LINE",
"563 865 OFFCURVE",
"473 874 OFFCURVE",
"432 875 CURVE",
"412 845 OFFCURVE",
"371 830 OFFCURVE",
"311 830 CURVE SMOOTH",
"251 830 OFFCURVE",
"211 845 OFFCURVE",
"190 875 CURVE",
"145 874 OFFCURVE",
"47 865 OFFCURVE",
"12 847 CURVE",
"-7 727 OFFCURVE",
"45 618 OFFCURVE",
"140 562 CURVE",
"80 581 OFFCURVE",
"36 613 OFFCURVE",
"9 655 CURVE",
"7 611 OFFCURVE",
"13 560 OFFCURVE",
"27 533 CURVE",
"80 478 LINE",
"88 455 OFFCURVE",
"93 424 OFFCURVE",
"93 381 CURVE SMOOTH",
"93 263 OFFCURVE",
"57 233 OFFCURVE",
"27 222 CURVE",
"7 165 OFFCURVE",
"11 40 OFFCURVE",
"34 -17 CURVE",
"184 -172 LINE"
);
}
);
width = 614;
}
);
leftKerningGroup = N;
leftMetricsKey = "=I";
rightKerningGroup = N;
rightMetricsKey = "=I";
unicode = 012C;
},
{
color = 5;
glyphname = Icircumflex;
lastChange = "2017-11-24 10:13:39 +0000";
layers = (
{
layerId = "863809E3-B3D3-4728-B9C6-73F0AB5A9F00";
paths = (
{
closed = 1;
nodes = (
"93 -12 OFFCURVE",
"209 -1 OFFCURVE",
"301 -1 CURVE SMOOTH",
"400 -1 OFFCURVE",
"521 -12 OFFCURVE",
"581 -17 CURVE",
"604 40 OFFCURVE",
"608 165 OFFCURVE",
"588 222 CURVE",
"558 233 OFFCURVE",
"522 263 OFFCURVE",
"522 381 CURVE SMOOTH",
"522 509 OFFCURVE",
"557 531 OFFCURVE",
"587 532 CURVE",
"595 548 OFFCURVE",
"600 574 OFFCURVE",
"600 602 CURVE SMOOTH",
"600 703 OFFCURVE",
"524 821 OFFCURVE",
"462 867 CURVE",
"407 877 OFFCURVE",
"233 879 OFFCURVE",
"147 867 CURVE",
"68 815 OFFCURVE",
"0 687 OFFCURVE",
"9 549 CURVE",
"45 531 OFFCURVE",
"136 520 OFFCURVE",
"178 519 CURVE",
"148 502 OFFCURVE",
"105 501 OFFCURVE",
"66 505 CURVE",
"81 483 OFFCURVE",
"92 446 OFFCURVE",
"92 381 CURVE SMOOTH",
"92 263 OFFCURVE",
"56 233 OFFCURVE",
"26 222 CURVE",
"6 165 OFFCURVE",
"10 40 OFFCURVE",
"33 -17 CURVE"
);
}
);
width = 609;
},
{
layerId = "BDCFD595-0135-4C14-B4A6-60502184522E";
paths = (
{
closed = 1;
nodes = (
"243 -167 OFFCURVE",
"359 -156 OFFCURVE",
"451 -156 CURVE SMOOTH",
"550 -156 OFFCURVE",
"671 -167 OFFCURVE",
"731 -172 CURVE",
"754 -115 OFFCURVE",
"758 10 OFFCURVE",
"738 67 CURVE",
"708 78 OFFCURVE",
"672 108 OFFCURVE",
"672 226 CURVE SMOOTH",
"672 354 OFFCURVE",
"707 376 OFFCURVE",
"737 377 CURVE",
"745 393 OFFCURVE",
"750 419 OFFCURVE",
"750 447 CURVE SMOOTH",
"750 543 OFFCURVE",
"678 646 OFFCURVE",
"612 714 CURVE SMOOTH",
"511 819 LINE",
"495 838 OFFCURVE",
"478 854 OFFCURVE",
"462 867 CURVE",
"407 876 OFFCURVE",
"233 879 OFFCURVE",
"147 867 CURVE",
"68 815 OFFCURVE",
"0 687 OFFCURVE",
"9 549 CURVE",
"80 476 LINE",
"87 453 OFFCURVE",
"92 423 OFFCURVE",
"92 381 CURVE SMOOTH",
"92 263 OFFCURVE",
"56 233 OFFCURVE",
"26 222 CURVE",
"6 165 OFFCURVE",
"10 40 OFFCURVE",
"33 -17 CURVE",
"183 -172 LINE"
);
}
);
width = 609;
}
);
leftKerningGroup = N;
leftMetricsKey = "=I";
rightKerningGroup = N;
rightMetricsKey = "=I";
unicode = 00CE;
},
{
color = 5;
glyphname = Idieresis;
lastChange = "2017-11-24 10:13:39 +0000";
layers = (
{
layerId = "863809E3-B3D3-4728-B9C6-73F0AB5A9F00";
paths = (
{
closed = 1;
nodes = (
"93 -12 OFFCURVE",
"209 -1 OFFCURVE",
"301 -1 CURVE SMOOTH",
"400 -1 OFFCURVE",
"521 -12 OFFCURVE",
"581 -17 CURVE",
"604 40 OFFCURVE",
"608 165 OFFCURVE",
"588 222 CURVE",
"558 233 OFFCURVE",
"522 263 OFFCURVE",
"522 381 CURVE SMOOTH",
"522 509 OFFCURVE",
"557 531 OFFCURVE",
"587 532 CURVE",
"598 556 OFFCURVE",
"604 600 OFFCURVE",
"604 666 CURVE SMOOTH",
"604 773 OFFCURVE",
"545 876 OFFCURVE",
"407 876 CURVE SMOOTH",
"301 876 OFFCURVE",
"245 822 OFFCURVE",
"225 760 CURVE",
"218 795 OFFCURVE",
"231 838 OFFCURVE",
"275 867 CURVE",
"252 873 OFFCURVE",
"226 876 OFFCURVE",
"201 876 CURVE SMOOTH",
"93 876 OFFCURVE",
"8 811 OFFCURVE",
"8 703 CURVE SMOOTH",
"8 598 OFFCURVE",
"101 525 OFFCURVE",
"212 537 CURVE",
"167 521 OFFCURVE",
"100 521 OFFCURVE",
"54 535 CURVE",
"73 503 OFFCURVE",
"92 456 OFFCURVE",
"92 381 CURVE SMOOTH",
"92 263 OFFCURVE",
"56 233 OFFCURVE",
"26 222 CURVE",
"6 165 OFFCURVE",
"10 40 OFFCURVE",
"33 -17 CURVE"
);
}
);
width = 612;
},
{
layerId = "BDCFD595-0135-4C14-B4A6-60502184522E";
paths = (
{
closed = 1;
nodes = (
"243 -167 OFFCURVE",
"359 -156 OFFCURVE",
"451 -156 CURVE SMOOTH",
"550 -156 OFFCURVE",
"671 -167 OFFCURVE",
"731 -172 CURVE",
"754 -115 OFFCURVE",
"758 10 OFFCURVE",
"738 67 CURVE",
"708 78 OFFCURVE",
"672 108 OFFCURVE",
"672 226 CURVE SMOOTH",
"672 354 OFFCURVE",
"707 376 OFFCURVE",
"737 377 CURVE",
"748 401 OFFCURVE",
"754 445 OFFCURVE",
"754 511 CURVE SMOOTH",
"754 566 OFFCURVE",
"739 621 OFFCURVE",
"693 670 CURVE SMOOTH",
"555 814 LINE SMOOTH",
"520 852 OFFCURVE",
"475 876 OFFCURVE",
"407 876 CURVE SMOOTH",
"360 876 OFFCURVE",
"322 865 OFFCURVE",
"294 848 CURVE",
"275 867 LINE",
"252 873 OFFCURVE",
"226 876 OFFCURVE",
"201 876 CURVE SMOOTH",
"93 876 OFFCURVE",
"8 811 OFFCURVE",
"8 703 CURVE SMOOTH",
"8 654 OFFCURVE",
"30 614 OFFCURVE",
"55 589 CURVE SMOOTH",
"117 525 LINE",
"94 526 OFFCURVE",
"72 529 OFFCURVE",
"54 535 CURVE",
"73 503 OFFCURVE",
"92 456 OFFCURVE",
"92 381 CURVE SMOOTH",
"92 263 OFFCURVE",
"56 233 OFFCURVE",
"26 222 CURVE",
"6 165 OFFCURVE",
"10 40 OFFCURVE",
"33 -17 CURVE",
"183 -172 LINE"
);
}
);
width = 612;
}
);
leftKerningGroup = N;
leftMetricsKey = "=I";
rightKerningGroup = N;
rightMetricsKey = "=I";
unicode = 00CF;
},
{
color = 5;
glyphname = Idotaccent;
lastChange = "2017-11-24 10:13:39 +0000";
layers = (
{
layerId = "863809E3-B3D3-4728-B9C6-73F0AB5A9F00";
paths = (
{
closed = 1;
nodes = (
"93 -12 OFFCURVE",
"209 -1 OFFCURVE",
"301 -1 CURVE SMOOTH",
"400 -1 OFFCURVE",
"521 -12 OFFCURVE",
"581 -17 CURVE",
"604 40 OFFCURVE",
"608 165 OFFCURVE",
"588 222 CURVE",
"558 233 OFFCURVE",
"522 263 OFFCURVE",
"522 381 CURVE SMOOTH",
"522 509 OFFCURVE",
"557 531 OFFCURVE",
"587 532 CURVE",
"610 581 OFFCURVE",
"611 712 OFFCURVE",
"584 775 CURVE",
"566 774 OFFCURVE",
"548 772 OFFCURVE",
"526 770 CURVE",
"493 840 OFFCURVE",
"425 876 OFFCURVE",
"311 876 CURVE SMOOTH",
"155 876 OFFCURVE",
"102 788 OFFCURVE",
"102 707 CURVE SMOOTH",
"102 642 OFFCURVE",
"137 588 OFFCURVE",
"189 557 CURVE",
"99 571 OFFCURVE",
"44 650 OFFCURVE",
"73 772 CURVE",
"52 773 OFFCURVE",
"40 774 OFFCURVE",
"30 775 CURVE",
"1 712 OFFCURVE",
"1 582 OFFCURVE",
"26 533 CURVE",
"47 532 OFFCURVE",
"92 509 OFFCURVE",
"92 381 CURVE SMOOTH",
"92 263 OFFCURVE",
"56 233 OFFCURVE",
"26 222 CURVE",
"6 165 OFFCURVE",
"10 40 OFFCURVE",
"33 -17 CURVE"
);
}
);
width = 612;
},
{
layerId = "BDCFD595-0135-4C14-B4A6-60502184522E";
paths = (
{
closed = 1;
nodes = (
"243 -167 OFFCURVE",
"359 -156 OFFCURVE",
"451 -156 CURVE SMOOTH",
"550 -156 OFFCURVE",
"671 -167 OFFCURVE",
"731 -172 CURVE",
"754 -115 OFFCURVE",
"758 10 OFFCURVE",
"738 67 CURVE",
"708 78 OFFCURVE",
"672 108 OFFCURVE",
"672 226 CURVE SMOOTH",
"672 354 OFFCURVE",
"707 376 OFFCURVE",
"737 377 CURVE",
"760 426 OFFCURVE",
"761 557 OFFCURVE",
"734 620 CURVE",
"584 775 LINE",
"569 774 OFFCURVE",
"554 772 OFFCURVE",
"537 770 CURVE",
"501 809 LINE SMOOTH",
"462 851 OFFCURVE",
"403 876 OFFCURVE",
"311 876 CURVE SMOOTH",
"175 876 OFFCURVE",
"118 810 OFFCURVE",
"105 739 CURVE",
"73 772 LINE",
"52 773 OFFCURVE",
"40 774 OFFCURVE",
"30 775 CURVE",
"1 712 OFFCURVE",
"1 582 OFFCURVE",
"26 533 CURVE",
"79 478 LINE",
"87 455 OFFCURVE",
"92 424 OFFCURVE",
"92 381 CURVE SMOOTH",
"92 263 OFFCURVE",
"56 233 OFFCURVE",
"26 222 CURVE",
"6 165 OFFCURVE",
"10 40 OFFCURVE",
"33 -17 CURVE",
"183 -172 LINE"
);
}
);
width = 612;
}
);
leftKerningGroup = N;
leftMetricsKey = "=I";
rightKerningGroup = N;
rightMetricsKey = "=I";
unicode = 0130;
},
{
color = 5;
glyphname = Idotbelow;
lastChange = "2017-11-24 10:13:39 +0000";
layers = (
{
layerId = "863809E3-B3D3-4728-B9C6-73F0AB5A9F00";
paths = (
{
closed = 1;
nodes = (
"470 -173 OFFCURVE",
"527 -95 OFFCURVE",
"531 -13 CURVE",
"550 -14 OFFCURVE",
"567 -16 OFFCURVE",
"581 -17 CURVE",
"604 40 OFFCURVE",
"608 165 OFFCURVE",
"588 222 CURVE",
"558 233 OFFCURVE",
"522 263 OFFCURVE",
"522 381 CURVE SMOOTH",
"522 509 OFFCURVE",
"557 531 OFFCURVE",
"587 532 CURVE",
"610 581 OFFCURVE",
"611 712 OFFCURVE",
"584 775 CURVE",
"524 770 OFFCURVE",
"403 760 OFFCURVE",
"304 760 CURVE SMOOTH",
"213 760 OFFCURVE",
"90 770 OFFCURVE",
"30 775 CURVE",
"1 712 OFFCURVE",
"1 582 OFFCURVE",
"26 533 CURVE",
"47 532 OFFCURVE",
"92 509 OFFCURVE",
"92 381 CURVE SMOOTH",
"92 263 OFFCURVE",
"56 233 OFFCURVE",
"26 222 CURVE",
"6 165 OFFCURVE",
"10 40 OFFCURVE",
"33 -17 CURVE",
"40 -16 OFFCURVE",
"42 -16 OFFCURVE",
"60 -15 CURVE",
"60 56 OFFCURVE",
"100 146 OFFCURVE",
"191 151 CURVE",
"121 119 OFFCURVE",
"94 59 OFFCURVE",
"94 5 CURVE SMOOTH",
"94 -97 OFFCURVE",
"170 -173 OFFCURVE",
"316 -173 CURVE SMOOTH"
);
}
);
width = 612;
},
{
layerId = "BDCFD595-0135-4C14-B4A6-60502184522E";
paths = (
{
closed = 1;
nodes = (
"620 -328 OFFCURVE",
"677 -250 OFFCURVE",
"681 -168 CURVE",
"700 -169 OFFCURVE",
"717 -171 OFFCURVE",
"731 -172 CURVE",
"754 -115 OFFCURVE",
"758 10 OFFCURVE",
"738 67 CURVE",
"708 78 OFFCURVE",
"672 108 OFFCURVE",
"672 226 CURVE SMOOTH",
"672 354 OFFCURVE",
"707 376 OFFCURVE",
"737 377 CURVE",
"760 426 OFFCURVE",
"761 557 OFFCURVE",
"734 620 CURVE",
"584 775 LINE",
"524 770 OFFCURVE",
"403 760 OFFCURVE",
"304 760 CURVE SMOOTH",
"213 760 OFFCURVE",
"90 770 OFFCURVE",
"30 775 CURVE",
"1 712 OFFCURVE",
"1 582 OFFCURVE",
"26 533 CURVE",
"79 478 LINE",
"87 455 OFFCURVE",
"92 424 OFFCURVE",
"92 381 CURVE SMOOTH",
"92 263 OFFCURVE",
"56 233 OFFCURVE",
"26 222 CURVE",
"6 165 OFFCURVE",
"10 40 OFFCURVE",
"33 -17 CURVE",
"183 -172 LINE",
"197 -171 LINE",
"279 -255 LINE SMOOTH",
"318 -294 OFFCURVE",
"377 -328 OFFCURVE",
"466 -328 CURVE SMOOTH"
);
}
);
width = 612;
}
);
leftKerningGroup = N;
leftMetricsKey = "=I";
rightKerningGroup = N;
rightMetricsKey = "=I";
unicode = 1ECA;
},
{
color = 5;
glyphname = Igrave;
lastChange = "2017-11-24 10:13:39 +0000";
layers = (
{
layerId = "863809E3-B3D3-4728-B9C6-73F0AB5A9F00";
paths = (
{
closed = 1;
nodes = (
"93 -12 OFFCURVE",
"209 -1 OFFCURVE",
"301 -1 CURVE SMOOTH",
"400 -1 OFFCURVE",
"521 -12 OFFCURVE",
"581 -17 CURVE",
"604 40 OFFCURVE",
"608 165 OFFCURVE",
"588 222 CURVE",
"558 233 OFFCURVE",
"522 263 OFFCURVE",
"522 381 CURVE SMOOTH",
"522 509 OFFCURVE",
"557 531 OFFCURVE",
"587 532 CURVE",
"610 581 OFFCURVE",
"611 712 OFFCURVE",
"584 775 CURVE",
"552 772 OFFCURVE",
"503 768 OFFCURVE",
"449 765 CURVE",
"438 801 OFFCURVE",
"422 833 OFFCURVE",
"406 854 CURVE",
"284 904 OFFCURVE",
"74 866 OFFCURVE",
"24 803 CURVE",
"41 705 OFFCURVE",
"122 599 OFFCURVE",
"202 543 CURVE",
"117 566 OFFCURVE",
"49 632 OFFCURVE",
"13 714 CURVE",
"3 649 OFFCURVE",
"8 568 OFFCURVE",
"26 533 CURVE",
"47 532 OFFCURVE",
"92 509 OFFCURVE",
"92 381 CURVE SMOOTH",
"92 263 OFFCURVE",
"56 233 OFFCURVE",
"26 222 CURVE",
"6 165 OFFCURVE",
"10 40 OFFCURVE",
"33 -17 CURVE"
);
}
);
width = 612;
},
{
layerId = "BDCFD595-0135-4C14-B4A6-60502184522E";
paths = (
{
closed = 1;
nodes = (
"243 -167 OFFCURVE",
"359 -156 OFFCURVE",
"451 -156 CURVE SMOOTH",
"550 -156 OFFCURVE",
"671 -167 OFFCURVE",
"731 -172 CURVE",
"754 -115 OFFCURVE",
"758 10 OFFCURVE",
"738 67 CURVE",
"708 78 OFFCURVE",
"672 108 OFFCURVE",
"672 226 CURVE SMOOTH",
"672 354 OFFCURVE",
"707 376 OFFCURVE",
"737 377 CURVE",
"760 426 OFFCURVE",
"761 557 OFFCURVE",
"734 620 CURVE",
"584 775 LINE",
"490 767 LINE",
"406 854 LINE",
"284 904 OFFCURVE",
"74 866 OFFCURVE",
"24 803 CURVE",
"34 746 OFFCURVE",
"65 686 OFFCURVE",
"106 635 CURVE",
"13 714 LINE",
"3 649 OFFCURVE",
"8 568 OFFCURVE",
"26 533 CURVE",
"79 478 LINE",
"87 455 OFFCURVE",
"92 424 OFFCURVE",
"92 381 CURVE SMOOTH",
"92 263 OFFCURVE",
"56 233 OFFCURVE",
"26 222 CURVE",
"6 165 OFFCURVE",
"10 40 OFFCURVE",
"33 -17 CURVE",
"183 -172 LINE"
);
}
);
width = 612;
}
);
leftKerningGroup = N;
leftMetricsKey = "=I";
rightKerningGroup = N;
rightMetricsKey = "=I";
unicode = 00CC;
},
{
color = 5;
glyphname = Imacron;
lastChange = "2017-11-24 10:13:39 +0000";
layers = (
{
layerId = "863809E3-B3D3-4728-B9C6-73F0AB5A9F00";
paths = (
{
closed = 1;
nodes = (
"93 -12 OFFCURVE",
"209 -1 OFFCURVE",
"301 -1 CURVE SMOOTH",
"400 -1 OFFCURVE",
"521 -12 OFFCURVE",
"581 -17 CURVE",
"604 40 OFFCURVE",
"608 165 OFFCURVE",
"588 222 CURVE",
"558 233 OFFCURVE",
"522 263 OFFCURVE",
"522 381 CURVE SMOOTH",
"522 509 OFFCURVE",
"557 531 OFFCURVE",
"587 532 CURVE",
"610 580 OFFCURVE",
"611 709 OFFCURVE",
"585 773 CURVE",
"583 805 OFFCURVE",
"581 838 OFFCURVE",
"576 854 CURVE",
"439 844 OFFCURVE",
"165 844 OFFCURVE",
"30 854 CURVE",
"18 798 OFFCURVE",
"1 658 OFFCURVE",
"12 590 CURVE",
"68 593 OFFCURVE",
"136 585 OFFCURVE",
"202 558 CURVE",
"17 559 LINE",
"19 549 OFFCURVE",
"22 541 OFFCURVE",
"26 533 CURVE",
"47 532 OFFCURVE",
"92 509 OFFCURVE",
"92 381 CURVE SMOOTH",
"92 263 OFFCURVE",
"56 233 OFFCURVE",
"26 222 CURVE",
"6 165 OFFCURVE",
"10 40 OFFCURVE",
"33 -17 CURVE"
);
}
);
width = 612;
},
{
layerId = "BDCFD595-0135-4C14-B4A6-60502184522E";
paths = (
{
closed = 1;
nodes = (
"243 -167 OFFCURVE",
"359 -156 OFFCURVE",
"451 -156 CURVE SMOOTH",
"550 -156 OFFCURVE",
"671 -167 OFFCURVE",
"731 -172 CURVE",
"754 -115 OFFCURVE",
"758 10 OFFCURVE",
"738 67 CURVE",
"708 78 OFFCURVE",
"672 108 OFFCURVE",
"672 226 CURVE SMOOTH",
"672 354 OFFCURVE",
"707 376 OFFCURVE",
"737 377 CURVE",
"760 425 OFFCURVE",
"761 554 OFFCURVE",
"735 618 CURVE",
"733 650 OFFCURVE",
"731 683 OFFCURVE",
"726 699 CURVE",
"576 854 LINE",
"439 844 OFFCURVE",
"165 844 OFFCURVE",
"30 854 CURVE",
"18 798 OFFCURVE",
"1 658 OFFCURVE",
"12 590 CURVE",
"42 559 LINE",
"17 559 LINE",
"19 549 OFFCURVE",
"22 541 OFFCURVE",
"26 533 CURVE",
"79 478 LINE",
"87 455 OFFCURVE",
"92 424 OFFCURVE",
"92 381 CURVE SMOOTH",
"92 263 OFFCURVE",
"56 233 OFFCURVE",
"26 222 CURVE",
"6 165 OFFCURVE",
"10 40 OFFCURVE",
"33 -17 CURVE",
"183 -172 LINE"
);
}
);
width = 612;
}
);
leftKerningGroup = N;
leftMetricsKey = "=I";
rightKerningGroup = N;
rightMetricsKey = "=I";
unicode = 012A;
},
{
color = 5;
glyphname = Iogonek;
lastChange = "2017-11-24 10:13:39 +0000";
layers = (
{
layerId = "863809E3-B3D3-4728-B9C6-73F0AB5A9F00";
paths = (
{
closed = 1;
nodes = (
"440 -170 OFFCURVE",
"494 -153 OFFCURVE",
"583 -160 CURVE",
"605 -76 OFFCURVE",
"608 134 OFFCURVE",
"590 222 CURVE",
"558 233 OFFCURVE",
"522 263 OFFCURVE",
"522 381 CURVE SMOOTH",
"522 509 OFFCURVE",
"557 531 OFFCURVE",
"587 532 CURVE",
"610 581 OFFCURVE",
"611 712 OFFCURVE",
"584 775 CURVE",
"524 770 OFFCURVE",
"403 760 OFFCURVE",
"304 760 CURVE SMOOTH",
"213 760 OFFCURVE",
"90 770 OFFCURVE",
"30 775 CURVE",
"1 712 OFFCURVE",
"1 582 OFFCURVE",
"26 533 CURVE",
"47 532 OFFCURVE",
"92 509 OFFCURVE",
"92 381 CURVE SMOOTH",
"92 263 OFFCURVE",
"56 233 OFFCURVE",
"26 222 CURVE",
"6 165 OFFCURVE",
"10 40 OFFCURVE",
"33 -17 CURVE",
"115 -10 LINE",
"127 37 OFFCURVE",
"159 97 OFFCURVE",
"205 114 CURVE",
"164 55 OFFCURVE",
"151 5 OFFCURVE",
"151 -35 CURVE SMOOTH",
"151 -124 OFFCURVE",
"213 -170 OFFCURVE",
"329 -170 CURVE SMOOTH"
);
}
);
width = 612;
},
{
layerId = "BDCFD595-0135-4C14-B4A6-60502184522E";
paths = (
{
closed = 1;
nodes = (
"590 -325 OFFCURVE",
"644 -308 OFFCURVE",
"733 -315 CURVE",
"755 -231 OFFCURVE",
"758 -21 OFFCURVE",
"740 67 CURVE",
"708 78 OFFCURVE",
"672 108 OFFCURVE",
"672 226 CURVE SMOOTH",
"672 354 OFFCURVE",
"707 376 OFFCURVE",
"737 377 CURVE",
"760 426 OFFCURVE",
"761 557 OFFCURVE",
"734 620 CURVE",
"584 775 LINE",
"524 770 OFFCURVE",
"403 760 OFFCURVE",
"304 760 CURVE SMOOTH",
"213 760 OFFCURVE",
"90 770 OFFCURVE",
"30 775 CURVE",
"1 712 OFFCURVE",
"1 582 OFFCURVE",
"26 533 CURVE",
"79 478 LINE",
"87 455 OFFCURVE",
"92 424 OFFCURVE",
"92 381 CURVE SMOOTH",
"92 263 OFFCURVE",
"56 233 OFFCURVE",
"26 222 CURVE",
"6 165 OFFCURVE",
"10 40 OFFCURVE",
"33 -17 CURVE",
"183 -172 LINE",
"226 -168 LINE",
"318 -264 LINE SMOOTH",
"363 -310 OFFCURVE",
"412 -325 OFFCURVE",
"479 -325 CURVE SMOOTH"
);
}
);
width = 612;
}
);
leftKerningGroup = N;
leftMetricsKey = "=I";
rightKerningGroup = N;
rightMetricsKey = "=I";
unicode = 012E;
},
{
color = 5;
glyphname = Itilde;
lastChange = "2017-11-24 10:13:39 +0000";
layers = (
{
layerId = "863809E3-B3D3-4728-B9C6-73F0AB5A9F00";
paths = (
{
closed = 1;
nodes = (
"93 -12 OFFCURVE",
"209 -1 OFFCURVE",
"301 -1 CURVE SMOOTH",
"400 -1 OFFCURVE",
"521 -12 OFFCURVE",
"581 -17 CURVE",
"604 40 OFFCURVE",
"608 165 OFFCURVE",
"588 222 CURVE",
"558 233 OFFCURVE",
"522 263 OFFCURVE",
"522 381 CURVE SMOOTH",
"522 509 OFFCURVE",
"557 531 OFFCURVE",
"587 532 CURVE",
"607 575 OFFCURVE",
"610 680 OFFCURVE",
"593 748 CURVE",
"595 772 OFFCURVE",
"596 798 OFFCURVE",
"596 827 CURVE",
"561 845 OFFCURVE",
"469 854 OFFCURVE",
"428 855 CURVE",
"414 834 OFFCURVE",
"391 821 OFFCURVE",
"355 821 CURVE SMOOTH",
"304 821 OFFCURVE",
"248 851 OFFCURVE",
"177 851 CURVE SMOOTH",
"63 851 OFFCURVE",
"8 785 OFFCURVE",
"8 566 CURVE",
"75 561 OFFCURVE",
"154 547 OFFCURVE",
"195 533 CURVE",
"26 533 LINE",
"47 532 OFFCURVE",
"92 509 OFFCURVE",
"92 381 CURVE SMOOTH",
"92 263 OFFCURVE",
"56 233 OFFCURVE",
"26 222 CURVE",
"6 165 OFFCURVE",
"10 40 OFFCURVE",
"33 -17 CURVE"
);
}
);
width = 612;
},
{
layerId = "BDCFD595-0135-4C14-B4A6-60502184522E";
paths = (
{
closed = 1;
nodes = (
"243 -167 OFFCURVE",
"359 -156 OFFCURVE",
"451 -156 CURVE SMOOTH",
"550 -156 OFFCURVE",
"671 -167 OFFCURVE",
"731 -172 CURVE",
"754 -115 OFFCURVE",
"758 10 OFFCURVE",
"738 67 CURVE",
"708 78 OFFCURVE",
"672 108 OFFCURVE",
"672 226 CURVE SMOOTH",
"672 354 OFFCURVE",
"707 376 OFFCURVE",
"737 377 CURVE",
"757 419 OFFCURVE",
"760 525 OFFCURVE",
"743 593 CURVE",
"745 617 OFFCURVE",
"746 643 OFFCURVE",
"746 672 CURVE",
"596 827 LINE",
"561 845 OFFCURVE",
"469 854 OFFCURVE",
"428 855 CURVE",
"414 834 OFFCURVE",
"391 821 OFFCURVE",
"355 821 CURVE SMOOTH",
"304 821 OFFCURVE",
"248 851 OFFCURVE",
"177 851 CURVE SMOOTH",
"63 851 OFFCURVE",
"8 785 OFFCURVE",
"8 566 CURVE",
"40 533 LINE",
"26 533 LINE",
"79 478 LINE",
"87 455 OFFCURVE",
"92 424 OFFCURVE",
"92 381 CURVE SMOOTH",
"92 263 OFFCURVE",
"56 233 OFFCURVE",
"26 222 CURVE",
"6 165 OFFCURVE",
"10 40 OFFCURVE",
"33 -17 CURVE",
"183 -172 LINE"
);
}
);
width = 612;
}
);
leftKerningGroup = N;
leftMetricsKey = "=I";
rightKerningGroup = N;
rightMetricsKey = "=I";
unicode = 0128;
},
{
color = 4;
glyphname = J;
lastChange = "2017-11-24 10:13:39 +0000";
layers = (
{
layerId = "863809E3-B3D3-4728-B9C6-73F0AB5A9F00";
paths = (
{
closed = 1;
nodes = (
"653 -34 OFFCURVE",
"806 47 OFFCURVE",
"806 252 CURVE SMOOTH",
"806 301 OFFCURVE",
"793 357 OFFCURVE",
"793 420 CURVE SMOOTH",
"793 517 OFFCURVE",
"828 531 OFFCURVE",
"858 532 CURVE",
"881 581 OFFCURVE",
"882 712 OFFCURVE",
"855 775 CURVE",
"795 770 OFFCURVE",
"674 760 OFFCURVE",
"565 760 CURVE SMOOTH",
"474 760 OFFCURVE",
"341 763 OFFCURVE",
"119 775 CURVE",
"90 712 OFFCURVE",
"90 582 OFFCURVE",
"115 533 CURVE",
"307 533 OFFCURVE",
"416 427 OFFCURVE",
"436 278 CURVE",
"409 273 LINE",
"377 450 OFFCURVE",
"281 459 OFFCURVE",
"213 459 CURVE SMOOTH",
"69 459 OFFCURVE",
"10 360 OFFCURVE",
"10 251 CURVE SMOOTH",
"10 71 OFFCURVE",
"151 -34 OFFCURVE",
"405 -34 CURVE SMOOTH"
);
}
);
width = 883;
},
{
layerId = "BDCFD595-0135-4C14-B4A6-60502184522E";
paths = (
{
closed = 1;
nodes = (
"803 -189 OFFCURVE",
"956 -108 OFFCURVE",
"956 97 CURVE SMOOTH",
"956 146 OFFCURVE",
"943 202 OFFCURVE",
"943 265 CURVE SMOOTH",
"943 362 OFFCURVE",
"978 376 OFFCURVE",
"1008 377 CURVE",
"1031 426 OFFCURVE",
"1032 557 OFFCURVE",
"1005 620 CURVE",
"855 775 LINE",
"795 770 OFFCURVE",
"674 760 OFFCURVE",
"565 760 CURVE SMOOTH",
"474 760 OFFCURVE",
"341 763 OFFCURVE",
"119 775 CURVE",
"90 712 OFFCURVE",
"90 582 OFFCURVE",
"115 533 CURVE",
"188 458 LINE",
"62 447 OFFCURVE",
"10 353 OFFCURVE",
"10 251 CURVE SMOOTH",
"10 181 OFFCURVE",
"32 122 OFFCURVE",
"73 76 CURVE SMOOTH",
"98 47 OFFCURVE",
"136 6 OFFCURVE",
"219 -75 CURVE SMOOTH",
"290 -144 OFFCURVE",
"398 -189 OFFCURVE",
"555 -189 CURVE SMOOTH"
);
}
);
width = 883;
}
);
leftKerningGroup = J;
rightKerningGroup = U;
unicode = 004A;
},
{
color = 5;
glyphname = Jacute;
lastChange = "2017-11-24 10:13:39 +0000";
layers = (
{
layerId = "863809E3-B3D3-4728-B9C6-73F0AB5A9F00";
paths = (
{
closed = 1;
nodes = (
"653 -34 OFFCURVE",
"806 47 OFFCURVE",
"806 252 CURVE SMOOTH",
"806 301 OFFCURVE",
"793 357 OFFCURVE",
"793 420 CURVE SMOOTH",
"793 517 OFFCURVE",
"828 531 OFFCURVE",
"858 532 CURVE",
"881 581 OFFCURVE",
"882 712 OFFCURVE",
"855 775 CURVE",
"823 772 OFFCURVE",
"781 768 OFFCURVE",
"731 765 CURVE",
"736 780 OFFCURVE",
"742 793 OFFCURVE",
"750 803 CURVE",
"700 866 OFFCURVE",
"490 904 OFFCURVE",
"368 854 CURVE",
"311 773 OFFCURVE",
"296 677 OFFCURVE",
"318 604 CURVE",
"275 647 OFFCURVE",
"271 714 OFFCURVE",
"286 768 CURVE",
"238 770 OFFCURVE",
"173 772 OFFCURVE",
"119 775 CURVE",
"90 712 OFFCURVE",
"90 582 OFFCURVE",
"115 533 CURVE",
"307 533 OFFCURVE",
"416 427 OFFCURVE",
"436 278 CURVE",
"409 273 LINE",
"377 450 OFFCURVE",
"281 459 OFFCURVE",
"213 459 CURVE SMOOTH",
"69 459 OFFCURVE",
"10 360 OFFCURVE",
"10 251 CURVE SMOOTH",
"10 71 OFFCURVE",
"151 -34 OFFCURVE",
"405 -34 CURVE SMOOTH"
);
}
);
width = 883;
},
{
layerId = "BDCFD595-0135-4C14-B4A6-60502184522E";
paths = (
{
closed = 1;
nodes = (
"803 -189 OFFCURVE",
"956 -108 OFFCURVE",
"956 97 CURVE SMOOTH",
"956 146 OFFCURVE",
"943 202 OFFCURVE",
"943 265 CURVE SMOOTH",
"943 362 OFFCURVE",
"978 376 OFFCURVE",
"1008 377 CURVE",
"1031 426 OFFCURVE",
"1032 557 OFFCURVE",
"1005 620 CURVE",
"855 775 LINE",
"835 773 OFFCURVE",
"811 771 OFFCURVE",
"783 769 CURVE",
"750 803 LINE",
"732 765 LINE",
"731 765 LINE",
"736 780 OFFCURVE",
"742 793 OFFCURVE",
"750 803 CURVE",
"700 866 OFFCURVE",
"490 904 OFFCURVE",
"368 854 CURVE",
"342 817 OFFCURVE",
"325 777 OFFCURVE",
"316 737 CURVE",
"286 768 LINE",
"238 770 OFFCURVE",
"173 772 OFFCURVE",
"119 775 CURVE",
"90 712 OFFCURVE",
"90 582 OFFCURVE",
"115 533 CURVE",
"188 458 LINE",
"62 447 OFFCURVE",
"10 353 OFFCURVE",
"10 251 CURVE SMOOTH",
"10 181 OFFCURVE",
"33 123 OFFCURVE",
"73 76 CURVE SMOOTH",
"98 47 OFFCURVE",
"136 6 OFFCURVE",
"219 -75 CURVE SMOOTH",
"290 -144 OFFCURVE",
"398 -189 OFFCURVE",
"555 -189 CURVE SMOOTH"
);
}
);
width = 883;
}
);
leftKerningGroup = J;
leftMetricsKey = "=J";
rightKerningGroup = U;
rightMetricsKey = "=J";
},
{
color = 5;
glyphname = Jcircumflex;
lastChange = "2017-11-24 10:13:39 +0000";
layers = (
{
layerId = "863809E3-B3D3-4728-B9C6-73F0AB5A9F00";
paths = (
{
closed = 1;
nodes = (
"827 773 OFFCURVE",
"782 769 OFFCURVE",
"736 766 CURVE",
"709 810 OFFCURVE",
"676 846 OFFCURVE",
"646 867 CURVE",
"593 877 OFFCURVE",
"426 879 OFFCURVE",
"344 867 CURVE",
"281 824 OFFCURVE",
"220 728 OFFCURVE",
"207 623 CURVE",
"196 674 OFFCURVE",
"201 735 OFFCURVE",
"221 770 CURVE",
"192 771 OFFCURVE",
"154 773 OFFCURVE",
"119 775 CURVE",
"90 712 OFFCURVE",
"90 582 OFFCURVE",
"115 533 CURVE",
"307 533 OFFCURVE",
"416 427 OFFCURVE",
"436 278 CURVE",
"409 273 LINE",
"377 450 OFFCURVE",
"281 459 OFFCURVE",
"213 459 CURVE SMOOTH",
"69 459 OFFCURVE",
"10 360 OFFCURVE",
"10 251 CURVE SMOOTH",
"10 71 OFFCURVE",
"151 -34 OFFCURVE",
"405 -34 CURVE SMOOTH",
"653 -34 OFFCURVE",
"806 47 OFFCURVE",
"806 252 CURVE SMOOTH",
"806 301 OFFCURVE",
"793 357 OFFCURVE",
"793 420 CURVE SMOOTH",
"793 517 OFFCURVE",
"828 531 OFFCURVE",
"858 532 CURVE",
"881 581 OFFCURVE",
"882 712 OFFCURVE",
"855 775 CURVE"
);
}
);
width = 883;
},
{
layerId = "BDCFD595-0135-4C14-B4A6-60502184522E";
paths = (
{
closed = 1;
nodes = (
"803 -189 OFFCURVE",
"956 -108 OFFCURVE",
"956 97 CURVE SMOOTH",
"956 146 OFFCURVE",
"943 202 OFFCURVE",
"943 265 CURVE SMOOTH",
"943 362 OFFCURVE",
"978 376 OFFCURVE",
"1008 377 CURVE",
"1031 426 OFFCURVE",
"1032 557 OFFCURVE",
"1005 620 CURVE",
"855 775 LINE",
"827 773 OFFCURVE",
"782 769 OFFCURVE",
"736 766 CURVE",
"709 810 OFFCURVE",
"676 846 OFFCURVE",
"646 867 CURVE",
"593 877 OFFCURVE",
"426 879 OFFCURVE",
"344 867 CURVE",
"307 842 OFFCURVE",
"271 798 OFFCURVE",
"245 746 CURVE",
"221 770 LINE",
"209 738 LINE",
"212 750 OFFCURVE",
"216 761 OFFCURVE",
"221 770 CURVE",
"192 771 OFFCURVE",
"154 773 OFFCURVE",
"119 775 CURVE",
"90 712 OFFCURVE",
"90 582 OFFCURVE",
"115 533 CURVE",
"188 458 LINE",
"62 447 OFFCURVE",
"10 353 OFFCURVE",
"10 251 CURVE SMOOTH",
"10 181 OFFCURVE",
"33 123 OFFCURVE",
"73 76 CURVE SMOOTH",
"98 47 OFFCURVE",
"136 6 OFFCURVE",
"219 -75 CURVE SMOOTH",
"290 -144 OFFCURVE",
"398 -189 OFFCURVE",
"555 -189 CURVE SMOOTH"
);
}
);
width = 883;
}
);
leftKerningGroup = J;
leftMetricsKey = "=J";
rightKerningGroup = U;
rightMetricsKey = "=J";
unicode = 0134;
},
{
color = 4;
glyphname = K;
lastChange = "2017-11-24 10:13:39 +0000";
layers = (
{
background = {
components = (
{
name = H;
}
);
};
layerId = "863809E3-B3D3-4728-B9C6-73F0AB5A9F00";
paths = (
{
closed = 1;
nodes = (
"91 -11 OFFCURVE",
"179 -1 OFFCURVE",
"313 -1 CURVE SMOOTH",
"432 -1 OFFCURVE",
"478 -12 OFFCURVE",
"533 -17 CURVE",
"548 40 OFFCURVE",
"551 175 OFFCURVE",
"540 222 CURVE",
"503 222 LINE",
"503 315 LINE",
"573 256 OFFCURVE",
"576 188 OFFCURVE",
"576 106 CURVE SMOOTH",
"576 71 OFFCURVE",
"573 31 OFFCURVE",
"569 -17 CURVE",
"624 -12 OFFCURVE",
"685 -1 OFFCURVE",
"872 -1 CURVE SMOOTH",
"970 -1 OFFCURVE",
"1032 -12 OFFCURVE",
"1087 -17 CURVE",
"1109 40 OFFCURVE",
"1112 165 OFFCURVE",
"1094 222 CURVE",
"1012 261 OFFCURVE",
"966 334 OFFCURVE",
"951 484 CURVE",
"983 512 OFFCURVE",
"1022 532 OFFCURVE",
"1079 536 CURVE",
"1097 593 OFFCURVE",
"1094 718 OFFCURVE",
"1072 775 CURVE",
"1007 769 OFFCURVE",
"965 759 OFFCURVE",
"857 759 CURVE SMOOTH",
"680 759 OFFCURVE",
"620 770 OFFCURVE",
"565 775 CURVE",
"570 721 OFFCURVE",
"574 675 OFFCURVE",
"574 635 CURVE SMOOTH",
"574 550 OFFCURVE",
"563 477 OFFCURVE",
"503 414 CURVE",
"504 517 LINE",
"537 517 LINE",
"550 566 OFFCURVE",
"549 712 OFFCURVE",
"532 775 CURVE",
"477 770 OFFCURVE",
"413 761 OFFCURVE",
"314 761 CURVE SMOOTH",
"200 761 OFFCURVE",
"84 770 OFFCURVE",
"29 775 CURVE",
"2 712 OFFCURVE",
"2 582 OFFCURVE",
"25 533 CURVE",
"49 532 OFFCURVE",
"91 509 OFFCURVE",
"91 381 CURVE SMOOTH",
"91 263 OFFCURVE",
"57 233 OFFCURVE",
"25 222 CURVE",
"7 165 OFFCURVE",
"10 40 OFFCURVE",
"32 -17 CURVE"
);
}
);
width = 1114;
},
{
background = {
components = (
{
name = H;
}
);
};
layerId = "BDCFD595-0135-4C14-B4A6-60502184522E";
paths = (
{
closed = 1;
nodes = (
"241 -166 OFFCURVE",
"329 -156 OFFCURVE",
"463 -156 CURVE SMOOTH",
"582 -156 OFFCURVE",
"628 -167 OFFCURVE",
"683 -172 CURVE",
"685 -163 OFFCURVE",
"687 -153 OFFCURVE",
"689 -141 CURVE",
"719 -172 LINE",
"774 -167 OFFCURVE",
"835 -156 OFFCURVE",
"1022 -156 CURVE SMOOTH",
"1120 -156 OFFCURVE",
"1182 -167 OFFCURVE",
"1237 -172 CURVE",
"1259 -115 OFFCURVE",
"1262 10 OFFCURVE",
"1244 67 CURVE",
"1162 106 OFFCURVE",
"1116 179 OFFCURVE",
"1101 329 CURVE",
"1133 357 OFFCURVE",
"1172 377 OFFCURVE",
"1229 381 CURVE",
"1247 438 OFFCURVE",
"1244 563 OFFCURVE",
"1222 620 CURVE",
"1072 775 LINE",
"1007 769 OFFCURVE",
"965 759 OFFCURVE",
"857 759 CURVE SMOOTH",
"680 759 OFFCURVE",
"620 770 OFFCURVE",
"565 775 CURVE",
"568 737 LINE",
"532 775 LINE",
"477 770 OFFCURVE",
"413 761 OFFCURVE",
"314 761 CURVE SMOOTH",
"200 761 OFFCURVE",
"84 770 OFFCURVE",
"29 775 CURVE",
"2 712 OFFCURVE",
"2 582 OFFCURVE",
"25 533 CURVE",
"79 477 LINE",
"86 455 OFFCURVE",
"91 424 OFFCURVE",
"91 381 CURVE SMOOTH",
"91 263 OFFCURVE",
"57 233 OFFCURVE",
"25 222 CURVE",
"7 165 OFFCURVE",
"10 40 OFFCURVE",
"32 -17 CURVE",
"182 -172 LINE"
);
}
);
width = 1114;
}
);
leftKerningGroup = N;
rightKerningGroup = K;
unicode = 004B;
},
{
color = 5;
glyphname = Kcommaaccent;
lastChange = "2017-11-24 10:13:39 +0000";
layers = (
{
layerId = "863809E3-B3D3-4728-B9C6-73F0AB5A9F00";
paths = (
{
closed = 1;
nodes = (
"674 -128 OFFCURVE",
"734 -73 OFFCURVE",
"752 -4 CURVE",
"787 -2 OFFCURVE",
"822 -1 OFFCURVE",
"872 -1 CURVE SMOOTH",
"970 -1 OFFCURVE",
"1032 -12 OFFCURVE",
"1087 -17 CURVE",
"1109 40 OFFCURVE",
"1112 165 OFFCURVE",
"1094 222 CURVE",
"1012 261 OFFCURVE",
"966 334 OFFCURVE",
"951 484 CURVE",
"983 512 OFFCURVE",
"1022 532 OFFCURVE",
"1079 536 CURVE",
"1097 593 OFFCURVE",
"1094 718 OFFCURVE",
"1072 775 CURVE",
"1007 769 OFFCURVE",
"965 759 OFFCURVE",
"857 759 CURVE SMOOTH",
"680 759 OFFCURVE",
"620 770 OFFCURVE",
"565 775 CURVE",
"570 721 OFFCURVE",
"574 675 OFFCURVE",
"574 635 CURVE SMOOTH",
"574 550 OFFCURVE",
"563 477 OFFCURVE",
"503 414 CURVE",
"504 517 LINE",
"537 517 LINE",
"550 566 OFFCURVE",
"549 712 OFFCURVE",
"532 775 CURVE",
"477 770 OFFCURVE",
"413 761 OFFCURVE",
"314 761 CURVE SMOOTH",
"200 761 OFFCURVE",
"84 770 OFFCURVE",
"29 775 CURVE",
"2 712 OFFCURVE",
"2 582 OFFCURVE",
"25 533 CURVE",
"49 532 OFFCURVE",
"91 509 OFFCURVE",
"91 381 CURVE SMOOTH",
"91 263 OFFCURVE",
"57 233 OFFCURVE",
"25 222 CURVE",
"7 165 OFFCURVE",
"10 40 OFFCURVE",
"32 -17 CURVE",
"90 -11 OFFCURVE",
"173 -2 OFFCURVE",
"306 -2 CURVE",
"326 28 OFFCURVE",
"326 69 OFFCURVE",
"325 117 CURVE",
"378 -14 OFFCURVE",
"357 -95 OFFCURVE",
"343 -163 CURVE",
"380 -174 OFFCURVE",
"549 -177 OFFCURVE",
"588 -170 CURVE"
);
},
{
closed = 1;
nodes = (
"502 279 LINE",
"538 279 LINE",
"538 188 LINE",
"502 188 LINE"
);
}
);
width = 1114;
},
{
layerId = "BDCFD595-0135-4C14-B4A6-60502184522E";
paths = (
{
closed = 1;
nodes = (
"824 -283 OFFCURVE",
"884 -228 OFFCURVE",
"902 -159 CURVE",
"937 -157 OFFCURVE",
"972 -156 OFFCURVE",
"1022 -156 CURVE SMOOTH",
"1120 -156 OFFCURVE",
"1182 -167 OFFCURVE",
"1237 -172 CURVE",
"1259 -115 OFFCURVE",
"1262 10 OFFCURVE",
"1244 67 CURVE",
"1162 106 OFFCURVE",
"1116 179 OFFCURVE",
"1101 329 CURVE",
"1133 357 OFFCURVE",
"1172 377 OFFCURVE",
"1229 381 CURVE",
"1247 438 OFFCURVE",
"1244 563 OFFCURVE",
"1222 620 CURVE",
"1072 775 LINE",
"1007 769 OFFCURVE",
"965 759 OFFCURVE",
"857 759 CURVE SMOOTH",
"680 759 OFFCURVE",
"620 770 OFFCURVE",
"565 775 CURVE",
"568 737 LINE",
"532 775 LINE",
"477 770 OFFCURVE",
"413 761 OFFCURVE",
"314 761 CURVE SMOOTH",
"200 761 OFFCURVE",
"84 770 OFFCURVE",
"29 775 CURVE",
"2 712 OFFCURVE",
"2 582 OFFCURVE",
"25 533 CURVE",
"79 477 LINE",
"86 455 OFFCURVE",
"91 424 OFFCURVE",
"91 381 CURVE SMOOTH",
"91 263 OFFCURVE",
"57 233 OFFCURVE",
"25 222 CURVE",
"7 165 OFFCURVE",
"10 40 OFFCURVE",
"32 -17 CURVE",
"182 -172 LINE",
"222 -168 OFFCURVE",
"273 -162 OFFCURVE",
"344 -159 CURVE",
"343 -163 LINE",
"493 -318 LINE",
"530 -329 OFFCURVE",
"699 -332 OFFCURVE",
"738 -325 CURVE"
);
}
);
width = 1114;
}
);
leftKerningGroup = N;
leftMetricsKey = "=K";
rightKerningGroup = K;
rightMetricsKey = "=K";
unicode = 0136;
},
{
color = 4;
glyphname = L;
lastChange = "2017-11-24 10:13:39 +0000";
layers = (
{
layerId = "863809E3-B3D3-4728-B9C6-73F0AB5A9F00";
paths = (
{
closed = 1;
nodes = (
"90 -11 OFFCURVE",
"309 -2 OFFCURVE",
"458 -2 CURVE SMOOTH",
"609 -2 OFFCURVE",
"754 -15 OFFCURVE",
"888 -17 CURVE",
"905 45 OFFCURVE",
"908 348 OFFCURVE",
"888 435 CURVE",
"794 451 OFFCURVE",
"650 451 OFFCURVE",
"559 435 CURVE",
"554 409 OFFCURVE",
"549 343 OFFCURVE",
"552 281 CURVE",
"523 281 LINE",
"523 385 LINE SMOOTH",
"523 453 OFFCURVE",
"529 516 OFFCURVE",
"577 516 CURVE",
"597 573 OFFCURVE",
"602 718 OFFCURVE",
"579 775 CURVE",
"529 770 OFFCURVE",
"419 760 OFFCURVE",
"329 760 CURVE SMOOTH",
"247 760 OFFCURVE",
"94 770 OFFCURVE",
"29 775 CURVE",
"3 718 OFFCURVE",
"1 590 OFFCURVE",
"25 533 CURVE",
"58 529 OFFCURVE",
"91 496 OFFCURVE",
"91 377 CURVE SMOOTH",
"91 253 OFFCURVE",
"49 230 OFFCURVE",
"25 222 CURVE",
"8 173 OFFCURVE",
"8 46 OFFCURVE",
"31 -17 CURVE"
);
}
);
width = 909;
},
{
layerId = "BDCFD595-0135-4C14-B4A6-60502184522E";
paths = (
{
closed = 1;
nodes = (
"240 -166 OFFCURVE",
"459 -157 OFFCURVE",
"608 -157 CURVE SMOOTH",
"759 -157 OFFCURVE",
"904 -170 OFFCURVE",
"1038 -172 CURVE",
"1055 -110 OFFCURVE",
"1058 193 OFFCURVE",
"1038 280 CURVE",
"888 435 LINE",
"846 442 OFFCURVE",
"795 446 OFFCURVE",
"742 447 CURVE",
"747 510 OFFCURVE",
"744 583 OFFCURVE",
"729 620 CURVE",
"579 775 LINE",
"529 770 OFFCURVE",
"419 760 OFFCURVE",
"329 760 CURVE SMOOTH",
"247 760 OFFCURVE",
"94 770 OFFCURVE",
"29 775 CURVE",
"3 718 OFFCURVE",
"1 590 OFFCURVE",
"25 533 CURVE",
"79 477 LINE",
"86 454 OFFCURVE",
"91 421 OFFCURVE",
"91 377 CURVE SMOOTH",
"91 253 OFFCURVE",
"49 230 OFFCURVE",
"25 222 CURVE",
"8 173 OFFCURVE",
"8 46 OFFCURVE",
"31 -17 CURVE",
"181 -172 LINE"
);
}
);
width = 909;
}
);
leftKerningGroup = N;
rightKerningGroup = L;
unicode = 004C;
},
{
color = 5;
glyphname = Lacute;
lastChange = "2017-11-24 10:13:39 +0000";
layers = (
{
layerId = "863809E3-B3D3-4728-B9C6-73F0AB5A9F00";
paths = (
{
closed = 1;
nodes = (
"90 -11 OFFCURVE",
"309 -2 OFFCURVE",
"458 -2 CURVE SMOOTH",
"609 -2 OFFCURVE",
"754 -15 OFFCURVE",
"888 -17 CURVE",
"905 45 OFFCURVE",
"908 348 OFFCURVE",
"888 435 CURVE",
"794 451 OFFCURVE",
"650 451 OFFCURVE",
"559 435 CURVE",
"554 409 OFFCURVE",
"549 343 OFFCURVE",
"552 281 CURVE",
"523 281 LINE",
"523 385 LINE SMOOTH",
"523 453 OFFCURVE",
"529 516 OFFCURVE",
"577 516 CURVE",
"597 573 OFFCURVE",
"602 718 OFFCURVE",
"579 775 CURVE",
"575 775 OFFCURVE",
"567 774 OFFCURVE",
"557 774 CURVE",
"560 783 OFFCURVE",
"562 793 OFFCURVE",
"564 803 CURVE",
"514 866 OFFCURVE",
"304 904 OFFCURVE",
"182 854 CURVE",
"120 760 OFFCURVE",
"109 643 OFFCURVE",
"148 570 CURVE",
"90 608 OFFCURVE",
"82 700 OFFCURVE",
"104 769 CURVE",
"72 771 OFFCURVE",
"51 773 OFFCURVE",
"29 775 CURVE",
"3 718 OFFCURVE",
"1 590 OFFCURVE",
"25 533 CURVE",
"58 529 OFFCURVE",
"91 496 OFFCURVE",
"91 377 CURVE SMOOTH",
"91 253 OFFCURVE",
"49 230 OFFCURVE",
"25 222 CURVE",
"8 173 OFFCURVE",
"8 46 OFFCURVE",
"31 -17 CURVE"
);
}
);
width = 909;
},
{
layerId = "BDCFD595-0135-4C14-B4A6-60502184522E";
paths = (
{
closed = 1;
nodes = (
"240 -166 OFFCURVE",
"459 -157 OFFCURVE",
"608 -157 CURVE SMOOTH",
"759 -157 OFFCURVE",
"904 -170 OFFCURVE",
"1038 -172 CURVE",
"1055 -110 OFFCURVE",
"1058 193 OFFCURVE",
"1038 280 CURVE",
"888 435 LINE",
"846 442 OFFCURVE",
"795 446 OFFCURVE",
"742 447 CURVE",
"747 510 OFFCURVE",
"744 583 OFFCURVE",
"729 620 CURVE",
"712 638 LINE",
"713 641 OFFCURVE",
"713 645 OFFCURVE",
"714 648 CURVE",
"711 652 OFFCURVE",
"708 655 OFFCURVE",
"703 659 CURVE",
"564 803 LINE",
"514 866 OFFCURVE",
"304 904 OFFCURVE",
"182 854 CURVE",
"158 818 OFFCURVE",
"142 778 OFFCURVE",
"133 739 CURVE",
"104 769 LINE",
"72 771 OFFCURVE",
"51 773 OFFCURVE",
"29 775 CURVE",
"3 718 OFFCURVE",
"1 590 OFFCURVE",
"25 533 CURVE",
"79 477 LINE",
"86 454 OFFCURVE",
"91 421 OFFCURVE",
"91 377 CURVE SMOOTH",
"91 253 OFFCURVE",
"49 230 OFFCURVE",
"25 222 CURVE",
"8 173 OFFCURVE",
"8 46 OFFCURVE",
"31 -17 CURVE",
"181 -172 LINE"
);
}
);
width = 909;
}
);
leftKerningGroup = N;
leftMetricsKey = "=L";
rightKerningGroup = L;
rightMetricsKey = "=L";
unicode = 0139;
},
{
color = 5;
glyphname = Lcaron;
lastChange = "2017-11-24 10:13:39 +0000";
layers = (
{
layerId = "863809E3-B3D3-4728-B9C6-73F0AB5A9F00";
paths = (
{
closed = 1;
nodes = (
"794 451 OFFCURVE",
"650 451 OFFCURVE",
"559 435 CURVE",
"554 409 OFFCURVE",
"549 343 OFFCURVE",
"552 281 CURVE",
"523 281 LINE",
"523 493 LINE",
"581 483 OFFCURVE",
"704 492 OFFCURVE",
"724 506 CURVE",
"762 599 OFFCURVE",
"789 712 OFFCURVE",
"796 814 CURVE",
"742 869 OFFCURVE",
"488 873 OFFCURVE",
"426 818 CURVE",
"409 769 OFFCURVE",
"408 656 OFFCURVE",
"415 596 CURVE",
"386 649 OFFCURVE",
"380 709 OFFCURVE",
"379 761 CURVE",
"259 760 OFFCURVE",
"173 762 OFFCURVE",
"29 775 CURVE",
"3 718 OFFCURVE",
"1 590 OFFCURVE",
"25 533 CURVE",
"58 529 OFFCURVE",
"91 496 OFFCURVE",
"91 377 CURVE SMOOTH",
"91 253 OFFCURVE",
"49 230 OFFCURVE",
"25 222 CURVE",
"8 173 OFFCURVE",
"8 46 OFFCURVE",
"31 -17 CURVE",
"90 -11 OFFCURVE",
"309 -2 OFFCURVE",
"458 -2 CURVE SMOOTH",
"609 -2 OFFCURVE",
"754 -15 OFFCURVE",
"888 -17 CURVE",
"905 45 OFFCURVE",
"908 348 OFFCURVE",
"888 435 CURVE"
);
}
);
width = 909;
},
{
layerId = "BDCFD595-0135-4C14-B4A6-60502184522E";
paths = (
{
closed = 1;
nodes = (
"240 -166 OFFCURVE",
"459 -157 OFFCURVE",
"608 -157 CURVE SMOOTH",
"693 -157 OFFCURVE",
"775 -161 OFFCURVE",
"855 -165 CURVE SMOOTH",
"918 -168 OFFCURVE",
"979 -171 OFFCURVE",
"1038 -172 CURVE",
"1055 -110 OFFCURVE",
"1058 193 OFFCURVE",
"1038 280 CURVE",
"900 423 LINE",
"924 499 OFFCURVE",
"940 582 OFFCURVE",
"946 659 CURVE",
"796 814 LINE SMOOTH",
"742 869 OFFCURVE",
"488 873 OFFCURVE",
"426 818 CURVE",
"419 797 OFFCURVE",
"414 763 OFFCURVE",
"412 727 CURVE",
"379 761 LINE",
"259 760 OFFCURVE",
"173 762 OFFCURVE",
"29 775 CURVE",
"3 718 OFFCURVE",
"1 590 OFFCURVE",
"25 533 CURVE",
"79 477 LINE",
"86 454 OFFCURVE",
"91 421 OFFCURVE",
"91 377 CURVE SMOOTH",
"91 253 OFFCURVE",
"49 230 OFFCURVE",
"25 222 CURVE",
"8 173 OFFCURVE",
"8 46 OFFCURVE",
"31 -17 CURVE",
"181 -172 LINE"
);
}
);
width = 909;
}
);
leftKerningGroup = N;
leftMetricsKey = "=L";
rightKerningGroup = L;
rightMetricsKey = "=L";
unicode = 013D;
},
{
color = 5;
glyphname = Lcommaaccent;
lastChange = "2017-11-24 10:13:39 +0000";
layers = (
{
layerId = "863809E3-B3D3-4728-B9C6-73F0AB5A9F00";
paths = (
{
closed = 1;
nodes = (
"564 -129 OFFCURVE",
"624 -74 OFFCURVE",
"643 -7 CURVE",
"727 -11 OFFCURVE",
"810 -16 OFFCURVE",
"888 -17 CURVE",
"905 45 OFFCURVE",
"908 348 OFFCURVE",
"888 435 CURVE",
"794 451 OFFCURVE",
"650 451 OFFCURVE",
"559 435 CURVE",
"554 409 OFFCURVE",
"549 343 OFFCURVE",
"552 281 CURVE",
"523 281 LINE",
"523 385 LINE SMOOTH",
"523 453 OFFCURVE",
"529 516 OFFCURVE",
"577 516 CURVE",
"597 573 OFFCURVE",
"602 718 OFFCURVE",
"579 775 CURVE",
"529 770 OFFCURVE",
"419 760 OFFCURVE",
"329 760 CURVE SMOOTH",
"247 760 OFFCURVE",
"94 770 OFFCURVE",
"29 775 CURVE",
"3 718 OFFCURVE",
"1 590 OFFCURVE",
"25 533 CURVE",
"58 529 OFFCURVE",
"91 496 OFFCURVE",
"91 377 CURVE SMOOTH",
"91 253 OFFCURVE",
"49 230 OFFCURVE",
"25 222 CURVE",
"8 173 OFFCURVE",
"8 46 OFFCURVE",
"31 -17 CURVE",
"59 -14 OFFCURVE",
"125 -11 OFFCURVE",
"195 -8 CURVE",
"217 24 OFFCURVE",
"217 69 OFFCURVE",
"216 117 CURVE",
"269 -14 OFFCURVE",
"248 -95 OFFCURVE",
"234 -163 CURVE",
"271 -174 OFFCURVE",
"440 -177 OFFCURVE",
"479 -170 CURVE"
);
}
);
width = 909;
},
{
layerId = "BDCFD595-0135-4C14-B4A6-60502184522E";
paths = (
{
closed = 1;
nodes = (
"714 -284 OFFCURVE",
"774 -229 OFFCURVE",
"793 -162 CURVE",
"877 -166 OFFCURVE",
"960 -171 OFFCURVE",
"1038 -172 CURVE",
"1055 -110 OFFCURVE",
"1058 193 OFFCURVE",
"1038 280 CURVE",
"888 435 LINE",
"846 442 OFFCURVE",
"795 446 OFFCURVE",
"742 447 CURVE",
"747 510 OFFCURVE",
"744 583 OFFCURVE",
"729 620 CURVE",
"579 775 LINE",
"529 770 OFFCURVE",
"419 760 OFFCURVE",
"329 760 CURVE SMOOTH",
"247 760 OFFCURVE",
"94 770 OFFCURVE",
"29 775 CURVE",
"3 718 OFFCURVE",
"1 590 OFFCURVE",
"25 533 CURVE",
"79 477 LINE",
"86 454 OFFCURVE",
"91 421 OFFCURVE",
"91 377 CURVE SMOOTH",
"91 253 OFFCURVE",
"49 230 OFFCURVE",
"25 222 CURVE",
"8 173 OFFCURVE",
"8 46 OFFCURVE",
"31 -17 CURVE",
"181 -172 LINE",
"193 -170 OFFCURVE",
"214 -169 OFFCURVE",
"239 -168 CURVE",
"384 -318 LINE",
"421 -329 OFFCURVE",
"590 -332 OFFCURVE",
"629 -325 CURVE"
);
}
);
width = 909;
}
);
leftKerningGroup = N;
leftMetricsKey = "=L";
rightKerningGroup = L;
rightMetricsKey = "=L";
unicode = 013B;
},
{
color = 4;
glyphname = Ldot;
lastChange = "2017-11-24 10:13:39 +0000";
layers = (
{
background = {
paths = (
{
closed = 1;
nodes = (
"90 -11 OFFCURVE",
"309 -2 OFFCURVE",
"458 -2 CURVE SMOOTH",
"609 -2 OFFCURVE",
"754 -15 OFFCURVE",
"888 -17 CURVE",
"905 45 OFFCURVE",
"908 348 OFFCURVE",
"888 435 CURVE",
"794 451 OFFCURVE",
"650 451 OFFCURVE",
"559 435 CURVE",
"553 405 OFFCURVE",
"548 324 OFFCURVE",
"554 255 CURVE",
"614 281 LINE",
"523 281 LINE",
"523 385 LINE",
"523 453 OFFCURVE",
"529 516 OFFCURVE",
"577 516 CURVE",
"597 573 OFFCURVE",
"602 718 OFFCURVE",
"579 775 CURVE",
"529 770 OFFCURVE",
"419 760 OFFCURVE",
"329 760 CURVE SMOOTH",
"247 760 OFFCURVE",
"94 770 OFFCURVE",
"29 775 CURVE",
"3 718 OFFCURVE",
"1 590 OFFCURVE",
"25 533 CURVE",
"58 529 OFFCURVE",
"91 496 OFFCURVE",
"91 377 CURVE SMOOTH",
"91 253 OFFCURVE",
"49 230 OFFCURVE",
"25 222 CURVE",
"8 173 OFFCURVE",
"8 46 OFFCURVE",
"31 -17 CURVE"
);
}
);
};
layerId = "863809E3-B3D3-4728-B9C6-73F0AB5A9F00";
paths = (
{
closed = 1;
nodes = (
"90 -11 OFFCURVE",
"309 -2 OFFCURVE",
"458 -2 CURVE SMOOTH",
"609 -2 OFFCURVE",
"754 -15 OFFCURVE",
"888 -17 CURVE",
"893 1 OFFCURVE",
"901 133 OFFCURVE",
"903 237 CURVE",
"947 269 OFFCURVE",
"969 317 OFFCURVE",
"969 382 CURVE SMOOTH",
"969 506 OFFCURVE",
"892 567 OFFCURVE",
"742 567 CURVE SMOOTH",
"671 567 OFFCURVE",
"617 552 OFFCURVE",
"579 524 CURVE",
"597 593 OFFCURVE",
"601 720 OFFCURVE",
"579 775 CURVE",
"529 770 OFFCURVE",
"419 760 OFFCURVE",
"329 760 CURVE SMOOTH",
"247 760 OFFCURVE",
"94 770 OFFCURVE",
"29 775 CURVE",
"3 718 OFFCURVE",
"1 590 OFFCURVE",
"25 533 CURVE",
"58 529 OFFCURVE",
"91 496 OFFCURVE",
"91 377 CURVE SMOOTH",
"91 253 OFFCURVE",
"49 230 OFFCURVE",
"25 222 CURVE",
"8 173 OFFCURVE",
"8 46 OFFCURVE",
"31 -17 CURVE"
);
},
{
closed = 1;
nodes = (
"774 195 OFFCURVE",
"804 198 OFFCURVE",
"831 205 CURVE",
"697 115 OFFCURVE",
"449 173 OFFCURVE",
"517 377 CURVE",
"519 255 OFFCURVE",
"594 195 OFFCURVE",
"739 195 CURVE SMOOTH"
);
}
);
width = 969;
},
{
background = {
paths = (
{
closed = 1;
nodes = (
"90 -11 OFFCURVE",
"309 -2 OFFCURVE",
"458 -2 CURVE SMOOTH",
"609 -2 OFFCURVE",
"754 -15 OFFCURVE",
"888 -17 CURVE",
"905 45 OFFCURVE",
"908 348 OFFCURVE",
"888 435 CURVE",
"794 451 OFFCURVE",
"650 451 OFFCURVE",
"559 435 CURVE",
"553 405 OFFCURVE",
"548 324 OFFCURVE",
"554 255 CURVE",
"614 281 LINE",
"523 281 LINE",
"523 385 LINE",
"523 453 OFFCURVE",
"529 516 OFFCURVE",
"577 516 CURVE",
"597 573 OFFCURVE",
"602 718 OFFCURVE",
"579 775 CURVE",
"529 770 OFFCURVE",
"419 760 OFFCURVE",
"329 760 CURVE SMOOTH",
"247 760 OFFCURVE",
"94 770 OFFCURVE",
"29 775 CURVE",
"3 718 OFFCURVE",
"1 590 OFFCURVE",
"25 533 CURVE",
"58 529 OFFCURVE",
"91 496 OFFCURVE",
"91 377 CURVE SMOOTH",
"91 253 OFFCURVE",
"49 230 OFFCURVE",
"25 222 CURVE",
"8 173 OFFCURVE",
"8 46 OFFCURVE",
"31 -17 CURVE"
);
}
);
};
layerId = "BDCFD595-0135-4C14-B4A6-60502184522E";
paths = (
{
closed = 1;
nodes = (
"240 -166 OFFCURVE",
"459 -157 OFFCURVE",
"608 -157 CURVE SMOOTH",
"759 -157 OFFCURVE",
"904 -170 OFFCURVE",
"1038 -172 CURVE",
"1043 -154 OFFCURVE",
"1051 -22 OFFCURVE",
"1053 82 CURVE",
"1097 114 OFFCURVE",
"1119 162 OFFCURVE",
"1119 227 CURVE SMOOTH",
"1119 281 OFFCURVE",
"1103 325 OFFCURVE",
"1075 354 CURVE SMOOTH",
"927 505 LINE SMOOTH",
"888 546 OFFCURVE",
"830 567 OFFCURVE",
"742 567 CURVE",
"739 584 OFFCURVE",
"734 608 OFFCURVE",
"729 620 CURVE",
"579 775 LINE",
"529 770 OFFCURVE",
"419 760 OFFCURVE",
"329 760 CURVE SMOOTH",
"247 760 OFFCURVE",
"94 770 OFFCURVE",
"29 775 CURVE",
"3 718 OFFCURVE",
"1 590 OFFCURVE",
"25 533 CURVE",
"79 477 LINE",
"86 454 OFFCURVE",
"91 421 OFFCURVE",
"91 377 CURVE SMOOTH",
"91 253 OFFCURVE",
"49 230 OFFCURVE",
"25 222 CURVE",
"8 173 OFFCURVE",
"8 46 OFFCURVE",
"31 -17 CURVE",
"181 -172 LINE"
);
}
);
width = 969;
}
);
leftKerningGroup = N;
rightKerningGroup = periodcentered;
unicode = 013F;
},
{
color = 5;
glyphname = Lslash;
lastChange = "2017-11-24 10:13:39 +0000";
layers = (
{
layerId = "863809E3-B3D3-4728-B9C6-73F0AB5A9F00";
paths = (
{
closed = 1;
nodes = (
"90 -11 OFFCURVE",
"309 -2 OFFCURVE",
"458 -2 CURVE SMOOTH",
"609 -2 OFFCURVE",
"754 -15 OFFCURVE",
"888 -17 CURVE",
"905 45 OFFCURVE",
"908 348 OFFCURVE",
"888 435 CURVE",
"850 441 OFFCURVE",
"804 445 OFFCURVE",
"757 447 CURVE",
"753 499 OFFCURVE",
"733 558 OFFCURVE",
"696 628 CURVE",
"660 616 OFFCURVE",
"625 604 OFFCURVE",
"591 593 CURVE",
"597 657 OFFCURVE",
"595 736 OFFCURVE",
"579 775 CURVE",
"529 770 OFFCURVE",
"419 760 OFFCURVE",
"329 760 CURVE SMOOTH",
"247 760 OFFCURVE",
"94 770 OFFCURVE",
"29 775 CURVE",
"3 718 OFFCURVE",
"1 590 OFFCURVE",
"25 533 CURVE",
"43 531 OFFCURVE",
"63 518 OFFCURVE",
"76 491 CURVE",
"174 505 LINE",
"144 477 OFFCURVE",
"116 464 OFFCURVE",
"23 448 CURVE",
"19 394 OFFCURVE",
"35 335 OFFCURVE",
"70 262 CURVE",
"56 235 OFFCURVE",
"38 226 OFFCURVE",
"25 222 CURVE",
"8 173 OFFCURVE",
"8 46 OFFCURVE",
"31 -17 CURVE"
);
},
{
closed = 1;
nodes = (
"523 365 LINE",
"552 365 LINE",
"552 281 LINE",
"523 281 LINE"
);
}
);
width = 909;
},
{
layerId = "BDCFD595-0135-4C14-B4A6-60502184522E";
paths = (
{
closed = 1;
nodes = (
"240 -166 OFFCURVE",
"459 -157 OFFCURVE",
"608 -157 CURVE SMOOTH",
"759 -157 OFFCURVE",
"904 -170 OFFCURVE",
"1038 -172 CURVE",
"1055 -110 OFFCURVE",
"1058 193 OFFCURVE",
"1038 280 CURVE",
"888 435 LINE",
"863 438 LINE",
"858 450 OFFCURVE",
"852 461 OFFCURVE",
"846 473 CURVE",
"738 584 LINE",
"736 598 OFFCURVE",
"733 610 OFFCURVE",
"729 620 CURVE",
"579 775 LINE",
"529 770 OFFCURVE",
"419 760 OFFCURVE",
"329 760 CURVE SMOOTH",
"247 760 OFFCURVE",
"94 770 OFFCURVE",
"29 775 CURVE",
"3 718 OFFCURVE",
"1 590 OFFCURVE",
"25 533 CURVE",
"93 463 LINE",
"75 458 OFFCURVE",
"52 453 OFFCURVE",
"23 448 CURVE",
"19 394 OFFCURVE",
"35 335 OFFCURVE",
"70 262 CURVE",
"56 235 OFFCURVE",
"38 226 OFFCURVE",
"25 222 CURVE",
"8 173 OFFCURVE",
"8 46 OFFCURVE",
"31 -17 CURVE",
"181 -172 LINE"
);
}
);
width = 909;
}
);
leftKerningGroup = Lslash;
leftMetricsKey = "=L";
rightKerningGroup = L;
rightMetricsKey = "=L";
unicode = 0141;
},
{
color = 4;
glyphname = M;
lastChange = "2017-11-24 10:13:39 +0000";
layers = (
{
layerId = "863809E3-B3D3-4728-B9C6-73F0AB5A9F00";
paths = (
{
closed = 1;
nodes = (
"79 -12 OFFCURVE",
"182 -1 OFFCURVE",
"330 -1 CURVE SMOOTH",
"432 -1 OFFCURVE",
"573 -12 OFFCURVE",
"625 -17 CURVE",
"646 126 OFFCURVE",
"589 145 OFFCURVE",
"527 173 CURVE SMOOTH",
"418 222 LINE",
"430 249 LINE",
"624 164 LINE",
"683 334 LINE",
"693 222 LINE",
"658 222 LINE",
"650 165 OFFCURVE",
"653 40 OFFCURVE",
"665 -17 CURVE",
"720 -12 OFFCURVE",
"830 -1 OFFCURVE",
"944 -1 CURVE SMOOTH",
"1062 -1 OFFCURVE",
"1136 -12 OFFCURVE",
"1191 -17 CURVE",
"1213 40 OFFCURVE",
"1216 165 OFFCURVE",
"1198 222 CURVE",
"1166 233 OFFCURVE",
"1131 263 OFFCURVE",
"1105 380 CURVE SMOOTH",
"1077 507 OFFCURVE",
"1128 532 OFFCURVE",
"1148 533 CURVE",
"1171 582 OFFCURVE",
"1171 712 OFFCURVE",
"1144 775 CURVE",
"1093 770 OFFCURVE",
"983 761 OFFCURVE",
"915 761 CURVE SMOOTH",
"811 761 OFFCURVE",
"749 770 OFFCURVE",
"666 775 CURVE",
"656 723 OFFCURVE",
"654 643 OFFCURVE",
"653 570 CURVE",
"617 641 OFFCURVE",
"617 724 OFFCURVE",
"625 775 CURVE",
"537 767 OFFCURVE",
"393 761 OFFCURVE",
"282 761 CURVE SMOOTH",
"190 761 OFFCURVE",
"117 769 OFFCURVE",
"66 775 CURVE",
"39 712 OFFCURVE",
"39 582 OFFCURVE",
"62 533 CURVE",
"82 532 OFFCURVE",
"135 507 OFFCURVE",
"114 378 CURVE SMOOTH",
"95 262 OFFCURVE",
"52 233 OFFCURVE",
"20 222 CURVE",
"2 165 OFFCURVE",
"5 40 OFFCURVE",
"27 -17 CURVE"
);
}
);
width = 1218;
},
{
layerId = "BDCFD595-0135-4C14-B4A6-60502184522E";
paths = (
{
closed = 1;
nodes = (
"229 -167 OFFCURVE",
"332 -156 OFFCURVE",
"480 -156 CURVE SMOOTH",
"582 -156 OFFCURVE",
"723 -167 OFFCURVE",
"775 -172 CURVE",
"777 -158 OFFCURVE",
"778 -146 OFFCURVE",
"779 -135 CURVE",
"815 -172 LINE",
"870 -167 OFFCURVE",
"980 -156 OFFCURVE",
"1094 -156 CURVE SMOOTH",
"1212 -156 OFFCURVE",
"1286 -167 OFFCURVE",
"1341 -172 CURVE",
"1363 -115 OFFCURVE",
"1366 10 OFFCURVE",
"1348 67 CURVE",
"1316 78 OFFCURVE",
"1281 108 OFFCURVE",
"1255 225 CURVE SMOOTH",
"1227 352 OFFCURVE",
"1278 377 OFFCURVE",
"1298 378 CURVE",
"1321 427 OFFCURVE",
"1321 557 OFFCURVE",
"1294 620 CURVE",
"1144 775 LINE",
"1093 770 OFFCURVE",
"983 761 OFFCURVE",
"915 761 CURVE SMOOTH",
"811 761 OFFCURVE",
"749 770 OFFCURVE",
"666 775 CURVE",
"664 764 OFFCURVE",
"662 752 OFFCURVE",
"661 738 CURVE",
"625 775 LINE",
"537 767 OFFCURVE",
"393 761 OFFCURVE",
"282 761 CURVE SMOOTH",
"190 761 OFFCURVE",
"117 769 OFFCURVE",
"66 775 CURVE",
"39 712 OFFCURVE",
"39 582 OFFCURVE",
"62 533 CURVE",
"113 480 LINE",
"120 457 OFFCURVE",
"122 424 OFFCURVE",
"114 378 CURVE SMOOTH",
"95 262 OFFCURVE",
"52 233 OFFCURVE",
"20 222 CURVE",
"2 165 OFFCURVE",
"5 40 OFFCURVE",
"27 -17 CURVE",
"177 -172 LINE"
);
}
);
width = 1218;
}
);
leftKerningGroup = M;
rightKerningGroup = M;
unicode = 004D;
},
{
color = 4;
glyphname = N;
lastChange = "2017-11-24 10:13:39 +0000";
layers = (
{
layerId = "863809E3-B3D3-4728-B9C6-73F0AB5A9F00";
paths = (
{
closed = 1;
nodes = (
"87 -12 OFFCURVE",
"174 -1 OFFCURVE",
"255 -1 CURVE SMOOTH",
"341 -1 OFFCURVE",
"404 -12 OFFCURVE",
"448 -17 CURVE",
"473 98 OFFCURVE",
"461 157 OFFCURVE",
"375 215 CURVE",
"391 239 LINE",
"487 176 OFFCURVE",
"507 114 OFFCURVE",
"479 -17 CURVE",
"601 -12 OFFCURVE",
"701 -1 OFFCURVE",
"813 -1 CURVE SMOOTH",
"899 -1 OFFCURVE",
"986 -10 OFFCURVE",
"1039 -17 CURVE",
"1061 40 OFFCURVE",
"1064 165 OFFCURVE",
"1046 222 CURVE",
"1014 233 OFFCURVE",
"980 263 OFFCURVE",
"980 381 CURVE SMOOTH",
"980 509 OFFCURVE",
"1021 531 OFFCURVE",
"1045 532 CURVE",
"1066 581 OFFCURVE",
"1067 712 OFFCURVE",
"1042 775 CURVE",
"987 770 OFFCURVE",
"921 760 OFFCURVE",
"838 760 CURVE SMOOTH",
"744 760 OFFCURVE",
"673 773 OFFCURVE",
"616 775 CURVE",
"586 653 OFFCURVE",
"599 615 OFFCURVE",
"725 556 CURVE",
"712 530 LINE",
"573 596 OFFCURVE",
"553 643 OFFCURVE",
"586 775 CURVE",
"443 766 OFFCURVE",
"342 761 OFFCURVE",
"245 761 CURVE SMOOTH",
"177 761 OFFCURVE",
"84 770 OFFCURVE",
"29 775 CURVE",
"2 712 OFFCURVE",
"2 582 OFFCURVE",
"25 533 CURVE",
"49 532 OFFCURVE",
"91 509 OFFCURVE",
"91 381 CURVE SMOOTH",
"91 263 OFFCURVE",
"57 233 OFFCURVE",
"25 222 CURVE",
"7 165 OFFCURVE",
"10 40 OFFCURVE",
"32 -17 CURVE"
);
}
);
width = 1069;
},
{
layerId = "BDCFD595-0135-4C14-B4A6-60502184522E";
paths = (
{
closed = 1;
nodes = (
"237 -167 OFFCURVE",
"324 -156 OFFCURVE",
"405 -156 CURVE SMOOTH",
"491 -156 OFFCURVE",
"554 -167 OFFCURVE",
"598 -172 CURVE",
"600 -163 OFFCURVE",
"602 -154 OFFCURVE",
"603 -145 CURVE",
"629 -172 LINE",
"751 -167 OFFCURVE",
"851 -156 OFFCURVE",
"963 -156 CURVE SMOOTH",
"1049 -156 OFFCURVE",
"1136 -165 OFFCURVE",
"1189 -172 CURVE",
"1211 -115 OFFCURVE",
"1214 10 OFFCURVE",
"1196 67 CURVE",
"1164 78 OFFCURVE",
"1130 108 OFFCURVE",
"1130 226 CURVE SMOOTH",
"1130 354 OFFCURVE",
"1171 376 OFFCURVE",
"1195 377 CURVE",
"1216 426 OFFCURVE",
"1217 557 OFFCURVE",
"1192 620 CURVE",
"1042 775 LINE",
"987 770 OFFCURVE",
"921 760 OFFCURVE",
"838 760 CURVE SMOOTH",
"744 760 OFFCURVE",
"673 773 OFFCURVE",
"616 775 CURVE",
"610 750 LINE",
"586 775 LINE",
"443 766 OFFCURVE",
"342 761 OFFCURVE",
"245 761 CURVE SMOOTH",
"177 761 OFFCURVE",
"84 770 OFFCURVE",
"29 775 CURVE",
"2 712 OFFCURVE",
"2 582 OFFCURVE",
"25 533 CURVE",
"79 477 LINE",
"86 455 OFFCURVE",
"91 424 OFFCURVE",
"91 381 CURVE SMOOTH",
"91 263 OFFCURVE",
"57 233 OFFCURVE",
"25 222 CURVE",
"7 165 OFFCURVE",
"10 40 OFFCURVE",
"32 -17 CURVE",
"182 -172 LINE"
);
}
);
width = 1069;
}
);
leftKerningGroup = N;
rightKerningGroup = N;
unicode = 004E;
},
{
color = 5;
glyphname = Nacute;
lastChange = "2017-11-24 10:13:39 +0000";
layers = (
{
background = {
paths = (
{
closed = 1;
nodes = (
"87 -12 OFFCURVE",
"174 -1 OFFCURVE",
"255 -1 CURVE SMOOTH",
"341 -1 OFFCURVE",
"404 -12 OFFCURVE",
"448 -17 CURVE",
"479 128 OFFCURVE",
"452 184 OFFCURVE",
"293 261 CURVE",
"353 183 LINE",
"420 281 LINE",
"307 286 LINE",
"474 203 OFFCURVE",
"514 146 OFFCURVE",
"479 -17 CURVE",
"601 -12 OFFCURVE",
"701 -1 OFFCURVE",
"813 -1 CURVE SMOOTH",
"899 -1 OFFCURVE",
"986 -10 OFFCURVE",
"1039 -17 CURVE",
"1061 40 OFFCURVE",
"1064 165 OFFCURVE",
"1046 222 CURVE",
"1014 233 OFFCURVE",
"980 263 OFFCURVE",
"980 381 CURVE SMOOTH",
"980 509 OFFCURVE",
"1021 531 OFFCURVE",
"1045 532 CURVE",
"1066 581 OFFCURVE",
"1067 712 OFFCURVE",
"1042 775 CURVE",
"987 770 OFFCURVE",
"921 760 OFFCURVE",
"838 760 CURVE SMOOTH",
"744 760 OFFCURVE",
"673 773 OFFCURVE",
"616 775 CURVE",
"582 635 OFFCURVE",
"604 605 OFFCURVE",
"788 529 CURVE",
"741 589 LINE",
"693 492 LINE",
"776 502 LINE",
"580 584 OFFCURVE",
"549 625 OFFCURVE",
"586 775 CURVE",
"443 766 OFFCURVE",
"342 761 OFFCURVE",
"245 761 CURVE SMOOTH",
"177 761 OFFCURVE",
"84 770 OFFCURVE",
"29 775 CURVE",
"2 712 OFFCURVE",
"2 582 OFFCURVE",
"25 533 CURVE",
"49 532 OFFCURVE",
"91 509 OFFCURVE",
"91 381 CURVE SMOOTH",
"91 263 OFFCURVE",
"57 233 OFFCURVE",
"25 222 CURVE",
"7 165 OFFCURVE",
"10 40 OFFCURVE",
"32 -17 CURVE"
);
},
{
closed = 0;
nodes = (
"709 767 LINE",
"749 685 LINE",
"764 716 OFFCURVE",
"785 773 OFFCURVE",
"790 803 CURVE",
"740 866 OFFCURVE",
"530 904 OFFCURVE",
"408 854 CURVE",
"316 725 OFFCURVE",
"334 554 OFFCURVE",
"436 510 CURVE",
"456 529 LINE",
"292 532 OFFCURVE",
"311 682 OFFCURVE",
"333 776 CURVE",
"346 767 LINE"
);
}
);
};
layerId = "863809E3-B3D3-4728-B9C6-73F0AB5A9F00";
paths = (
{
closed = 1;
nodes = (
"87 -12 OFFCURVE",
"174 -1 OFFCURVE",
"255 -1 CURVE SMOOTH",
"341 -1 OFFCURVE",
"404 -12 OFFCURVE",
"448 -17 CURVE",
"473 98 OFFCURVE",
"461 157 OFFCURVE",
"375 215 CURVE",
"391 239 LINE",
"487 176 OFFCURVE",
"507 114 OFFCURVE",
"479 -17 CURVE",
"601 -12 OFFCURVE",
"701 -1 OFFCURVE",
"813 -1 CURVE SMOOTH",
"899 -1 OFFCURVE",
"986 -10 OFFCURVE",
"1039 -17 CURVE",
"1061 40 OFFCURVE",
"1064 165 OFFCURVE",
"1046 222 CURVE",
"1014 233 OFFCURVE",
"980 263 OFFCURVE",
"980 381 CURVE SMOOTH",
"980 509 OFFCURVE",
"1021 531 OFFCURVE",
"1045 532 CURVE",
"1066 581 OFFCURVE",
"1067 712 OFFCURVE",
"1042 775 CURVE",
"987 770 OFFCURVE",
"921 760 OFFCURVE",
"838 760 CURVE SMOOTH",
"817 760 OFFCURVE",
"798 761 OFFCURVE",
"779 761 CURVE",
"784 777 OFFCURVE",
"788 792 OFFCURVE",
"790 803 CURVE",
"740 866 OFFCURVE",
"530 904 OFFCURVE",
"408 854 CURVE",
"330 745 OFFCURVE",
"331 606 OFFCURVE",
"394 539 CURVE",
"301 573 OFFCURVE",
"306 683 OFFCURVE",
"323 762 CURVE",
"296 762 OFFCURVE",
"270 761 OFFCURVE",
"245 761 CURVE SMOOTH",
"177 761 OFFCURVE",
"84 770 OFFCURVE",
"29 775 CURVE",
"2 712 OFFCURVE",
"2 582 OFFCURVE",
"25 533 CURVE",
"49 532 OFFCURVE",
"91 509 OFFCURVE",
"91 381 CURVE SMOOTH",
"91 263 OFFCURVE",
"57 233 OFFCURVE",
"25 222 CURVE",
"7 165 OFFCURVE",
"10 40 OFFCURVE",
"32 -17 CURVE"
);
},
{
closed = 1;
nodes = (
"709 580 LINE",
"742 580 LINE",
"742 499 LINE",
"709 499 LINE"
);
}
);
width = 1069;
},
{
background = {
paths = (
{
closed = 1;
nodes = (
"87 -12 OFFCURVE",
"174 -1 OFFCURVE",
"255 -1 CURVE SMOOTH",
"341 -1 OFFCURVE",
"404 -12 OFFCURVE",
"448 -17 CURVE",
"479 128 OFFCURVE",
"452 184 OFFCURVE",
"293 261 CURVE",
"353 183 LINE",
"420 281 LINE",
"307 286 LINE",
"474 203 OFFCURVE",
"514 146 OFFCURVE",
"479 -17 CURVE",
"601 -12 OFFCURVE",
"701 -1 OFFCURVE",
"813 -1 CURVE SMOOTH",
"899 -1 OFFCURVE",
"986 -10 OFFCURVE",
"1039 -17 CURVE",
"1061 40 OFFCURVE",
"1064 165 OFFCURVE",
"1046 222 CURVE",
"1014 233 OFFCURVE",
"980 263 OFFCURVE",
"980 381 CURVE SMOOTH",
"980 509 OFFCURVE",
"1021 531 OFFCURVE",
"1045 532 CURVE",
"1066 581 OFFCURVE",
"1067 712 OFFCURVE",
"1042 775 CURVE",
"987 770 OFFCURVE",
"921 760 OFFCURVE",
"838 760 CURVE SMOOTH",
"744 760 OFFCURVE",
"673 773 OFFCURVE",
"616 775 CURVE",
"582 635 OFFCURVE",
"604 605 OFFCURVE",
"788 529 CURVE",
"741 589 LINE",
"693 492 LINE",
"776 502 LINE",
"580 584 OFFCURVE",
"549 625 OFFCURVE",
"586 775 CURVE",
"443 766 OFFCURVE",
"342 761 OFFCURVE",
"245 761 CURVE SMOOTH",
"177 761 OFFCURVE",
"84 770 OFFCURVE",
"29 775 CURVE",
"2 712 OFFCURVE",
"2 582 OFFCURVE",
"25 533 CURVE",
"49 532 OFFCURVE",
"91 509 OFFCURVE",
"91 381 CURVE SMOOTH",
"91 263 OFFCURVE",
"57 233 OFFCURVE",
"25 222 CURVE",
"7 165 OFFCURVE",
"10 40 OFFCURVE",
"32 -17 CURVE"
);
},
{
closed = 0;
nodes = (
"709 767 LINE",
"749 685 LINE",
"764 716 OFFCURVE",
"785 773 OFFCURVE",
"790 803 CURVE",
"740 866 OFFCURVE",
"530 904 OFFCURVE",
"408 854 CURVE",
"316 725 OFFCURVE",
"334 554 OFFCURVE",
"436 510 CURVE",
"456 529 LINE",
"292 532 OFFCURVE",
"311 682 OFFCURVE",
"333 776 CURVE",
"346 767 LINE"
);
}
);
};
layerId = "BDCFD595-0135-4C14-B4A6-60502184522E";
paths = (
{
closed = 1;
nodes = (
"237 -167 OFFCURVE",
"324 -156 OFFCURVE",
"405 -156 CURVE SMOOTH",
"491 -156 OFFCURVE",
"554 -167 OFFCURVE",
"598 -172 CURVE",
"600 -163 OFFCURVE",
"602 -154 OFFCURVE",
"603 -145 CURVE",
"629 -172 LINE",
"751 -167 OFFCURVE",
"851 -156 OFFCURVE",
"963 -156 CURVE SMOOTH",
"1049 -156 OFFCURVE",
"1136 -165 OFFCURVE",
"1189 -172 CURVE",
"1211 -115 OFFCURVE",
"1214 10 OFFCURVE",
"1196 67 CURVE",
"1164 78 OFFCURVE",
"1130 108 OFFCURVE",
"1130 226 CURVE SMOOTH",
"1130 354 OFFCURVE",
"1171 376 OFFCURVE",
"1195 377 CURVE",
"1216 426 OFFCURVE",
"1217 557 OFFCURVE",
"1192 620 CURVE",
"1042 775 LINE",
"987 770 OFFCURVE",
"921 760 OFFCURVE",
"838 760 CURVE SMOOTH",
"832 760 LINE",
"790 803 LINE",
"740 866 OFFCURVE",
"530 904 OFFCURVE",
"408 854 CURVE",
"380 815 OFFCURVE",
"362 772 OFFCURVE",
"354 730 CURVE",
"323 762 LINE",
"296 762 OFFCURVE",
"270 761 OFFCURVE",
"245 761 CURVE SMOOTH",
"177 761 OFFCURVE",
"84 770 OFFCURVE",
"29 775 CURVE",
"2 712 OFFCURVE",
"2 582 OFFCURVE",
"25 533 CURVE",
"79 477 LINE",
"86 455 OFFCURVE",
"91 424 OFFCURVE",
"91 381 CURVE SMOOTH",
"91 263 OFFCURVE",
"57 233 OFFCURVE",
"25 222 CURVE",
"7 165 OFFCURVE",
"10 40 OFFCURVE",
"32 -17 CURVE",
"182 -172 LINE"
);
}
);
width = 1069;
}
);
leftKerningGroup = N;
leftMetricsKey = "=N";
rightKerningGroup = N;
rightMetricsKey = "=N";
unicode = 0143;
},
{
color = 5;
glyphname = Ncaron;
lastChange = "2017-11-24 10:13:39 +0000";
layers = (
{
layerId = "863809E3-B3D3-4728-B9C6-73F0AB5A9F00";
paths = (
{
closed = 1;
nodes = (
"87 -12 OFFCURVE",
"174 -1 OFFCURVE",
"255 -1 CURVE SMOOTH",
"341 -1 OFFCURVE",
"404 -12 OFFCURVE",
"448 -17 CURVE",
"473 98 OFFCURVE",
"461 157 OFFCURVE",
"375 215 CURVE",
"391 239 LINE",
"487 176 OFFCURVE",
"507 114 OFFCURVE",
"479 -17 CURVE",
"601 -12 OFFCURVE",
"701 -1 OFFCURVE",
"813 -1 CURVE SMOOTH",
"899 -1 OFFCURVE",
"986 -10 OFFCURVE",
"1039 -17 CURVE",
"1061 40 OFFCURVE",
"1064 165 OFFCURVE",
"1046 222 CURVE",
"1014 233 OFFCURVE",
"980 263 OFFCURVE",
"980 381 CURVE SMOOTH",
"980 509 OFFCURVE",
"1021 531 OFFCURVE",
"1045 532 CURVE",
"1066 581 OFFCURVE",
"1067 712 OFFCURVE",
"1042 775 CURVE",
"994 771 OFFCURVE",
"937 762 OFFCURVE",
"868 760 CURVE",
"874 790 OFFCURVE",
"875 819 OFFCURVE",
"871 847 CURVE",
"836 865 OFFCURVE",
"738 874 OFFCURVE",
"693 875 CURVE",
"640 861 OFFCURVE",
"579 811 OFFCURVE",
"524 748 CURVE",
"499 765 LINE",
"517 785 OFFCURVE",
"535 804 OFFCURVE",
"553 821 CURVE",
"519 846 OFFCURVE",
"480 867 OFFCURVE",
"451 875 CURVE",
"410 874 OFFCURVE",
"318 865 OFFCURVE",
"283 847 CURVE",
"267 747 OFFCURVE",
"321 627 OFFCURVE",
"384 560 CURVE",
"312 591 OFFCURVE",
"251 688 OFFCURVE",
"247 761 CURVE",
"175 762 OFFCURVE",
"97 769 OFFCURVE",
"29 775 CURVE",
"2 712 OFFCURVE",
"2 582 OFFCURVE",
"25 533 CURVE",
"49 532 OFFCURVE",
"91 509 OFFCURVE",
"91 381 CURVE SMOOTH",
"91 263 OFFCURVE",
"57 233 OFFCURVE",
"25 222 CURVE",
"7 165 OFFCURVE",
"10 40 OFFCURVE",
"32 -17 CURVE"
);
},
{
closed = 1;
nodes = (
"709 550 LINE",
"742 550 LINE",
"742 499 LINE",
"709 499 LINE"
);
}
);
width = 1069;
},
{
layerId = "BDCFD595-0135-4C14-B4A6-60502184522E";
paths = (
{
closed = 1;
nodes = (
"237 -167 OFFCURVE",
"324 -156 OFFCURVE",
"405 -156 CURVE SMOOTH",
"491 -156 OFFCURVE",
"554 -167 OFFCURVE",
"598 -172 CURVE",
"600 -163 OFFCURVE",
"602 -154 OFFCURVE",
"603 -145 CURVE",
"629 -172 LINE",
"751 -167 OFFCURVE",
"851 -156 OFFCURVE",
"963 -156 CURVE SMOOTH",
"1049 -156 OFFCURVE",
"1136 -165 OFFCURVE",
"1189 -172 CURVE",
"1211 -115 OFFCURVE",
"1214 10 OFFCURVE",
"1196 67 CURVE",
"1164 78 OFFCURVE",
"1130 108 OFFCURVE",
"1130 226 CURVE SMOOTH",
"1130 354 OFFCURVE",
"1171 376 OFFCURVE",
"1195 377 CURVE",
"1216 426 OFFCURVE",
"1217 557 OFFCURVE",
"1192 620 CURVE",
"1042 775 LINE",
"1014 773 OFFCURVE",
"984 769 OFFCURVE",
"950 765 CURVE",
"871 847 LINE",
"836 865 OFFCURVE",
"738 874 OFFCURVE",
"693 875 CURVE",
"656 865 OFFCURVE",
"614 837 OFFCURVE",
"574 800 CURVE",
"553 821 LINE",
"519 846 OFFCURVE",
"480 867 OFFCURVE",
"451 875 CURVE",
"410 874 OFFCURVE",
"318 865 OFFCURVE",
"283 847 CURVE",
"276 803 OFFCURVE",
"283 754 OFFCURVE",
"298 708 CURVE",
"247 761 LINE",
"175 762 OFFCURVE",
"97 769 OFFCURVE",
"29 775 CURVE",
"2 712 OFFCURVE",
"2 582 OFFCURVE",
"25 533 CURVE",
"79 477 LINE",
"86 455 OFFCURVE",
"91 424 OFFCURVE",
"91 381 CURVE SMOOTH",
"91 263 OFFCURVE",
"57 233 OFFCURVE",
"25 222 CURVE",
"7 165 OFFCURVE",
"10 40 OFFCURVE",
"32 -17 CURVE",
"182 -172 LINE"
);
}
);
width = 1069;
}
);
leftKerningGroup = N;
leftMetricsKey = "=N";
rightKerningGroup = N;
rightMetricsKey = "=N";
unicode = 0147;
},
{
color = 5;
glyphname = Ncommaaccent;
lastChange = "2017-11-24 10:13:39 +0000";
layers = (
{
background = {
paths = (
{
closed = 1;
nodes = (
"87 -12 OFFCURVE",
"174 -1 OFFCURVE",
"255 -1 CURVE SMOOTH",
"341 -1 OFFCURVE",
"404 -12 OFFCURVE",
"448 -17 CURVE",
"479 128 OFFCURVE",
"452 184 OFFCURVE",
"293 261 CURVE",
"353 183 LINE",
"420 281 LINE",
"307 286 LINE",
"474 203 OFFCURVE",
"514 146 OFFCURVE",
"479 -17 CURVE",
"601 -12 OFFCURVE",
"701 -1 OFFCURVE",
"813 -1 CURVE SMOOTH",
"899 -1 OFFCURVE",
"986 -10 OFFCURVE",
"1039 -17 CURVE",
"1061 40 OFFCURVE",
"1064 165 OFFCURVE",
"1046 222 CURVE",
"1014 233 OFFCURVE",
"980 263 OFFCURVE",
"980 381 CURVE SMOOTH",
"980 509 OFFCURVE",
"1021 531 OFFCURVE",
"1045 532 CURVE",
"1066 581 OFFCURVE",
"1067 712 OFFCURVE",
"1042 775 CURVE",
"987 770 OFFCURVE",
"921 760 OFFCURVE",
"838 760 CURVE SMOOTH",
"744 760 OFFCURVE",
"673 773 OFFCURVE",
"616 775 CURVE",
"582 635 OFFCURVE",
"604 605 OFFCURVE",
"788 529 CURVE",
"741 589 LINE",
"693 492 LINE",
"776 502 LINE",
"580 584 OFFCURVE",
"549 625 OFFCURVE",
"586 775 CURVE",
"443 766 OFFCURVE",
"342 761 OFFCURVE",
"245 761 CURVE SMOOTH",
"177 761 OFFCURVE",
"84 770 OFFCURVE",
"29 775 CURVE",
"2 712 OFFCURVE",
"2 582 OFFCURVE",
"25 533 CURVE",
"49 532 OFFCURVE",
"91 509 OFFCURVE",
"91 381 CURVE SMOOTH",
"91 263 OFFCURVE",
"57 233 OFFCURVE",
"25 222 CURVE",
"7 165 OFFCURVE",
"10 40 OFFCURVE",
"32 -17 CURVE"
);
},
{
closed = 1;
nodes = (
"687 -120 OFFCURVE",
"753 -50 OFFCURVE",
"753 39 CURVE SMOOTH",
"753 137 OFFCURVE",
"677 187 OFFCURVE",
"511 187 CURVE SMOOTH",
"391 187 OFFCURVE",
"309 139 OFFCURVE",
"309 37 CURVE",
"358 -17 OFFCURVE",
"355 -113 OFFCURVE",
"339 -163 CURVE",
"376 -174 OFFCURVE",
"545 -177 OFFCURVE",
"584 -170 CURVE"
);
}
);
};
layerId = "863809E3-B3D3-4728-B9C6-73F0AB5A9F00";
paths = (
{
closed = 1;
nodes = (
"692 -128 OFFCURVE",
"752 -73 OFFCURVE",
"770 -4 CURVE",
"799 -2 OFFCURVE",
"817 -1 OFFCURVE",
"833 -1 CURVE SMOOTH",
"899 -1 OFFCURVE",
"986 -10 OFFCURVE",
"1039 -17 CURVE",
"1061 40 OFFCURVE",
"1064 165 OFFCURVE",
"1046 222 CURVE",
"1014 233 OFFCURVE",
"980 263 OFFCURVE",
"980 381 CURVE SMOOTH",
"980 509 OFFCURVE",
"1021 531 OFFCURVE",
"1045 532 CURVE",
"1066 581 OFFCURVE",
"1067 712 OFFCURVE",
"1042 775 CURVE",
"987 770 OFFCURVE",
"921 760 OFFCURVE",
"838 760 CURVE SMOOTH",
"744 760 OFFCURVE",
"673 773 OFFCURVE",
"616 775 CURVE",
"586 653 OFFCURVE",
"599 615 OFFCURVE",
"725 556 CURVE",
"712 530 LINE",
"573 596 OFFCURVE",
"553 643 OFFCURVE",
"586 775 CURVE",
"443 766 OFFCURVE",
"342 761 OFFCURVE",
"245 761 CURVE SMOOTH",
"177 761 OFFCURVE",
"84 770 OFFCURVE",
"29 775 CURVE",
"2 712 OFFCURVE",
"2 582 OFFCURVE",
"25 533 CURVE",
"49 532 OFFCURVE",
"91 509 OFFCURVE",
"91 381 CURVE SMOOTH",
"91 263 OFFCURVE",
"57 233 OFFCURVE",
"25 222 CURVE",
"7 165 OFFCURVE",
"10 40 OFFCURVE",
"32 -17 CURVE",
"148 -5 OFFCURVE",
"237 -2 OFFCURVE",
"329 -2 CURVE",
"340 29 OFFCURVE",
"341 108 OFFCURVE",
"336 177 CURVE",
"399 51 OFFCURVE",
"374 -100 OFFCURVE",
"361 -163 CURVE",
"398 -174 OFFCURVE",
"567 -177 OFFCURVE",
"606 -170 CURVE"
);
}
);
width = 1069;
},
{
background = {
paths = (
{
closed = 1;
nodes = (
"87 -12 OFFCURVE",
"174 -1 OFFCURVE",
"255 -1 CURVE SMOOTH",
"341 -1 OFFCURVE",
"404 -12 OFFCURVE",
"448 -17 CURVE",
"479 128 OFFCURVE",
"452 184 OFFCURVE",
"293 261 CURVE",
"353 183 LINE",
"420 281 LINE",
"307 286 LINE",
"474 203 OFFCURVE",
"514 146 OFFCURVE",
"479 -17 CURVE",
"601 -12 OFFCURVE",
"701 -1 OFFCURVE",
"813 -1 CURVE SMOOTH",
"899 -1 OFFCURVE",
"986 -10 OFFCURVE",
"1039 -17 CURVE",
"1061 40 OFFCURVE",
"1064 165 OFFCURVE",
"1046 222 CURVE",
"1014 233 OFFCURVE",
"980 263 OFFCURVE",
"980 381 CURVE SMOOTH",
"980 509 OFFCURVE",
"1021 531 OFFCURVE",
"1045 532 CURVE",
"1066 581 OFFCURVE",
"1067 712 OFFCURVE",
"1042 775 CURVE",
"987 770 OFFCURVE",
"921 760 OFFCURVE",
"838 760 CURVE SMOOTH",
"744 760 OFFCURVE",
"673 773 OFFCURVE",
"616 775 CURVE",
"582 635 OFFCURVE",
"604 605 OFFCURVE",
"788 529 CURVE",
"741 589 LINE",
"693 492 LINE",
"776 502 LINE",
"580 584 OFFCURVE",
"549 625 OFFCURVE",
"586 775 CURVE",
"443 766 OFFCURVE",
"342 761 OFFCURVE",
"245 761 CURVE SMOOTH",
"177 761 OFFCURVE",
"84 770 OFFCURVE",
"29 775 CURVE",
"2 712 OFFCURVE",
"2 582 OFFCURVE",
"25 533 CURVE",
"49 532 OFFCURVE",
"91 509 OFFCURVE",
"91 381 CURVE SMOOTH",
"91 263 OFFCURVE",
"57 233 OFFCURVE",
"25 222 CURVE",
"7 165 OFFCURVE",
"10 40 OFFCURVE",
"32 -17 CURVE"
);
},
{
closed = 1;
nodes = (
"687 -120 OFFCURVE",
"753 -50 OFFCURVE",
"753 39 CURVE SMOOTH",
"753 137 OFFCURVE",
"677 187 OFFCURVE",
"511 187 CURVE SMOOTH",
"391 187 OFFCURVE",
"309 139 OFFCURVE",
"309 37 CURVE",
"358 -17 OFFCURVE",
"355 -113 OFFCURVE",
"339 -163 CURVE",
"376 -174 OFFCURVE",
"545 -177 OFFCURVE",
"584 -170 CURVE"
);
}
);
};
layerId = "BDCFD595-0135-4C14-B4A6-60502184522E";
paths = (
{
closed = 1;
nodes = (
"842 -283 OFFCURVE",
"902 -228 OFFCURVE",
"920 -159 CURVE",
"949 -157 OFFCURVE",
"967 -156 OFFCURVE",
"983 -156 CURVE SMOOTH",
"1049 -156 OFFCURVE",
"1136 -165 OFFCURVE",
"1189 -172 CURVE",
"1211 -115 OFFCURVE",
"1214 10 OFFCURVE",
"1196 67 CURVE",
"1164 78 OFFCURVE",
"1130 108 OFFCURVE",
"1130 226 CURVE SMOOTH",
"1130 354 OFFCURVE",
"1171 376 OFFCURVE",
"1195 377 CURVE",
"1216 426 OFFCURVE",
"1217 557 OFFCURVE",
"1192 620 CURVE",
"1042 775 LINE",
"987 770 OFFCURVE",
"921 760 OFFCURVE",
"838 760 CURVE SMOOTH",
"744 760 OFFCURVE",
"673 773 OFFCURVE",
"616 775 CURVE",
"610 750 LINE",
"586 775 LINE",
"443 766 OFFCURVE",
"342 761 OFFCURVE",
"245 761 CURVE SMOOTH",
"177 761 OFFCURVE",
"84 770 OFFCURVE",
"29 775 CURVE",
"2 712 OFFCURVE",
"2 582 OFFCURVE",
"25 533 CURVE",
"79 477 LINE",
"86 455 OFFCURVE",
"91 424 OFFCURVE",
"91 381 CURVE SMOOTH",
"91 263 OFFCURVE",
"57 233 OFFCURVE",
"25 222 CURVE",
"7 165 OFFCURVE",
"10 40 OFFCURVE",
"32 -17 CURVE",
"182 -172 LINE",
"249 -165 OFFCURVE",
"307 -161 OFFCURVE",
"362 -159 CURVE",
"361 -163 LINE",
"511 -318 LINE",
"548 -329 OFFCURVE",
"717 -332 OFFCURVE",
"756 -325 CURVE"
);
}
);
width = 1069;
}
);
leftKerningGroup = N;
leftMetricsKey = "=N";
rightKerningGroup = N;
rightMetricsKey = "=N";
unicode = 0145;
},
